<svg width="888" height="648" fill="none" xmlns="http://www.w3.org/2000/svg"><path d="M309.292 400.202c-22.403 4.602-45.356 5.113-67.68-17.778-14.975-15.34-22.443-38.232-21.539-62.186 57.187 66.473 126.832-15.733 42.409-58.409 40.875-19.352 79.432-1.18 99.791 36.422 9.708 17.778 15.446 27.1 22.835 33.433a37.221 37.221 0 004.205 3.225 38.028 38.028 0 0117.608-20.964 34.024 34.024 0 0115.289-3.619c14.896 0 33.487 8.889 36.631 24.111a9.094 9.094 0 012.044-.275h10.73a8.418 8.418 0 011.768.197 26.278 26.278 0 0115.446 6.799 26.314 26.314 0 018.136 14.794 7.874 7.874 0 013.341-.747h10.808a8.42 8.42 0 011.769.197c15.721 2.399 21.813 11.8 24.054 24.072.406-.021.812-.021 1.218 0h10.887c.582.005 1.161.07 1.729.196 17.844 2.793 24.84 14.475 27.513 28.595 32.622-5.034 68.427-24.779 103.171 10.896 14.935 15.339 22.442 38.231 21.46 62.185-57.187-66.473-126.832 15.733-42.409 58.41-35.098 16.637-68.505 5.506-90.162-21.87a139.853 139.853 0 01-10.965 23.05 459.592 459.592 0 00-6.014 10.069v.354a87.287 87.287 0 01-6.092 9.243h7.507c3.128 0 6.127 1.243 8.338 3.456a11.805 11.805 0 013.453 8.344V636.2c0 3.13-1.242 6.131-3.453 8.344A11.785 11.785 0 01554.78 648H385.147a11.785 11.785 0 01-8.337-3.456 11.806 11.806 0 01-3.454-8.344v-63.995c0-3.129 1.243-6.131 3.454-8.343a11.786 11.786 0 018.337-3.457h3.931a82.63 82.63 0 01-4.206-17.817l-58.68-95.855v-.236a109.005 109.005 0 01-11.791-19.942 56.39 56.39 0 01-5.07-18.958 46.34 46.34 0 010-7.395h-.039zm76.445 27.218a8.237 8.237 0 01-1.219-.826c-4.991-3.933-10.415-8.417-15.171-12.271l-20.398-16.756a28.563 28.563 0 00-12.105-6.136 12.25 12.25 0 00-6.721.236 7.075 7.075 0 00-3.931 3.933 23.262 23.262 0 00-1.375 11.053 41.902 41.902 0 003.93 13.648 87.2 87.2 0 009.944 16.835l.471.747 59.624 97.546a8.306 8.306 0 011.336 3.579 51.74 51.74 0 006.367 21.791 9.782 9.782 0 008.725 4.956h93.817a28.17 28.17 0 0015.997-4.956 51.728 51.728 0 0014.621-17.149l.235-.433c1.73-2.911 3.931-6.647 6.171-10.266a148.719 148.719 0 0018.787-61.045l-.629-26.786c-.019-.38-.019-.76 0-1.14v-6.294c.236-17.699.511-39.608-15.721-42.361h-10.416c0 4.995-.393 10.03-.668 14.986-.275 4.956-.55 8.614-.55 12.665a7.869 7.869 0 01-2.302 5.562 7.855 7.855 0 01-11.117 0 7.869 7.869 0 01-2.302-5.562c0-3.933.314-8.771.629-13.649 1.061-16.638 2.279-35.793-11.084-38.192h-10.337a7.826 7.826 0 01-1.69 0c0 6.018-.314 12.311-.707 18.29-.275 4.405-.511 8.653-.511 12.665a7.861 7.861 0 01-7.861 7.867 7.857 7.857 0 01-5.558-2.304 7.873 7.873 0 01-2.302-5.563c0-3.933.314-8.732.628-13.609 1.022-16.677 2.241-35.793-11.083-38.193h-10.376a8.25 8.25 0 01-2.044-.275v30.444a7.869 7.869 0 01-2.302 5.562 7.855 7.855 0 01-11.117 0 7.869 7.869 0 01-2.302-5.562v-38.861c0-10.856-10.809-15.733-20.91-15.733a18.101 18.101 0 00-8.135 1.966c-7.075 3.58-12.578 13.728-12.578 27.769v86.376a7.869 7.869 0 01-2.302 5.562 7.857 7.857 0 01-11.117 0 7.869 7.869 0 01-2.302-5.562V427.42h-.039zm0-28.005l-7.389-3.028a94.622 94.622 0 00-10.337-3.501l11.28 9.204 6.446 5.31v-7.985z" fill="#FA8C16"/><path fill-rule="evenodd" clip-rule="evenodd" d="M670.49 171.325C790.12 265.324 888 344.03 888 346.221c0 2.195-5.086 10.469-11.295 18.385L865.41 379 657.766 216.541C543.568 127.194 447.915 54.088 445.212 54.088c-2.703 0-98.268 73.038-212.367 162.308L25.397 378.699l-12.615-14.368C5.841 356.426.087 348.619 0 346.989c-.093-1.635 32.461-28.409 72.338-59.506l72.503-56.532v-42.455c0-32.956-1.74-43.129-7.768-45.45-4.273-1.64-7.768-7.729-7.768-13.532 0-9.815 3.211-10.542 46.609-10.542 45.838 0 46.609.207 46.609 12.546 0 6.898-2.532 13.387-5.634 14.425-3.097 1.033-4.842 8.289-3.884 16.122 1.683 13.714 5.945 10.952 114.394-74.118 61.96-48.6 115.56-88.174 119.113-87.946 3.558.223 104.348 77.32 223.978 171.324z" fill="#FA8C16"/></svg>