<svg width="473" height="461" viewBox="0 0 473 461" fill="none" xmlns="http://www.w3.org/2000/svg">
<path d="M242.507 30.0782C240.469 30.1814 238.431 29.8691 236.518 29.1604C234.604 28.4516 232.855 27.3612 231.376 25.9555C229.897 24.5497 228.72 22.8579 227.915 20.983C227.11 19.108 226.695 17.089 226.695 15.0487C226.695 13.0084 227.11 10.9895 227.915 9.11451C228.72 7.23954 229.897 5.54777 231.376 4.14201C232.855 2.73624 234.604 1.64586 236.518 0.937119C238.431 0.228381 240.469 -0.0839042 242.507 0.0192448C283.909 -0.0345958 324.556 11.1099 360.14 32.272L358.639 33.5421C351.941 39.5847 344.897 46.628 337.776 54.1331C308.512 38.3246 275.769 30.0572 242.507 30.0782V30.0782ZM184.537 181.874L224.415 181.335L227.379 182.105C235.47 186.69 243.112 192.025 250.205 198.039C255.392 202.428 260.291 207.146 264.871 212.164C282.789 184.449 302.178 157.713 322.956 132.071C340.624 110.787 365.683 80.8437 385.276 63.3317L389.125 61.8307H432.66L423.884 71.5681C395.304 104.449 368.649 138.953 344.05 174.908C321.917 206.891 289.583 256.425 271.992 290.371L266.526 300.917L261.484 290.179C252.561 270.703 241.275 252.399 227.88 235.68C214.511 219.097 198.81 204.539 181.265 192.458L184.537 181.797V181.874ZM154.475 122.026C153.389 120.319 152.66 118.409 152.333 116.413C152.005 114.416 152.086 112.374 152.57 110.41C153.054 108.445 153.931 106.599 155.149 104.983C156.366 103.367 157.899 102.015 159.653 101.007C161.408 99.9997 163.349 99.3584 165.358 99.1218C167.368 98.8852 169.404 99.0583 171.345 99.6306C173.286 100.203 175.09 101.163 176.65 102.452C178.209 103.741 179.491 105.333 180.418 107.131L187.155 118.677C188.135 120.383 188.77 122.265 189.023 124.217C189.277 126.168 189.143 128.15 188.63 130.049C188.117 131.949 187.235 133.729 186.034 135.287C184.833 136.846 183.337 138.153 181.631 139.134C179.925 140.114 178.042 140.749 176.091 141.002C174.14 141.255 172.157 141.122 170.258 140.609C168.358 140.096 166.578 139.214 165.019 138.013C163.46 136.812 162.153 135.316 161.172 133.61L154.475 122.064V122.026ZM110.709 180.604C109.003 179.616 107.508 178.302 106.31 176.736C105.112 175.17 104.234 173.384 103.726 171.479C102.701 167.632 103.247 163.535 105.243 160.09C107.238 156.645 110.521 154.134 114.369 153.109C116.274 152.601 118.26 152.474 120.215 152.734C122.169 152.994 124.053 153.637 125.759 154.625L137.307 161.36C140.752 163.356 143.264 166.638 144.289 170.485C145.314 174.332 144.769 178.429 142.773 181.874C140.777 185.319 137.494 187.831 133.647 188.855C129.799 189.88 125.702 189.335 122.256 187.339L110.709 180.604ZM131.841 318.698C130.135 319.679 128.252 320.314 126.301 320.567C124.35 320.82 122.367 320.686 120.468 320.174C118.568 319.661 116.788 318.779 115.229 317.578C113.67 316.377 112.363 314.881 111.382 313.175C110.402 311.47 109.766 309.587 109.513 307.636C109.26 305.685 109.394 303.703 109.907 301.803C110.943 297.967 113.46 294.699 116.906 292.719L128.454 285.984C131.899 284.004 135.99 283.473 139.827 284.509C143.664 285.544 146.932 288.062 148.912 291.507C150.893 294.952 151.424 299.042 150.388 302.879C149.352 306.715 146.834 309.983 143.389 311.963L131.841 318.698V318.698ZM99.7382 245.572C95.7669 245.572 91.9583 243.994 89.1503 241.186C86.3422 238.379 84.7646 234.571 84.7646 230.6C84.7646 226.629 86.3422 222.821 89.1503 220.013C91.9583 217.205 95.7669 215.628 99.7382 215.628H113.172C117.143 215.628 120.952 217.205 123.76 220.013C126.568 222.821 128.146 226.629 128.146 230.6C128.146 234.571 126.568 238.379 123.76 241.186C120.952 243.994 117.143 245.572 113.172 245.572H99.7382ZM252.823 368.733C252.823 372.703 251.245 376.512 248.437 379.319C245.629 382.127 241.821 383.704 237.849 383.704C233.878 383.704 230.069 382.127 227.261 379.319C224.453 376.512 222.876 372.703 222.876 368.733V355.262C222.876 351.291 224.453 347.483 227.261 344.675C230.069 341.867 233.878 340.29 237.849 340.29C241.821 340.29 245.629 341.867 248.437 344.675C251.245 347.483 252.823 351.291 252.823 355.262V368.733ZM222.876 92.39C222.876 88.4193 224.453 84.6112 227.261 81.8034C230.069 78.9957 233.878 77.4183 237.849 77.4183C241.821 77.4183 245.629 78.9957 248.437 81.8034C251.245 84.6112 252.823 88.4193 252.823 92.39V105.861C252.823 107.827 252.436 109.774 251.683 111.59C250.931 113.407 249.828 115.057 248.437 116.447C247.047 117.838 245.396 118.94 243.579 119.693C241.763 120.445 239.816 120.833 237.849 120.833C235.883 120.833 233.936 120.445 232.119 119.693C230.302 118.94 228.652 117.838 227.261 116.447C225.871 115.057 224.768 113.407 224.015 111.59C223.263 109.774 222.876 107.827 222.876 105.861V92.39V92.39ZM181.766 357.61C179.77 361.05 176.489 363.556 172.645 364.577C168.801 365.599 164.709 365.051 161.268 363.056C157.828 361.06 155.321 357.78 154.3 353.936C153.279 350.093 153.826 346.001 155.822 342.561L162.519 331.015C163.503 329.301 164.814 327.798 166.378 326.591C167.942 325.385 169.728 324.498 171.635 323.981C173.542 323.465 175.532 323.329 177.492 323.581C179.451 323.834 181.342 324.47 183.055 325.453C184.769 326.436 186.272 327.747 187.479 329.311C188.686 330.875 189.573 332.661 190.089 334.568C190.606 336.475 190.742 338.464 190.489 340.423C190.237 342.383 189.601 344.273 188.617 345.986L181.881 357.533L181.766 357.61ZM326.036 342.561C327.644 345.951 327.921 349.822 326.81 353.407C325.7 356.992 323.283 360.029 320.04 361.917C316.796 363.805 312.962 364.406 309.296 363.601C305.63 362.796 302.4 360.644 300.246 357.571L293.509 346.025C291.519 342.58 290.978 338.485 292.007 334.642C293.036 330.798 295.549 327.521 298.995 325.53C302.44 323.54 306.535 322.999 310.379 324.028C314.223 325.056 317.501 327.569 319.492 331.015L326.228 342.561H326.036ZM364.952 292.527C368.257 294.586 370.633 297.85 371.577 301.628C372.521 305.406 371.959 309.404 370.011 312.776C368.062 316.148 364.879 318.63 361.134 319.7C357.389 320.769 353.375 320.341 349.939 318.506L338.392 311.771C334.946 309.775 332.435 306.493 331.41 302.646C330.385 298.798 330.93 294.702 332.926 291.257C334.922 287.812 338.204 285.3 342.052 284.275C345.9 283.25 349.997 283.796 353.442 285.791L364.99 292.527H364.952ZM385.199 215.551C389.17 215.551 392.978 217.128 395.787 219.936C398.595 222.744 400.172 226.552 400.172 230.523C400.172 234.494 398.595 238.302 395.787 241.109C392.978 243.917 389.17 245.495 385.199 245.495H370.879C366.908 245.495 363.1 243.917 360.291 241.109C357.483 238.302 355.906 234.494 355.906 230.523C355.906 226.552 357.483 222.744 360.291 219.936C363.1 217.128 366.908 215.551 370.879 215.551H385.199ZM63.5167 65.4486C65.4549 64.7265 67.4938 64.311 69.56 64.2169C74.2167 63.4566 78.991 64.4158 82.9926 66.9156C86.9942 69.4154 89.9498 73.2851 91.3083 77.8031L107.283 129.723C108.112 132.198 108.436 134.814 108.236 137.416C108.036 140.019 107.316 142.555 106.118 144.874C104.92 147.193 103.27 149.248 101.263 150.918C99.2573 152.588 96.9364 153.838 94.4383 154.595C91.9402 155.352 89.3156 155.601 86.7198 155.326C84.124 155.05 81.6098 154.257 79.326 152.993C77.0422 151.729 75.0352 150.02 73.4239 147.966C71.8126 145.913 70.6296 143.557 69.945 141.039L67.4045 132.764C43.7969 175.008 36.2708 224.366 46.2156 271.725C56.1603 319.084 82.9044 361.247 121.511 390.43C160.117 419.614 207.979 433.847 256.261 430.503C304.543 427.158 349.985 406.462 384.198 372.235C414.297 342.143 434.039 303.255 440.565 261.199C447.09 219.143 440.062 176.102 420.496 138.306C427.194 129.685 434.046 121.179 440.859 113.096C458.922 143.613 469.699 177.885 472.353 213.246C475.008 248.607 469.467 284.103 456.162 316.973C442.856 349.843 422.146 379.201 395.642 402.762C369.137 426.323 337.554 443.453 303.348 452.817C269.142 462.182 233.237 463.529 198.426 456.754C163.614 449.98 130.835 435.266 102.639 413.757C74.4435 392.249 51.5906 364.526 35.8589 332.745C20.1272 300.964 11.9408 265.983 11.9368 230.523C11.941 189.971 22.6568 150.14 43.0002 115.059L26.5254 121.294C21.6711 123.137 16.2836 122.976 11.5481 120.846C6.81264 118.717 3.11705 114.794 1.27435 109.94C-0.568344 105.087 -0.407203 99.6999 1.72233 94.965C3.85186 90.2301 7.77533 86.5349 12.6296 84.6925L63.5167 65.4486Z" fill="#FA8C16"/>
</svg>
