<svg width="597" height="466" viewBox="0 0 597 466" fill="none" xmlns="http://www.w3.org/2000/svg">
<path fill-rule="evenodd" clip-rule="evenodd" d="M372.49 298.818C375.6 301.395 378.613 304.118 381.578 307.036C384.302 310.07 386.772 313.323 388.964 316.761C397.584 331.236 401.916 347.865 401.453 364.708C401.794 380.633 397.212 396.275 388.332 409.495C382.315 417.229 374.751 423.622 366.124 428.265C355.947 433.74 345.077 437.813 333.809 440.373H81.697C75.6152 439.526 69.6692 437.891 64.0083 435.51C58.8108 433.406 53.9739 430.502 49.6728 426.903C45.6348 423.519 42.0133 419.667 38.8846 415.427C30.454 403.739 25.8529 389.723 25.7153 375.309C25.406 365.931 27.4075 356.621 31.5431 348.2C35.6787 339.779 41.8216 332.506 49.4298 327.022C54.7827 323.209 60.5953 320.089 66.7297 317.734C74.1106 314.958 81.7434 312.906 89.5208 311.607L98.1707 310.099L99.6286 301.492C103.794 276.526 117.077 253.998 136.901 238.276C152.638 226.234 171.454 218.884 191.182 217.074C211.081 215.126 231.136 218.622 249.204 227.189C268.249 236.328 284.002 251.14 294.301 269.592C291.92 270.614 289.441 271.732 287.254 272.85C274.354 278.934 262.457 286.953 251.974 296.629L268.788 316.081C276.134 309.935 283.949 304.375 292.163 299.45V299.45C294.738 297.942 297.362 296.532 299.938 295.268C311.296 289.951 323.651 287.1 336.19 286.904C349.235 286.798 361.966 290.909 372.49 298.623V298.818ZM420.162 129.933H418.802C418.836 124.477 417.75 119.071 415.61 114.052C413.47 109.033 410.322 104.508 406.361 100.757C402.607 96.8048 398.082 93.6653 393.067 91.5325C388.052 89.3997 382.653 88.3188 377.204 88.3567V87.0437C382.658 87.084 388.062 85.9995 393.078 83.8577C398.095 81.7159 402.616 78.5628 406.361 74.595C410.319 70.8422 413.466 66.3165 415.606 61.2979C417.745 56.2792 418.833 50.8746 418.802 45.4183H420.162C420.128 50.875 421.214 56.2806 423.354 61.2996C425.494 66.3186 428.642 70.844 432.603 74.595C436.344 78.5674 440.865 81.7237 445.882 83.8658C450.899 86.008 456.305 87.0899 461.76 87.0437V88.4053C456.311 88.3674 450.912 89.4483 445.897 91.5811C440.882 93.7139 436.357 96.8534 432.603 100.805C428.642 104.556 425.494 109.082 423.354 114.101C421.214 119.12 420.128 124.525 420.162 129.982V129.933ZM556.86 103.48H555.937C555.788 96.2786 552.863 89.4137 547.773 84.3205C542.683 79.2273 535.823 76.3001 528.627 76.1511V75.2272C532.206 75.2413 535.75 74.5241 539.042 73.1193C542.334 71.7145 545.305 69.6519 547.773 67.0577C550.363 64.5867 552.423 61.6134 553.827 58.3193C555.23 55.0252 555.948 51.4794 555.937 47.8984H556.86C556.846 51.4798 557.563 55.0265 558.967 58.321C560.371 61.6155 562.432 64.5884 565.024 67.0577C567.49 69.6584 570.459 71.7286 573.751 73.1416C577.043 74.5546 580.589 75.2808 584.171 75.2758V76.1511C576.982 76.3239 570.135 79.2587 565.051 84.3468C559.966 89.435 557.033 96.2862 556.86 103.48V103.48ZM504.232 223.056H502.531C502.198 209.391 496.621 196.38 486.958 186.719C477.295 177.059 464.287 171.491 450.631 171.17V169.468C457.431 169.497 464.165 168.131 470.417 165.455C476.668 162.778 482.306 158.848 486.981 153.907C491.907 149.22 495.827 143.577 498.501 137.323C501.174 131.069 502.546 124.336 502.531 117.533H504.232C504.225 124.352 505.619 131.1 508.327 137.357C511.036 143.614 515.001 149.248 519.977 153.907C524.655 158.844 530.293 162.771 536.544 165.447C542.795 168.123 549.527 169.491 556.326 169.468V171.121C542.663 171.431 529.646 177.004 519.987 186.678C510.328 196.353 504.772 209.383 504.475 223.056H504.232ZM426.917 384.403C497.963 369.474 577.562 310.877 597 241.534C564.061 267.037 522.898 279.525 481.352 276.618C439.806 273.711 400.781 255.613 371.709 225.771C342.638 195.929 325.552 156.428 323.707 114.794C321.861 73.1593 335.385 32.3003 361.702 0C277.438 21.3476 215.091 100.708 214.945 191.642C206.251 190.791 197.495 190.791 188.801 191.642C164.33 193.932 141.002 203.085 121.496 218.047C99.072 235.671 83.2643 260.367 76.6431 288.12C70.128 289.598 63.7289 291.548 57.4966 293.955C49.2496 297.064 41.4414 301.232 34.2681 306.355C28.7748 310.382 23.797 315.069 19.4466 320.311C6.61629 335.773 -0.276695 355.311 0.0085085 375.406C0.198923 395.17 6.47787 414.393 17.9887 430.453C22.3907 436.531 27.5329 442.036 33.2962 446.841C39.611 452.123 46.7101 456.389 54.3379 459.484C62.4455 462.787 70.9619 464.979 79.656 466H81.2596H335.315L338.182 465.66C352.348 462.566 366.008 457.492 378.759 450.585C390.494 444.198 400.746 435.398 408.84 424.764C417.553 412.841 423.225 398.969 425.362 384.354H427.063L426.917 384.403Z" fill="#FA8C16"/>
</svg>
