<svg width="500" height="367" viewBox="0 0 500 367" fill="none" xmlns="http://www.w3.org/2000/svg">
<path d="M117.725 18.8064C110.993 11.1804 103.027 5.96847 92.7734 2.48165C82.2188 -1.10575 66.2373 -0.358191 54.3779 4.27804C42.2695 9.01046 27.8994 23.7155 23.252 36.1262C20.2246 44.2107 19.8145 48.5515 18.7773 83.5857C18.1504 104.794 17.2676 133.993 16.8174 148.471L16.1279 196.347C12.2832 196.744 8.79297 198.362 6.05957 200.823C5.78613 201.018 5.5127 201.292 5.27832 201.526C2.0332 204.807 0 209.3 0 214.261V230.63C0 235.592 2.0332 240.084 5.27832 243.365L5.31738 243.326V243.365C8.60156 246.608 13.0977 248.639 18.0234 248.639H33.5049L53.3271 324.154C54.4863 328.608 55.0869 333.379 55.6748 338.056C57.5283 352.785 59.2637 366.58 77.958 366.58L107.734 366.569C136.979 366.556 183.203 366.534 231.419 366.51L249.514 366.501C329.772 366.462 410.375 366.423 423.333 366.423C443.785 366.423 445.553 351.374 447.378 335.84C447.858 331.746 448.344 327.619 449.175 323.724L465.282 248.639H482.016C486.941 248.639 491.477 246.608 494.722 243.365C497.967 240.084 500 235.592 500 230.63V214.261C500 209.3 497.967 204.768 494.722 201.526C492.924 199.729 490.734 198.283 488.271 197.385V98.3137C483.462 54.5598 447.963 33.0739 406.247 50.1848C389.632 40.6526 371.999 42.801 353.468 54.8332C345.321 53.4577 344.583 54.3625 340.163 59.7785L339.862 60.1462C337.751 61.7873 337.399 63.6623 339.198 65.8108L405.271 132.496C408.046 134.723 410.196 134.567 411.916 132.809L416.217 127.848C418.133 124.527 418.289 121.402 416.53 118.55C430.331 100.97 431.582 83.7424 421.847 66.7878C443.467 63.7014 459.652 71.3191 465.36 99.3293V196.213C381.987 196.213 311.548 196.222 243.787 196.231V215.863H480.413V228.989H243.787V291.509C243.787 317.653 222.594 338.846 196.45 338.846H155.621C129.478 338.846 108.284 317.653 108.284 291.509V228.989H19.626V215.863H28.6182C30.1035 216.215 31.668 216.254 33.2314 215.863H108.284V196.248C84.8604 196.25 60.9512 196.252 36.1514 196.252L36.8145 159.595C37.2686 151.235 38.1689 122.702 38.8154 96.1921C39.915 51.135 40.1934 47.5993 43.084 41.9797C46.9014 34.5583 53.8418 27.4768 60.7412 23.9587C68.3174 20.0984 84.4043 20.4065 92.0488 24.5593C99.3818 28.5446 106.505 36.1067 109.228 42.8L111.338 47.9909L131.889 47.0061L130.959 43.049C129.353 36.2063 123.306 25.1306 117.725 18.8064Z" fill="#FA8C16"/>
<path d="M162.381 75.55C158.568 67.9016 147.74 58.3967 138.62 54.696C123.554 48.5813 102.784 52.9504 90.8389 64.7487C86.1191 69.4113 79.7334 79.3557 79.7334 82.0432C79.7334 82.4836 98.9678 82.844 122.476 82.844C145.983 82.844 165.218 82.4836 165.218 82.0432C165.218 81.6027 163.941 78.6809 162.381 75.55Z" fill="#FA8C16"/>
<path d="M170.789 94.0651C171.086 92.487 170.155 90.3191 168.721 89.2448C166.701 87.7336 156.268 87.2932 122.476 87.2932C76.377 87.2932 72.9775 87.7692 74.1621 94.0651C74.6826 96.8313 76.3984 96.9333 122.476 96.9333C168.553 96.9333 170.269 96.8313 170.789 94.0651Z" fill="#FA8C16"/>
<path d="M151.815 122.338C156.862 120.585 156.849 112.405 151.791 106.893L148.58 103.395L144.583 107.974C140.228 112.965 139.592 116.549 142.397 120.278C144.602 123.205 147.495 123.839 151.815 122.338Z" fill="#FA8C16"/>
<path d="M126.111 122.426C131.49 119.696 131.695 113.262 126.576 107.794L122.482 103.421L119.141 107.398C112.61 115.17 117.909 126.591 126.111 122.426Z" fill="#FA8C16"/>
<path d="M100.949 122.522C106.131 120.104 106.194 112.466 101.08 106.893L97.8691 103.395L93.7881 108.071C88.8213 113.761 88.9385 119.751 94.0674 122.354C96.5957 123.638 98.459 123.683 100.949 122.522Z" fill="#FA8C16"/>
<path d="M143.484 142.071C143.484 139.93 140.725 134.609 137.894 131.291C135.666 128.684 135.408 128.759 131.559 133.169C129.353 135.697 127.547 139.09 127.547 140.709C127.547 144.174 132.405 149.584 135.516 149.584C138.012 149.584 143.484 144.424 143.484 142.071Z" fill="#FA8C16"/>
<path d="M92.7734 142.071C92.7734 139.93 90.0137 134.609 87.1826 131.291C84.9551 128.684 84.6973 128.759 80.8477 133.169C78.6406 135.697 76.8359 139.09 76.8359 140.709C76.8359 144.174 81.6943 149.584 84.8047 149.584C87.3008 149.584 92.7734 144.424 92.7734 142.071Z" fill="#FA8C16"/>
<path d="M165.466 147.129C169.031 143.826 168.81 137.925 164.966 133.735C160.945 129.356 158.88 129.406 155.967 133.959C149.848 143.516 157.666 154.355 165.466 147.129Z" fill="#FA8C16"/>
<path d="M114.755 147.129C118.32 143.826 118.099 137.925 114.255 133.735C110.234 129.356 108.169 129.406 105.256 133.959C99.1367 143.516 106.955 154.355 114.755 147.129Z" fill="#FA8C16"/>
<path d="M178.506 172.342C181.912 169.188 181.844 166.329 178.214 160.236C174.541 154.07 171.224 154.51 167.473 161.659C164.792 166.767 164.775 167.212 167.144 170.911C169.993 175.363 174.616 175.945 178.506 172.342Z" fill="#FA8C16"/>
<path d="M147.831 174.797C154.851 174.797 157.402 164.918 151.926 158.948C150.008 156.859 149.047 155.811 148.054 155.778C147.054 155.745 146.02 156.741 143.939 158.74C138.141 164.319 140.68 174.797 147.831 174.797Z" fill="#FA8C16"/>
<path d="M128.188 171.5C131.098 167.251 131.031 166.159 127.503 160.236C123.83 154.07 120.513 154.51 116.762 161.659C114.081 166.767 114.064 167.212 116.433 170.911C119.537 175.76 125.084 176.039 128.188 171.5Z" fill="#FA8C16"/>
<path d="M97.1201 174.797C104.14 174.797 106.691 164.918 101.215 158.948C99.2969 156.859 98.3359 155.811 97.3428 155.778C96.3428 155.745 95.3086 156.741 93.2285 158.74C87.4297 164.319 89.9688 174.797 97.1201 174.797Z" fill="#FA8C16"/>
<path d="M77.084 172.342C80.4902 169.188 80.4219 166.329 76.792 160.236C73.1191 154.07 69.8018 154.51 66.0498 161.659C63.3701 166.767 63.3535 167.212 65.7217 170.911C68.5713 175.363 73.1943 175.945 77.084 172.342Z" fill="#FA8C16"/>
<path d="M386.699 131.129L386.934 131.442C388.146 133.161 387.716 135.583 385.996 136.794L356.283 157.577C354.562 158.788 352.139 158.397 350.927 156.639L350.692 156.327C349.48 154.608 349.871 152.186 351.63 150.975L381.344 130.192C383.063 128.981 385.487 129.371 386.699 131.129Z" fill="#FA8C16"/>
<path d="M131.953 196.246L220.118 196.235V215.863H131.953V196.246Z" fill="#FA8C16"/>
<path d="M220.118 228.989V291.509C220.118 304.581 209.521 315.177 196.45 315.177H155.621C142.55 315.177 131.953 304.581 131.953 291.509V228.989H220.118Z" fill="#FA8C16"/>
<path d="M349.52 99.3293L349.284 99.0168C348.072 97.259 345.648 96.8684 343.929 98.0793L314.216 118.863C312.456 120.073 312.065 122.496 313.277 124.215L313.512 124.527C314.724 126.285 317.147 126.675 318.868 125.465L348.581 104.681C350.34 103.47 350.731 101.049 349.52 99.3293Z" fill="#FA8C16"/>
<path d="M332.199 81.8278L332.435 82.1403C333.646 83.8596 333.216 86.2815 331.496 87.4924L301.783 108.276C300.062 109.487 297.639 109.096 296.427 107.338L296.192 107.026C294.98 105.307 295.371 102.884 297.13 101.674L326.844 80.8903C328.563 79.6794 330.987 80.07 332.199 81.8278Z" fill="#FA8C16"/>
<path d="M366.565 115.932L366.33 115.62C365.118 113.862 362.694 113.471 360.975 114.682L331.262 135.466C329.502 136.676 329.111 139.099 330.323 140.818L330.558 141.13C331.77 142.888 334.193 143.279 335.914 142.068L365.666 121.284C367.347 120.073 367.777 117.691 366.565 115.932Z" fill="#FA8C16"/>
</svg>
