<svg width="166" height="100" fill="none" xmlns="http://www.w3.org/2000/svg"><path d="M96.728 49.345c-6.191 9.407-10.393 16.451-10.532 17.566-.19 1.528.051 1.984 1.369 2.585 3.183 1.453 9.039.576 12.813-1.9 1.085-.713 2.823-2.587 3.84-4.107 6.178-9.232 18.456-28.142 18.744-28.896.292-.76-.894-.917-7.794-.913h-8.098L96.728 49.345zM51.419 92.543c5.184-7.362 14.751-21.78 14.474-22.058-.107-.107-1.697.192-3.536.684-2.879.772-5.466.843-7.546.208.28 1.764.424 3.572.424 5.414a34.207 34.207 0 01-3.816 15.752zm3.031-23.089c3.256 1.51 10.05.573 13.572-2.695.927-.861 3.446-4.234 5.589-7.529.77-1.183 1.858-2.864 3.1-4.781a3646.59 3646.59 0 017.166-11.035l6.387-9.734H73.611l-2.13 3.273c-5.709 8.766-12.3 18.888-18.086 28.716a34.116 34.116 0 011.055 3.785zm-2.238-6.776L71.177 33.68h-12.47l-1.597 2.51c-.869 1.376-5.862 8.964-11.102 16.881l-.114.171a34.406 34.406 0 016.318 9.436zM44.799 52.13a6308.148 6308.148 0 018.85-13.583l3.194-4.867h-16.69l-7.217 10.931a34.371 34.371 0 0111.863 7.52zm25.618 14.477c.79-.87 6.053-8.638 11.673-17.262L92.28 33.68h6.349c4.919 0 6.246.171 5.893.76-.25.42-4.663 7.187-9.847 15.057-5.185 7.87-9.727 15.2-10.076 16.273-.457 1.402-1.335 2.254-3.08 3.042-3.004 1.356-10.001 1.49-11.52.228-.958-.795-.917-.964.418-2.433z" fill="#fff"/><path d="M76.882 79.627l.607-.93c3.488-5.35 6.456-9.733 6.578-9.733.121 0 1 .598 1.939 1.293 2.34 1.73 5.801 2.076 9.961.988 1.925-.503 3.498-.84 3.498-.684 0 .54-15.353 23.676-16.653 25.094-3.094 3.377-10.556 5.368-14.334 3.802l-.194-.08c-.829-.342-1.454-.6-1.748-1.067-.904-1.433 1.315-4.835 10.346-18.683zm-16.046 1.96c-4.015 6.253-8.201 12.57-9.277 13.992l-1.94 2.585 1.331.913c1.763 1.236 6.72 1.177 10.19-.152 2.146-.822 2.984-1.604 3.878-3.498.627-1.33 4.17-7.08 7.909-12.775l1.542-2.35.001-.002c3.053-4.65 5.486-8.356 5.68-8.675.298-.488-.473-.487-2.737-.076-2.864.522-5.229.285-8.365-.912-.665-.254-2.89 2.66-8.212 10.95zm59.161-39.542a6543.261 6543.261 0 00-13.878 21.368c-3.136 4.844-7.022 10.822-10.255 15.797v.001a10737.39 10737.39 0 00-4.46 6.862c-3.261 5.028-5.93 9.42-5.93 9.734 0 .314 1.597.608 3.573.608h3.612l3.27-5.095c1.804-2.762 5.165-7.956 7.491-11.558a4178.045 4178.045 0 019.847-15.133c3.093-4.733 7.02-10.751 8.707-13.383 1.686-2.632 3.259-4.793 3.498-4.79.239.002.901.753 1.445 1.672.544.92 6.259 9.74 12.699 19.62 6.439 9.88 13.249 20.34 15.132 23.268l3.422 5.323 3.802.076c2.092.001 3.802-.177 3.802-.38 0-.204-2.557-4.237-5.665-8.973-3.108-4.736-12.074-18.589-19.923-30.721-7.85-12.133-14.481-22.044-14.714-22.053-.233-.007-2.68 3.486-5.475 7.757z" fill="#fff"/><path d="M118.476 59.61l1.521-2.357c.847-1.28 1.715-2.09 1.939-1.825.224.265 5.722 8.66 12.205 18.707 6.482 10.047 12.288 18.972 12.889 19.77 1.626 2.161 1.355 2.51-1.825 2.51h-2.89l-7.186-11.178c-3.957-6.112-9.333-14.395-11.938-18.402l-4.715-7.224zM32.492 93.599A22.5 22.5 0 0028.644 83.1c-2.065-2.932-4.749-4.93-7.57-4.93-2.82 0-5.512 1.998-7.577 4.93A22.503 22.503 0 009.65 93.599h22.843zM97.49 15.246a4.342 4.342 0 01-.583 2.958 4.222 4.222 0 01-2.356 1.834l-11.253 3.496a4.146 4.146 0 01-3.233-.294 4.228 4.228 0 01-1.285-1.062 4.306 4.306 0 01-.783-1.483 4.351 4.351 0 01.327-3.284 4.267 4.267 0 011.06-1.294 4.19 4.19 0 011.467-.778l1.046-.333a42.221 42.221 0 00-18.225-5.197 42.131 42.131 0 00-18.645 3.312 42.778 42.778 0 00-15.412 11.172 43.687 43.687 0 00-9.159 16.843h-7.841a51.502 51.502 0 0110.398-20.858A50.41 50.41 0 0141.45 6.301a49.605 49.605 0 0122.628-4.178 49.717 49.717 0 0122.094 6.491L85.118 5.84a4.366 4.366 0 01.085-3.29A4.26 4.26 0 0187.551.285a4.165 4.165 0 013.236.087 4.27 4.27 0 012.227 2.388l4.203 11.182a4.5 4.5 0 01.273 1.314v-.01zM30.672 65.203a19.596 19.596 0 001.82-6.475H9.63a19.36 19.36 0 001.82 6.475h19.221zm-28.4 32.67a1.87 1.87 0 01-1.577-.403 1.929 1.929 0 01-.513-.668 1.96 1.96 0 01.513-2.32 1.89 1.89 0 011.576-.402h2.802A26.802 26.802 0 019.74 80.724a17.75 17.75 0 015.55-5.245 16.822 16.822 0 01-5.614-4.819 23.205 23.205 0 01-4.612-12.95H2.4a1.87 1.87 0 01-1.577-.401 1.93 1.93 0 01-.512-.668 1.96 1.96 0 01.512-2.32 1.889 1.889 0 011.577-.402h37.589a1.872 1.872 0 011.576.402c.217.18.392.409.513.667a1.96 1.96 0 01-.513 2.32 1.89 1.89 0 01-1.576.403h-2.911a23.205 23.205 0 01-4.613 12.95 16.822 16.822 0 01-5.612 4.818 17.748 17.748 0 015.549 5.245 26.803 26.803 0 014.666 13.356h2.802a1.872 1.872 0 011.577.402 1.961 1.961 0 01.512 2.32 1.92 1.92 0 01-.512.668 1.87 1.87 0 01-1.577.402H2.271z" fill="#fff"/></svg>