<svg width="275" height="100" fill="none" xmlns="http://www.w3.org/2000/svg"><path d="M117.655 98.009c2.579-1.12 3.726-2.332 4.939-4.905.945-2.005 6.289-10.676 11.925-19.263l2.326-3.543.001-.002.004-.005c4.601-7.008 8.269-12.595 8.562-13.075.448-.737-.715-.736-4.128-.115-4.319.786-7.884.43-12.613-1.376-.929-.355-3.872 3.384-10.671 13.859V96c0 .705-.122 1.38-.345 2.009zM118 65.207c3.564-5.466 6.092-9.532 5.913-9.711-.161-.161-2.558.289-5.332 1.032-.195.052-.388.102-.581.15v8.529zm0-10.852c3.415-.785 6.759-2.283 9.123-4.478 1.399-1.298 5.197-6.384 8.428-11.351 1.161-1.785 2.802-4.319 4.674-7.21 3.338-5.152 7.41-11.439 10.805-16.64l2.743-4.179C156.731 5.99 153.498 0 148.106 0h-8.214a8.005 8.005 0 00-6.708 3.637l-.845 1.298c-4.534 6.963-9.438 14.494-14.339 22.228v27.192zm0-33.129l5.945-9.091C127.357 6.919 123.615 0 117.382 0c-.291 0-.581.016-.867.048A5.98 5.98 0 01118 4v17.226zm52.408 2.394c-9.336 14.185-15.672 24.806-15.881 26.487-.287 2.303.077 2.992 2.064 3.898 4.8 2.19 13.629.868 19.32-2.866 1.636-1.074 4.258-3.9 5.791-6.192 9.315-13.92 27.828-42.434 28.263-43.571.44-1.146-1.348-1.382-11.752-1.376h-7.907a7.998 7.998 0 00-6.676 3.592L170.408 23.62zm-39.673 26.028c1.192-1.31 9.128-13.025 17.601-26.028l12.998-19.982A8 8 0 01168.04 0h5.234c7.417 0 9.418.258 8.886 1.147-.378.631-7.031 10.835-14.848 22.702-7.818 11.868-14.666 22.92-15.193 24.538-.689 2.113-2.013 3.398-4.643 4.586-4.531 2.045-15.081 2.248-17.371.344-1.444-1.199-1.383-1.453.63-3.669z" fill="#fff"/><path d="M124.882 97.453c-1.362-2.162 1.983-7.291 15.602-28.172l.915-1.402c5.259-8.066 9.734-14.677 9.918-14.677.183 0 1.508.902 2.924 1.95 3.527 2.61 8.747 3.131 15.02 1.49 2.901-.758 5.274-1.266 5.274-1.032 0 .816-23.151 35.7-25.11 37.838-4.666 5.092-15.917 8.095-21.614 5.733l-.291-.12c-1.251-.516-2.194-.905-2.638-1.609zm80.612-84.84c-4.215 6.439-13.636 20.956-20.926 32.22-4.729 7.305-10.59 16.321-15.466 23.823l-.012.018c-2.636 4.056-4.983 7.668-6.709 10.327-4.918 7.58-8.943 14.204-8.943 14.676 0 .473 2.409.918 5.389.918h1.075a7.999 7.999 0 006.732-3.68l2.57-4.002a5251.685 5251.685 0 0011.294-17.429 6440.302 6440.302 0 0114.848-22.817c4.665-7.138 10.585-16.212 13.129-20.18 2.542-3.97 4.915-7.227 5.274-7.224.361.004 1.359 1.137 2.179 2.523.82 1.385 9.438 14.684 19.148 29.582 9.709 14.897 19.977 30.67 22.817 35.086l2.854 4.44a8 8 0 006.57 3.671l1.469.03c3.154.002 5.733-.267 5.733-.573 0-.308-3.857-6.389-8.542-13.53-4.687-7.142-18.205-28.03-30.041-46.323C224.099 15.875 214.1.929 213.749.917c-.351-.012-4.04 5.257-8.255 11.696z" fill="#fff"/><path d="M205.512 42.642a6.519 6.519 0 01-.018-7.097c1.276-1.932 2.586-3.151 2.923-2.752.339.398 8.629 13.056 18.403 28.206s18.529 28.607 19.435 29.812c2.452 3.258 2.043 3.784-2.752 3.784a7.982 7.982 0 01-6.713-3.665l-8.479-13.19a21913.957 21913.957 0 00-18.002-27.748l-4.797-7.35zm-114.087 11.3c.176-1.111.617-2.14.979-2.288 1.89-.767 2.988.015 3.367 2.397.234 1.474.67 2.23 1.458 2.532 4.416 1.69 6.842 8.751 3.25 9.462-1.18.234-2.417-.85-2.417-2.119 0-1.827-2.345-3.619-4.736-3.619-1.584 0-2.494.344-3.444 1.3-1.578 1.589-1.633 2.888-.201 4.72.94 1.204 1.486 1.396 3.967 1.396 3.915 0 6.702 1.483 8.148 4.338 2.086 4.116.442 8.966-3.66 10.787-1.68.747-2.081 1.244-2.486 3.079-.386 1.748-.74 2.224-1.768 2.37-1.52.216-2.66-1.095-2.662-3.064-.001-1.02-.486-1.618-1.957-2.415-2.639-1.43-4.45-4.221-4.25-6.55.286-3.316 3.62-3.67 4.005-.426.397 3.338 5.746 4.782 8.278 2.233.71-.715 1.292-1.798 1.292-2.407 0-.61-.582-1.693-1.292-2.408-1.08-1.087-1.801-1.3-4.395-1.3-2.35 0-3.537-.292-4.89-1.202-5.164-3.473-4.59-11.308 1.015-13.852 1.764-.8 2.126-1.248 2.399-2.964z" fill="#fff"/><path fill-rule="evenodd" clip-rule="evenodd" d="M45.857.152c-4.652.143-4.778.187-6.843 2.37-2.117 2.24-1.932-.264-2.005 27.157-.07 25.988.02 29.112.86 29.792.542.439 1.593.523 2.236.179.94-.503.952-.756 1.159-24.676.181-20.903.37-28.215.752-29.186.075-.19.506-.545.957-.788.806-.434 1.444-.443 32.708-.44 20.912 0 32.19.08 32.768.23.52.136 1.073.488 1.351.86l.47.63v43.412c0 45.871.028 44.594-.978 44.99-1.15.454-10.623.587-36.856.52-26.057-.068-28.68-.108-29.433-.448-.454-.205-.951-.608-1.105-.894-.153-.287-.404-2.234-.558-4.328-.23-3.14-.356-3.91-.72-4.399-.601-.808-1.42-1.072-2.257-.725-1.168.484-1.29 1.017-1.29 5.632 0 4.11.012 4.213.615 5.43.684 1.377 1.902 2.762 2.872 3.264 1.691.875 2.834.903 36.152.903 25.487 0 32.405-.06 33.155-.287 2.011-.611 4.305-3.032 4.84-5.108.236-.916.293-9.678.293-44.848V5.684l-.548-1.072c-.671-1.315-2.664-3.363-3.795-3.9-.46-.22-1.648-.476-2.639-.572-2.014-.194-55.818-.183-62.161.012zm16.87 8.117c-.26.105-.817.599-1.239 1.098-.798.944-11.679 18.243-13.69 21.767-2.274 3.983-1.429 4.854 4.714 4.854 2.258 0 2.917.066 2.917.296 0 .163-.145 1.405-.322 2.76-1.199 9.188-1.184 11.04.094 11.7 1.932 1 2.163.733 9.4-10.826 6.819-10.89 8.65-14.077 8.575-14.935-.135-1.56-1.532-2.038-6.011-2.053l-2.791-.01.154-1.408c1.025-9.352 1.191-11.668.896-12.438-.166-.432-1.244-1.03-1.82-1.01a3.15 3.15 0 00-.877.205zm-2.97 14.614c-.37 4.223-.226 4.378 4.18 4.543l3.011.113-3.297 5.294c-1.814 2.913-3.453 5.447-3.643 5.633-.309.303-.331.267-.213-.338.072-.371.158-1.762.191-3.09.056-2.251.025-2.448-.453-2.929-.47-.472-.764-.524-3.552-.627l-3.041-.113 3.43-5.496c1.886-3.023 3.46-5.4 3.5-5.284.039.117-.012 1.15-.112 2.294zm4.53 30.406c-.64.23-1.552.71-2.027 1.07-.474.36-4.157 3.916-8.182 7.903l-7.32 7.248-4.312-4.22c-2.37-2.32-4.787-4.534-5.37-4.92-1.807-1.198-4.559-1.46-6.233-.593-.76.393-4.37 3.81-11.393 10.779l-5.462 5.42V73.68c0-3.816-.57-5.616-2.264-7.147-1.424-1.287-2.742-1.805-4.61-1.812-2.802-.011-5.402 1.685-6.578 4.292-.363.805-.405 1.991-.468 13.299L0 94.728l.799 1.363c.932 1.591 1.719 2.306 3.556 3.234l1.336.675 24.4-.137 1.127-.6c2.58-1.374 3.785-3.402 3.78-6.367-.004-2.198-.392-3.242-1.708-4.599-1.858-1.914-3.615-2.516-7.348-2.516h-1.927l9.437-9.449 4.4 4.338c2.421 2.386 4.916 4.663 5.545 5.06 2.365 1.496 4.619 1.391 7.045-.328 1.709-1.21 11.334-10.646 17.624-17.276 4.687-4.94 5.435-6.05 5.455-8.097.046-4.68-4.9-8.29-9.234-6.74zm2.903 4.338c1.093.304 1.527.96 1.527 2.306v1.088l-6.629 6.804C55.623 74.46 49.973 79.97 48.125 81.44c-1.598 1.273-1.515 1.323-7.526-4.526-5.49-5.342-6.655-6.242-7.555-5.832-.652.298-10.109 9.353-13.82 13.233-3.226 3.374-3.428 3.768-2.516 4.928.866 1.1 1.12 1.147 7.046 1.274l5.599.12.538.625c.752.875.756 2.553.009 3.36-.487.526-.739.585-3.097.728-1.412.086-6.621.122-11.576.08-9.648-.08-9.83-.102-10.259-1.23-.29-.766-.28-22.478.011-23.53.165-.592.433-.902 1.02-1.183.439-.209.96-.38 1.157-.38.697 0 1.846.912 2.07 1.643.121.398.267 3.004.323 5.792.117 5.756.283 6.523 1.507 6.95.573.2.854.181 1.375-.088.36-.186 4.8-4.433 9.868-9.436 5.066-5.003 9.666-9.363 10.22-9.688.791-.464 1.124-.546 1.552-.383.3.114 2.986 2.583 5.97 5.486 2.984 2.904 5.742 5.412 6.13 5.572.647.268.782.24 1.653-.336.521-.345 4.397-4.037 8.612-8.204 8.015-7.923 9.192-9.025 9.643-9.023.15.001.65.106 1.111.234z" fill="#fff"/><path d="M77.026 25.46a2.253 2.253 0 012.252-2.253h25.225a2.252 2.252 0 010 4.506H79.278a2.253 2.253 0 01-2.252-2.253zm-6.532 11.716a2.253 2.253 0 012.253-2.253h31.756a2.252 2.252 0 010 4.506H72.747a2.253 2.253 0 01-2.253-2.253z" fill="#fff"/></svg>