<svg width="500" height="325" fill="none" xmlns="http://www.w3.org/2000/svg"><path fill-rule="evenodd" clip-rule="evenodd" d="M80.662 18.016C39.832 60.25 0 105.616 0 109.883c0 2.54 4.474 8.584 9.943 13.431l9.943 8.815v93.243c0 89.276.233 93.369 5.495 96.187 7.613 4.079 441.625 4.079 449.238 0 5.262-2.818 5.495-6.911 5.495-96.187v-93.243l9.943-8.815c5.469-4.847 9.943-10.891 9.943-13.431 0-2.54-21.506-27.93-47.793-56.422C415.949 14.159 402.551 1.44 396.685.748c-6.526-.768-11.157 2.779-29.625 22.684a28794.16 28794.16 0 01-33.253 35.791L322.443 71.42l-31.048-34.24C260.29 2.871 252.33-2.732 242.324 2.63c-2.952 1.58-18.73 17.713-35.065 35.852L177.557 71.46l-11.364-12.217a50673.77 50673.77 0 01-33.065-35.609C117.628 6.923 109.489.239 104.636.239c-4.602 0-12.326 5.728-23.974 17.777zm58.537 46.933c21.756 23.697 33.935 34.845 38.062 34.845 4.148 0 16.301-11.247 38.421-35.556 17.795-19.555 33.256-35.555 34.355-35.555 1.102 0 16.477 16 34.168 35.555 22.508 24.883 34.028 35.556 38.383 35.556 4.321 0 15.989-10.641 38.213-34.845 17.594-19.163 32.963-35.225 34.154-35.692 1.19-.463 18.897 17.414 39.352 39.728 25.827 28.177 36.275 41.472 34.201 43.515-2.071 2.036-13.161-7.777-36.173-32.014-18.253-19.223-35.176-34.902-37.605-34.845-2.432.06-19.611 16.791-38.176 37.183-31.884 35.017-34.014 36.795-38.392 32C267.534 59.357 254.105 45.749 250 45.749c-4.119 0-16.614 12.66-68.227 69.14-4.461 4.881-6.395 3.265-38.378-32-18.523-20.426-35.872-37.14-38.551-37.14-2.679 0-19.614 15.682-37.637 34.845-23.193 24.669-33.653 33.962-35.81 31.829-2.158-2.139 7.825-14.814 34.256-43.503 20.515-22.266 38.259-40.11 39.429-39.648 1.171.458 16.523 16.514 34.117 35.677zm-3.225 44.8l28.731 31.289.034 78.933.034 78.933h-13.784l-.921-41.048c-1-44.638-2.471-49.138-20.48-62.598-11.739-8.775-39.58-8.266-52.506.965-16.093 11.494-20.13 24.76-20.201 66.414l-.063 36.267H42.614V141.837l30.267-32.492c16.645-17.869 31.187-32.128 32.312-31.687 1.128.441 14.98 14.882 30.781 32.091zm144.773-1.143l28.912 31.57v158.728h-13.795l-.915-42.488-.915-42.49-8.523-8.965c-17.142-18.034-38.488-22.133-57.852-11.108-19.849 11.301-21.585 16.139-22.608 63.095l-.915 41.956H187.5V143.399l30.307-33.181c16.67-18.25 31.145-33.18 32.167-33.18 1.023 0 14.87 14.205 30.773 31.568zm146.458.833l30.181 32.398v157.067h-14.204l-.063-36.267c-.071-41.654-4.108-54.92-20.201-66.414-12.927-9.231-40.767-9.74-52.506-.965-18.009 13.46-19.48 17.96-20.48 62.598l-.921 41.048h-13.784l.077-78.933.077-78.933 29.042-31.977c15.975-17.587 29.844-31.986 30.821-32 .98-.012 15.364 14.558 31.961 32.378zm-350.5 50.088v11.377h56.818v-22.755H76.704v11.378zm144.886 0v11.377h56.818v-22.755h-56.818v11.378zm144.886 0v11.377h56.818v-22.755h-56.818v11.378zm-246.94 59.514c8.298 8.308 8.304 8.342 8.304 44.088v35.775H78.974l.998-37.225c.98-36.728 1.099-37.319 8.966-44.089 10.661-9.182 20.443-8.718 30.599 1.451zm148.219.543c4.167 5.026 4.971 11.921 4.971 42.658v36.662h-45.454v-35.743c0-19.852 1.346-38.261 3.025-41.404 6.495-12.149 28.145-13.406 37.458-2.173zm142.372-2.961c7.423 5.845 7.486 6.215 7.486 44.088v38.193h-45.455v-35.775c0-35.746.006-35.78 8.304-44.088 9.804-9.814 19.293-10.587 29.665-2.418z" fill="#FA8C16"/></svg>