<svg width="500" height="518" fill="none" xmlns="http://www.w3.org/2000/svg"><path fill-rule="evenodd" clip-rule="evenodd" d="M267.353 7.226c-31.072 10.327-55.211 25.761-75.61 48.347-16.912 18.729-35.234 51.531-40.103 71.797l-2.819 11.719 31.138 1.458 31.138 1.458 6.397-15.373c8.25-19.823 29.834-42.22 52.054-54.021 23.165-12.299 71.913-13.213 94.871-1.78 20.908 10.42 41.939 31.393 53.508 53.372 8.759 16.643 9.602 27.114 12.935 160.553 1.958 78.513 4.689 163.013 6.063 187.773l2.503 45.021H500l-2.476-77.964c-1.366-42.878-4.04-129.354-5.941-192.165-3.143-103.755-4.386-116.612-13.558-140.555-14.085-36.755-57.63-80.305-94.322-94.32-35.937-13.731-84.365-15.945-116.35-5.32zm-138.93 154.637c-27.635 10.959-60.45 39.109-72.001 61.761-4.729 9.272-8.597 17.925-8.597 19.229 0 1.305 58.285 2.372 129.522 2.372 71.236 0 129.521-1.067 129.521-2.372 0-7.959-19.349-37.409-33.654-51.219-36.195-34.941-99.134-47.881-144.791-29.771zm-91.214 102.32c-4.347 3.18-7.166 9.601-6.266 14.275 1.576 8.191 6.775 8.494 146.404 8.494 139.628 0 144.827-.303 146.403-8.494 3.591-18.646-6.709-20.056-146.403-20.056-102.402 0-134.018 1.305-140.138 5.781zm51.303 52.264c-15.327 16.326-15.367 40.55-.074 45.742 13.092 4.445 21.86 2.569 28.538-6.101 8.505-11.042 6.577-21.659-6.621-36.439L98.242 306.09l-9.73 10.357zm76.409 2.671c-15.512 16.194-14.893 35.248 1.41 43.334 24.855 12.334 40.911-21.491 21.123-44.507l-10.129-11.78-12.404 12.953zm77.261-2.671c-15.499 16.506-15.306 39.127.395 46.287 7.547 3.439 13.194 3.307 20.855-.497 15.543-7.708 15.898-25.449.848-42.298l-12.369-13.849-9.729 10.357zm-111.555 72.258c-8.58 9.826-16.944 25.586-16.944 31.924 0 6.971 16.584 22.252 24.148 22.252 9.427 0 24.149-16.024 24.149-26.284 0-4.797-5.471-14.842-12.158-22.331-11.666-13.058-12.447-13.282-19.195-5.561zm153.669 0c-8.579 9.826-16.943 25.586-16.943 31.924 0 6.971 16.583 22.252 24.148 22.252 9.427 0 24.148-16.024 24.148-26.284 0-4.797-5.47-14.842-12.157-22.331-11.666-13.058-12.448-13.282-19.196-5.561zm-235.707 7.239c-11.648 12.408-12.32 29.885-1.515 39.667 23.635 21.4 47.326-10.7 28.785-39.004-8.83-13.484-15.086-13.634-27.27-.663zm153.67 0c-11.649 12.408-12.32 29.885-1.515 39.667 23.634 21.4 47.326-10.7 28.784-39.004-8.829-13.484-15.086-13.634-27.269-.663zM8.442 474.426c-10.999 18.049-11.205 26.513-.883 35.855 11.784 10.669 25.795 8.947 34.431-4.239 7.174-10.954 7.126-12.272-.997-27.399-11.367-21.171-21.421-22.476-32.551-4.217zm79.662-3.812c-16.596 17.679-8.864 46.936 12.408 46.936 21.672 0 29.364-31.032 11.793-47.551-12.562-11.802-12.535-11.802-24.201.615zm74.007 3.812c-10.691 17.543-10.893 20.776-2.076 33.36 9.408 13.445 26.216 12.619 35.625-1.744 7.174-10.954 7.125-12.272-.997-27.399-11.367-21.171-21.422-22.476-32.552-4.217zm79.663-3.812c-16.597 17.679-8.865 46.936 12.407 46.936 21.672 0 29.364-31.032 11.793-47.551-12.561-11.802-12.535-11.802-24.2.615zm74.007 3.812c-10.998 18.049-11.205 26.513-.883 35.855 11.785 10.669 25.795 8.947 34.431-4.239 7.174-10.954 7.126-12.272-.997-27.399-11.367-21.171-21.421-22.476-32.551-4.217z" fill="#FA8C16"/></svg>