<svg width="500" height="300" fill="none" xmlns="http://www.w3.org/2000/svg"><path fill-rule="evenodd" clip-rule="evenodd" d="M293.495 161.49l13.995-.393 6.826-.196a262.007 262.007 0 005.218 7.306c1.804 4.314 1.56 8.825-.146 12.895-2 4.755-5.949 8.923-10.972 11.522l-.097.049c-18.822 7.354-37.352 14.807-51.59 23.779-32.036 20.2-32.329 48.147-34.913 82.812H500c-2.536-34.665-2.877-62.612-34.913-82.812-14.287-9.021-32.817-16.474-51.687-23.828-.147-.148-.293-.295-.488-.442-3.072-2.206-5.949-6.079-7.899-10.051-1.609-3.334-2.536-6.619-2.243-8.923 3.803-3.678 7.704-7.845 11.751-12.454h14.434c20.333-43.784 7.46-108.748-34.133-136.303-12.776-8.433-19.31-8.139-34.28-8.139-17.164 0-21.942.54-36.62 10.296-21.65 14.415-34.962 39.322-40.569 73.888-1.122 17.308-1.853 47.118 10.142 60.994zm24.527-3.972c-12.288-40.646-7.119-77.957 24.576-109.827 5.51 17.945 11.361 32.801 32.426 43.784 10.094 7.55 19.846 16.621 29.257 27.064 1.658-6.913-4.73-15.346-12.434-24.024 7.168 3.579 13.751 8.531 18.432 18.141 5.412 11.13 5.364 20.494 3.56 32.556-.634 4.265-1.561 8.286-2.829 12.061-19.992 23.044-36.522 33.34-51.443 32.605-12.629-.588-24.332-9.218-36.132-24.76l-.098-.098-.049-.049a309.59 309.59 0 01-5.266-7.453zm80.262 19.955c-14.19 12.552-26.917 18.19-38.863 17.602-11.947-.588-22.918-7.256-33.743-19.367-.146 2.501-.78 4.952-1.756 7.306-1.95 4.707-5.51 8.923-9.947 12.012-27.355 53.148 132.875 56.482 95.134.392-3.316-2.745-6.388-6.913-8.436-11.081-1.122-2.304-1.951-4.657-2.389-6.864zM101.668 111.43c-3.219.147-5.608.785-7.266 1.912-.926.638-1.658 1.471-2.097 2.403-.487 1.078-.731 2.402-.682 3.873.146 4.413 2.438 10.198 6.875 16.817l.049.098 14.433 23.093c5.803 9.267 11.849 18.681 19.407 25.594 7.266 6.668 16.043 11.179 27.697 11.228 12.58.049 21.796-4.658 29.306-11.669 7.801-7.306 13.897-17.357 19.943-27.359l16.238-26.917c3.023-6.963 4.144-11.62 3.462-14.317-.39-1.618-2.195-2.403-5.218-2.55a13.606 13.606 0 00-1.999 0c-.732 0-1.463.049-2.292.147-.439.049-.829 0-1.268-.098-1.463.098-2.925 0-4.437-.245l5.559-24.76c-41.301 6.57-72.216-24.319-115.857-6.178l3.169 29.222c-1.804 0-3.462-.049-5.022-.294zm102.496 104.238c-3.901-4.609-8.045-10.689-11.605-15.984-1.073-1.569-2.048-3.04-3.023-4.413-7.9 5.786-17.359 9.414-29.452 9.414-13.019-.049-23.064-4.707-31.354-11.767a1.038 1.038 0 01-.146.245c-1.365 1.863-2.877 4.118-4.486 6.521-3.072 4.511-6.485 9.61-9.899 13.875-.877 35.596 67.437 65.504 89.965 2.109zm-9.606-24.564c1.024 1.471 2.146 3.138 3.365 4.903 2.243 3.285 4.681 6.913 7.119 10.247 16.92 14.66 65.243 17.7 83.333 27.849 5.754 3.236 10.972 7.354 15.165 12.895 9.606 12.747 11.118 36.331 14.238 52.266H0c3.12-15.984 4.632-39.568 14.238-52.266 4.194-5.541 9.363-9.659 15.165-12.895 17.164-9.61 61.586-12.846 80.505-25.692 2.975-3.824 5.998-8.335 8.729-12.404 1.706-2.501 3.267-4.854 4.583-6.668.244-.295.488-.589.78-.785-6.972-7.207-12.58-15.935-17.944-24.515l-14.385-23.093c-5.266-7.894-7.996-15.15-8.191-21.083-.098-2.795.39-5.344 1.414-7.55 1.072-2.354 2.73-4.266 4.973-5.786a16.917 16.917 0 013.511-1.814c-.926-12.503-1.268-28.29-.683-41.48.293-3.137.927-6.275 1.756-9.413 3.706-13.238 12.922-23.927 24.381-31.232 4.047-2.599 8.435-4.707 13.117-6.423 8.289-3.04 4.242-15.788 13.458-15.984 21.552-.49 56.856 17.847 70.655 32.801 7.997 8.727 13.019 20.299 14.141 35.547l-.878 37.655c3.999 1.226 6.583 3.775 7.607 7.894 1.17 4.559-.098 11.031-3.95 19.808-.048.147-.146.294-.244.49l-16.432 27.212c-6.339 10.492-12.776 21.033-21.358 29.123l-.39.393z" fill="#FA8C16"/></svg>