<svg width="500" height="420" fill="none" xmlns="http://www.w3.org/2000/svg"><path fill-rule="evenodd" clip-rule="evenodd" d="M46.837 419.233V239.969c-9.518 3.667-18.429 3.748-25.835 1.222-5.777-1.952-10.66-5.46-14.241-9.978C3.18 226.694.9 221.19.214 215.119c-1.058-9.412 1.75-20.042 9.761-30.028.407-.489.855-.978 1.384-1.385L243.518 2.249c3.011-2.767 7.649-3.056 10.99-.448l232.688 181.135c.366.285.691.57 1.013.937 10.783 11.612 13.472 24.487 10.868 35.361a32.96 32.96 0 01-7.405 14.179 32.04 32.04 0 01-13.184 8.923c-8.138 2.929-17.818 2.848-27.625-1.793V418.74h-22.782V230.52c0-4.119-159.62-130.453-177.235-144.18-18.677 14.216-181.219 139.54-181.219 144.832v188.139l-22.79-.078zm119.418-40.381c7.263 11.311 14.522 21.819 21.785 31.511l-.451 3.337c-10.291 3.13-20.431 5.004-30.416 5.607l-2.873-2.429-1.815-3.789c-.81-1.613-2.421-5.023-4.842-10.226-2.425-5.203-4.545-10.08-6.356-14.623h-10.14l1.062 29.241h-30.416l1.514-28.781-1.514-69.244 46.456-.151c10.995 0 19.471 2.604 25.42 7.803 5.953 5.198 8.927 12.703 8.927 22.498 0 5.757-1.436 11.16-4.313 16.212s-6.885 9.4-12.028 13.034zm-15.589-26.21c0-4.038-1.033-7.045-3.1-9.013-2.067-1.972-5.42-3.06-10.063-3.259l-5.444.452-.603 25.302 11.044.603c2.824-1.308 4.895-3.08 6.205-5.301 1.306-2.22 1.961-5.15 1.961-8.784zm101.628 35.149l-37.524.306c.911 3.532 2.624 6.14 5.147 7.802 2.523 1.667 6.002 2.498 10.441 2.498 4.94 0 12.155-1.263 21.635-3.789l2.12 1.516-4.537 20.001c-7.967 2.122-15.381 3.182-22.241 3.182-12.512 0-22.27-3.337-29.281-10.003-7.011-6.67-10.518-15.861-10.518-27.575 0-11.62 3.328-20.759 9.989-27.421 6.661-6.67 15.784-10.003 27.389-10.003 9.985 0 17.729 2.629 23.226 7.88 5.497 5.252 8.248 12.578 8.248 21.969 0 3.036-.301 6.32-.912 9.852l-3.182 3.785zm-20.878-16.664c0-5.354-2.27-8.03-6.811-8.03-5.546 0-8.924 3.585-10.136 10.76l16.646-.607.301-2.123zm76.209 46.363l1.514-39.995c0-6.164-2.372-9.244-7.113-9.244-2.319 0-4.691.705-7.112 2.122v15.304l1.212 31.817h-29.509l1.364-28.782-1.062-41.061 27.995-1.972v10.609h1.057c5.25-5.252 11.15-8.988 17.709-11.212 7.564 0 13.338 1.719 17.326 5.154 3.983 3.434 5.871 8.385 5.676 14.851l-.606 20.608 1.062 31.817h-29.513v-.016zm79.383-21.513c2.624 0 5.652-.603 9.074-1.817l1.815 2.273-2.723 16.367c-2.119 1.312-4.642 2.498-7.56 3.561-2.929 1.063-5.753 1.793-8.476 2.196-7.971 0-14.225-1.817-18.762-5.456-4.541-3.638-6.807-8.482-6.807-14.541l.907-15.76-.155-18.933h-9.379l-.761-1.516 1.213-15.609h8.923l-.146-12.875 27.384-7.273 1.815 1.667-.757 18.481h14.832l.753 1.516-1.209 15.609h-14.978l-.911 25.603c0 2.424.427 4.115 1.281 5.077.871.949 2.405 1.43 4.627 1.43zM255.407 161.659v51.142h45.818v-.143c0-14.097-5.762-26.919-15.04-36.217-8.097-8.1-18.855-13.527-30.778-14.782zm0 61.943v31.752h45.818v-31.752h-45.818zm-10.787 31.719v-31.719h-45.825v31.752h45.821v-.033h.004zm0-42.52v-51.142c-11.95 1.279-22.681 6.682-30.774 14.782-9.277 9.298-15.047 22.12-15.047 36.217v.143h45.821zm5.392-62.224c17.061 0 32.56 6.991 43.77 18.22 11.247 11.258 18.201 26.777 18.201 43.829v53.472H188.012V212.63c0-17.084 6.986-32.604 18.197-43.829 11.242-11.233 26.741-18.224 43.803-18.224zM381.486 14.472l69.862 2.852v94.477l-69.862-46.163V14.472z" fill="#FA8C16"/></svg>