<svg width="500" height="306" fill="none" xmlns="http://www.w3.org/2000/svg"><path d="M116.736 218.136c-6.551 0-11.84-5.312-11.84-11.89 0-6.579 5.289-11.89 11.84-11.89h209.019c.854 0 1.709.081 2.523.286 7.486 1.144 14.485 3.268 20.751 6.66 6.917 3.759 12.817 8.948 17.374 15.894 15.665 23.821 13.346 45.926 2.279 62.27-7.202 10.664-18.188 18.591-30.313 22.758-12.207 4.209-25.716 4.617-37.922.123-18.473-6.783-33.447-24.066-35.644-55.364-.447-6.538 4.476-12.177 10.986-12.626 6.51-.449 12.125 4.495 12.573 11.032 1.424 20.185 9.806 30.89 20.1 34.649 6.958 2.533 14.933 2.206 22.298-.327 7.487-2.574 14.159-7.314 18.391-13.565 6.063-8.949 6.958-21.574-2.482-35.916-2.319-3.514-5.33-6.17-8.87-8.09-3.703-2.002-8.016-3.31-12.736-4.045H116.736v.041zM62.701 111.207c-6.55 0-11.84-5.312-11.84-11.89s5.29-11.89 11.84-11.89H271.07c4.761-.736 9.074-2.043 12.777-4.045 3.539-1.92 6.55-4.577 8.87-8.09 9.44-14.342 8.504-26.968 2.482-35.916-4.232-6.251-10.905-10.991-18.392-13.565-7.364-2.533-15.38-2.86-22.297-.327-10.254 3.759-18.676 14.464-20.1 34.649-.448 6.537-6.063 11.481-12.573 11.032-6.511-.45-11.434-6.088-10.986-12.626 2.197-31.298 17.17-48.582 35.643-55.364 12.207-4.454 25.715-4.045 37.922.122 12.125 4.168 23.111 12.136 30.313 22.759 11.068 16.344 13.387 38.449-2.278 62.27-4.557 6.946-10.457 12.135-17.374 15.894-6.266 3.391-13.265 5.516-20.752 6.66-.813.163-1.668.286-2.522.286h-209.1v.041zm-50.86 53.485C5.29 164.692 0 159.339 0 152.802c0-6.579 5.29-11.89 11.84-11.89h435.656c4.761-.736 9.074-2.043 12.736-4.045 3.54-1.921 6.551-4.577 8.87-8.091 9.44-14.341 8.504-26.967 2.482-35.915-4.232-6.251-10.905-10.991-18.391-13.565-7.365-2.534-15.381-2.86-22.298-.327-10.254 3.759-18.676 14.464-20.1 34.649-.448 6.537-6.063 11.481-12.573 11.032-6.51-.45-11.434-6.088-10.986-12.626 2.197-31.298 17.171-48.582 35.643-55.364 12.207-4.454 25.716-4.045 37.922.122 12.126 4.168 23.112 12.136 30.314 22.759 11.067 16.344 13.386 38.449-2.279 62.27-4.557 6.946-10.457 12.135-17.374 15.894-6.266 3.391-13.265 5.516-20.751 6.66-.814.163-1.669.286-2.523.286H11.841v.041z" fill="#FA8C16"/></svg>