<svg width="500" height="462" fill="none" xmlns="http://www.w3.org/2000/svg"><path d="M197.608 158.65c0 5.035 4.049 9.1 9.062 9.1v-.031h159.443c3.612.563 6.913 1.563 9.747 3.096 2.709 1.469 5.014 3.502 6.789 6.191 7.224 10.977 6.539 20.64 1.899 27.488-3.238 4.785-8.345 8.412-14.076 10.382-5.636 1.939-11.74 2.189-17.065.25-7.879-2.877-14.294-11.07-15.383-26.518-.343-5.003-4.641-8.787-9.623-8.443-4.983.344-8.751 4.659-8.408 9.663 1.681 23.954 13.141 37.182 27.279 42.373 9.343 3.439 19.682 3.127 29.024-.094 9.28-3.19 17.688-9.257 23.2-17.418 8.47-12.509 10.246-29.427-1.744-47.658-3.488-5.316-8.003-9.288-13.297-12.165-4.796-2.596-10.152-4.222-15.882-5.097a7.923 7.923 0 00-1.931-.219H206.67c-5.013 0-9.062 4.065-9.062 9.1zm-41.355-81.838c0 5.035 4.048 9.1 9.062 9.1v-.031h160.034c.654 0 1.308-.094 1.931-.219 5.73-.876 11.086-2.502 15.882-5.097 5.294-2.877 9.809-6.849 13.297-12.165 11.989-18.231 10.214-35.15 1.744-47.658-5.512-8.13-13.92-14.228-23.2-17.418-9.343-3.19-19.681-3.502-29.024-.094-14.138 5.191-25.598 18.42-27.279 42.373-.343 5.004 3.425 9.32 8.408 9.663 4.982.344 9.28-3.44 9.622-8.443 1.09-15.448 7.537-23.642 15.384-26.518 5.294-1.94 11.429-1.69 17.065.25 5.73 1.97 10.838 5.597 14.076 10.382 4.609 6.848 5.325 16.511-1.899 27.488-1.775 2.689-4.08 4.722-6.789 6.191-2.834 1.533-6.135 2.533-9.779 3.096H165.315c-5.014 0-9.062 4.066-9.062 9.1z" fill="#FA8C16"/><path d="M117.327 117.747c0 5.003 4.048 9.1 9.062 9.1v-.032h333.957c.654 0 1.308-.093 1.93-.218 5.73-.876 11.087-2.502 15.882-5.098 5.294-2.877 9.81-6.848 13.298-12.164 11.989-18.232 10.214-35.15 1.744-47.658-5.512-8.13-13.92-14.229-23.201-17.419-9.342-3.19-19.681-3.502-29.023-.093-14.138 5.19-25.598 18.419-27.28 42.373-.342 5.003 3.426 9.319 8.409 9.663 4.982.344 9.279-3.44 9.622-8.444 1.09-15.448 7.536-23.641 15.384-26.518 5.294-1.939 11.429-1.689 17.065.25 5.73 1.97 10.837 5.598 14.076 10.382 4.609 6.849 5.325 16.512-1.9 27.488-1.775 2.689-4.079 4.722-6.788 6.192-2.803 1.532-6.104 2.533-9.748 3.096H126.389c-5.014 0-9.062 4.065-9.062 9.1z" fill="#FA8C16"/><path fill-rule="evenodd" clip-rule="evenodd" d="M230.013 277.267c-23.284-34.002-49.782-72.698-60.334-117.69v.157c-6.508 28.079-19.183 53.492-33.433 77.022l-3.491-5.229-.128-.187c-17.053-24.923-36.42-53.229-44.09-85.489a7.496 7.496 0 00-2.644-4.212 7.546 7.546 0 00-9.41 0 7.496 7.496 0 00-2.643 4.212c-7.52 32.476-26.947 60.808-44.013 85.697l-.075.11-8.634 12.68C5.871 267.345-1.03 291.503.124 312.942a73.77 73.77 0 008.476 31.19 65.215 65.215 0 0021.677 23.74 82.958 82.958 0 0039.364 12.889C87.54 493.863 271.24 487.798 271.24 362.617c0-25.144-19.171-53.141-41.226-85.35zm-161.789 85.35v2.928a67.173 67.173 0 01-29.654-10.17 50.4 50.4 0 01-16.717-18.302 58.835 58.835 0 01-6.692-24.889c-.97-18.354 5.118-39.296 18.633-59.532l8.529-12.523.252-.369c13.685-19.982 28.807-42.062 38.744-67.268 10.104 25.204 25.246 47.401 38.971 67.454l7.217 10.588c-6.026 9.265-12.158 18.196-18.083 26.823-22.044 32.101-41.2 59.996-41.2 85.26zm41.917-22.263a10.227 10.227 0 00-2.343 7.491h.079a119.41 119.41 0 0012.256 44.734 85.583 85.583 0 0033.38 34.406 10.347 10.347 0 007.81 1.109 10.321 10.321 0 003.625-1.733 10.262 10.262 0 004.017-6.764 10.257 10.257 0 00-4.954-10.286 65.472 65.472 0 01-25.718-26.301 98.526 98.526 0 01-9.999-37.021 10.243 10.243 0 00-3.66-6.948 10.32 10.32 0 00-14.493 1.313z" fill="#FA8C16"/></svg>