<svg width="500" height="367" fill="none" xmlns="http://www.w3.org/2000/svg"><path d="M117.725 18.806c-6.732-7.626-14.698-12.838-24.952-16.324C82.22-1.106 66.237-.358 54.378 4.278 42.27 9.01 27.899 23.716 23.252 36.126c-3.027 8.085-3.438 12.425-4.475 47.46-.627 21.208-1.51 50.407-1.96 64.885l-.69 47.876a17.749 17.749 0 00-10.067 4.476c-.274.195-.547.469-.782.703C2.033 204.807 0 209.3 0 214.261v16.369c0 4.962 2.033 9.454 5.278 12.735l.04-.039v.039c3.284 3.243 7.78 5.274 12.705 5.274h15.482l19.822 75.515c1.16 4.454 1.76 9.225 2.348 13.902 1.853 14.729 3.589 28.524 22.283 28.524l29.776-.011c29.245-.013 75.469-.035 123.685-.059l18.095-.009c80.258-.039 160.861-.078 173.819-.078 20.452 0 22.22-15.049 24.045-30.583.48-4.094.966-8.221 1.797-12.116l16.107-75.085h16.734c4.925 0 9.461-2.031 12.706-5.274 3.245-3.281 5.278-7.773 5.278-12.735v-16.369c0-4.961-2.033-9.493-5.278-12.735-1.798-1.797-3.988-3.243-6.451-4.141V98.314c-4.809-43.754-40.308-65.24-82.024-48.13-16.615-9.531-34.248-7.383-52.779 4.65-8.147-1.376-8.885-.472-13.305 4.944l-.301.368c-2.111 1.641-2.463 3.516-.664 5.665l66.073 66.685c2.775 2.227 4.925 2.071 6.645.313l4.301-4.961c1.916-3.321 2.072-6.446.313-9.298 13.801-17.58 15.052-34.808 5.317-51.762 21.62-3.087 37.805 4.531 43.513 32.541v96.884c-83.373 0-153.812.009-221.573.018v19.632h236.626v13.126H243.787v62.52c0 26.144-21.193 47.337-47.337 47.337h-40.829c-26.143 0-47.337-21.193-47.337-47.337v-62.52H19.626v-13.126h8.992c1.486.352 3.05.391 4.613 0h75.053v-19.615c-23.424.002-47.333.004-72.133.004l.663-36.657c.455-8.36 1.355-36.893 2.001-63.403 1.1-45.057 1.378-48.593 4.269-54.212 3.817-7.422 10.758-14.503 17.657-18.021 7.576-3.86 23.663-3.552 31.308.6 7.333 3.986 14.456 11.548 17.179 18.241l2.11 5.19 20.551-.984-.93-3.957c-1.606-6.843-7.653-17.918-13.234-24.243z" fill="#FA8C16"/><path d="M162.381 75.55c-3.813-7.648-14.641-17.153-23.761-20.854-15.066-6.115-35.836-1.746-47.781 10.053-4.72 4.662-11.106 14.607-11.106 17.294 0 .44 19.235.801 42.743.801 23.507 0 42.742-.36 42.742-.8 0-.441-1.277-3.363-2.837-6.494zm8.408 18.515c.297-1.578-.634-3.746-2.068-4.82-2.02-1.511-12.453-1.952-46.245-1.952-46.099 0-49.498.476-48.314 6.772.52 2.766 2.236 2.868 48.314 2.868 46.077 0 47.793-.102 48.313-2.868zm-18.974 28.273c5.047-1.753 5.034-9.933-.024-15.445l-3.211-3.498-3.997 4.579c-4.355 4.991-4.991 8.575-2.186 12.304 2.205 2.927 5.098 3.561 9.418 2.06zm-25.704.088c5.379-2.73 5.584-9.164.465-14.632l-4.094-4.373-3.341 3.977c-6.531 7.772-1.232 19.193 6.97 15.028zm-25.162.096c5.182-2.418 5.245-10.056.131-15.629l-3.21-3.498-4.082 4.676c-4.967 5.69-4.85 11.68.28 14.283 2.528 1.284 4.391 1.329 6.881.168zm42.535 19.549c0-2.141-2.759-7.462-5.59-10.78-2.228-2.607-2.486-2.532-6.335 1.878-2.206 2.528-4.012 5.921-4.012 7.54 0 3.465 4.858 8.875 7.969 8.875 2.496 0 7.968-5.16 7.968-7.513zm-50.711 0c0-2.141-2.76-7.462-5.59-10.78-2.228-2.607-2.486-2.532-6.335 1.878-2.207 2.528-4.012 5.921-4.012 7.54 0 3.465 4.858 8.875 7.969 8.875 2.496 0 7.968-5.16 7.968-7.513zm72.693 5.058c3.565-3.303 3.344-9.204-.5-13.394-4.021-4.379-6.086-4.329-8.999.224-6.119 9.557 1.699 20.396 9.499 13.17zm-50.711 0c3.565-3.303 3.344-9.204-.5-13.394-4.021-4.379-6.086-4.329-8.999.224-6.12 9.557 1.699 20.396 9.499 13.17zm63.751 25.213c3.406-3.154 3.338-6.013-.292-12.106-3.673-6.166-6.99-5.726-10.741 1.423-2.681 5.108-2.698 5.553-.329 9.252 2.849 4.452 7.472 5.034 11.362 1.431zm-30.675 2.455c7.02 0 9.571-9.879 4.095-15.849-1.918-2.089-2.879-3.137-3.872-3.17-1-.033-2.034.963-4.115 2.962-5.798 5.579-3.259 16.057 3.892 16.057zm-19.643-3.297c2.91-4.249 2.843-5.341-.685-11.264-3.673-6.166-6.99-5.726-10.741 1.423-2.681 5.108-2.698 5.553-.329 9.252 3.104 4.849 8.651 5.128 11.755.589zm-31.068 3.297c7.02 0 9.571-9.879 4.095-15.849-1.918-2.089-2.88-3.137-3.872-3.17-1-.033-2.034.963-4.115 2.962-5.798 5.579-3.26 16.057 3.892 16.057zm-20.036-2.455c3.406-3.154 3.338-6.013-.292-12.106-3.673-6.166-6.99-5.726-10.742 1.423-2.68 5.108-2.697 5.553-.328 9.252 2.85 4.452 7.472 5.034 11.362 1.431zm309.615-41.213l.235.313c1.212 1.719.782 4.141-.938 5.352l-29.713 20.783c-1.721 1.211-4.144.82-5.356-.938l-.235-.312c-1.212-1.719-.821-4.141.938-5.352l29.714-20.783c1.719-1.211 4.143-.821 5.355.937zm-254.746 65.117l88.165-.011v19.628h-88.165v-19.617zm88.165 32.743v62.52c0 13.072-10.597 23.668-23.668 23.668h-40.829c-13.071 0-23.668-10.596-23.668-23.668v-62.52h88.165zM349.52 99.33l-.236-.313c-1.212-1.758-3.636-2.149-5.355-.938l-29.713 20.784c-1.76 1.21-2.151 3.633-.939 5.352l.235.312c1.212 1.758 3.635 2.148 5.356.938l29.713-20.784c1.759-1.211 2.15-3.632.939-5.352zm-17.321-17.502l.236.312c1.211 1.72.781 4.141-.939 5.352l-29.713 20.784c-1.721 1.211-4.144.82-5.356-.938l-.235-.312c-1.212-1.719-.821-4.142.938-5.352l29.714-20.784c1.719-1.21 4.143-.82 5.355.938zm34.366 34.104l-.235-.312c-1.212-1.758-3.636-2.149-5.355-.938l-29.713 20.784c-1.76 1.21-2.151 3.633-.939 5.352l.235.312c1.212 1.758 3.635 2.149 5.356.938l29.752-20.784c1.681-1.211 2.111-3.593.899-5.352z" fill="#FA8C16"/></svg>