<svg  viewBox="0 0 582 713" fill="#fa8c16" xmlns="http://www.w3.org/2000/svg">
<path fill-rule="evenodd" clip-rule="evenodd" d="M581.406 0H465.206V635.5H581.406V0ZM546.546 263.5H503.94V368.125H546.546V263.5Z" fill="#fa8c16"/>
<path d="M0.40625 658.75H581.406V713H0.40625V658.75Z" fill="#fa8c16"/>
<path fill-rule="evenodd" clip-rule="evenodd" d="M0.40625 0H438.093V635.5H0.40625V82.8598C14.0702 65.0784 80.7049 51.4038 97.4573 62.6982C87.5369 80.0132 88.8005 97.6082 102.886 115.576C101.107 118.517 101.248 121.643 103.26 125.097L107.705 130.184C109.483 131.958 111.683 132.145 114.537 129.811L182.155 61.6712C183.98 59.4778 183.652 57.6108 181.5 55.8843L181.097 55.3961C176.641 49.9937 175.875 49.0647 167.602 50.4706C148.65 38.1493 130.587 36.0022 113.555 45.7564C80.9389 26.9949 29.4655 33.8556 0.40625 55.9306V0ZM133.208 128.691L133.442 128.318C134.705 126.544 137.186 126.124 138.963 127.384L169.38 148.619C171.158 149.88 171.579 152.353 170.316 154.127L170.082 154.5C168.818 156.273 166.338 156.693 164.56 155.433L134.144 134.198C132.413 132.985 131.991 130.464 133.208 128.691ZM285.429 450.814V582.66C285.429 599.974 272.795 608.375 257.353 608.375C241.911 608.375 229.276 599.974 229.276 582.66V453.848H212.431V582.66C212.431 599.974 199.796 608.375 184.354 608.375C168.912 608.375 156.278 599.974 156.278 582.66V450.814C155.576 449.694 155.107 448.294 155.107 446.8V335.303L76.4935 295.493C65.5905 289.986 60.8174 277.151 65.1692 266.043L94.2752 183.389C98.5334 171.161 111.964 164.721 124.223 168.968C136.484 173.215 142.941 186.61 138.683 198.837L116.128 262.917L176.867 293.673C177.708 294.092 178.455 294.558 179.202 295.023C201.289 281.722 234.002 279.905 257.493 288.446L315.424 253.163L288.892 188.15C284.025 176.109 289.828 162.434 301.901 157.534C313.974 152.68 327.684 158.467 332.598 170.508L366.664 253.956C370.922 264.41 367.038 276.731 357.071 282.798L286.553 325.782V446.8C286.599 448.247 286.178 449.647 285.429 450.814ZM220.9 170.368C249.117 170.368 271.952 193.19 271.952 221.286C271.952 249.429 249.07 272.204 220.9 272.204C192.683 272.204 169.848 249.382 169.848 221.286C169.801 193.19 192.683 170.368 220.9 170.368ZM171.532 95.928L171.766 95.5543C173.03 93.781 175.51 93.3609 177.288 94.621L207.704 115.856C209.483 117.117 209.903 119.59 208.64 121.363L208.406 121.737C207.143 123.51 204.663 123.93 202.884 122.67L172.468 101.435C170.69 100.175 170.269 97.7014 171.532 95.928ZM189.034 78.4262L189.267 78.053C190.531 76.2796 193.011 75.8596 194.789 77.1197L225.205 98.3546C226.983 99.6147 227.405 102.089 226.141 103.862L225.907 104.235C224.643 106.009 222.164 106.429 220.385 105.169L189.969 83.9336C188.238 82.6734 187.817 80.1995 189.034 78.4262ZM154.125 112.963L154.359 112.589C155.622 110.816 158.102 110.396 159.881 111.656L190.297 132.891C192.075 134.152 192.496 136.625 191.233 138.398L190.999 138.772C189.735 140.545 187.255 140.965 185.477 139.705L155.061 118.47C153.283 117.21 152.862 114.736 154.125 112.963Z" fill="#fa8c16"/>
</svg>
