<svg  viewBox="0 0 846 629" xmlns="http://www.w3.org/2000/svg">
<path d="M654.325 147.421L653.928 146.892C651.88 143.921 647.784 143.261 644.877 145.308L594.661 180.436C591.688 182.483 591.027 186.577 593.076 189.482L593.472 190.01C595.52 192.982 599.617 193.642 602.524 191.595L652.739 156.467C655.646 154.42 656.373 150.326 654.325 147.421ZM786.734 345.512L759.512 472.422C752.773 503.985 737.51 528.086 715.838 544.594C700.84 556.017 682.934 563.61 662.782 567.374L680.622 605.54C684.454 613.793 680.886 623.632 672.627 627.462C664.368 631.292 654.523 627.726 650.691 619.472L627.566 570.081H232.32L209.195 619.472C205.363 627.726 195.518 631.292 187.259 627.462C179 623.632 175.432 613.793 179.264 605.54L196.113 569.487C170.344 567.242 149.201 558.988 132.155 544.858C112.267 528.35 98.6559 504.381 90.529 473.149L57.0303 345.512H30.8656C22.5405 345.512 14.9422 342.078 9.3921 336.598V336.532L9.32603 336.598C3.84202 331.051 0.40625 323.458 0.40625 315.072V287.405C0.40625 279.019 3.84202 271.426 9.32603 265.879C9.72246 265.483 10.185 265.021 10.6475 264.691C15.9993 259.871 23.0691 256.965 30.7996 256.965H34.83C35.9532 244.948 40.5783 233.59 47.7141 223.686C54.9821 213.517 65.0251 204.867 76.4556 198.924C87.9522 192.916 100.968 189.548 114.117 189.944C125.68 190.341 137.176 193.51 147.814 200.245C152.439 193.51 158.187 187.501 164.794 182.549C177.745 172.842 193.932 167.032 211.442 167.032C225.977 167.032 239.588 170.994 251.151 177.861C260.203 183.209 267.999 190.407 274.078 198.858C292.512 200.311 309.163 208.169 321.65 220.186C331.892 230.091 339.292 242.769 342.529 256.899H786.866V93.1437C777.22 45.7999 749.866 32.924 713.328 38.1404C729.78 66.7976 727.665 95.917 704.342 125.631C707.315 130.451 707.051 135.733 703.813 141.346L696.545 149.732C693.638 152.703 690.004 152.967 685.313 149.204L573.65 36.4897C570.611 32.858 571.206 29.6885 574.774 26.9152C582.702 17.2088 583.693 15.558 597.767 17.9351C629.085 -2.40226 658.884 -6.03393 686.965 10.0775C757.464 -18.8438 817.458 17.4729 825.585 91.427V258.88C829.747 260.399 833.447 262.842 836.486 265.879C841.971 271.36 845.406 279.019 845.406 287.405V315.072C845.406 323.458 841.971 331.051 836.486 336.598C831.002 342.078 823.338 345.512 815.013 345.512H786.734ZM591.094 93.1437L590.697 92.6155C588.649 89.6441 584.552 88.9838 581.645 91.0308L531.43 126.159C528.457 128.206 527.796 132.3 529.844 135.205L530.241 135.733C532.289 138.705 536.386 139.365 539.293 137.318L589.508 102.19C592.481 100.143 593.142 96.0491 591.094 93.1437ZM562.22 64.0904L561.823 63.5621C559.775 60.5908 555.679 59.9304 552.772 61.9774L502.557 97.1056C499.583 99.1525 498.923 103.246 500.971 106.152L501.367 106.68C503.415 109.651 507.512 110.312 510.419 108.265L560.634 73.1365C563.541 71.0896 564.268 66.9957 562.22 64.0904ZM619.901 121.207L619.505 120.678C617.456 117.707 613.36 117.047 610.453 119.094L560.238 154.222C557.265 156.269 556.604 160.363 558.652 163.268L559.048 163.796C561.097 166.768 565.193 167.428 568.1 165.381L618.381 130.253C621.223 128.206 621.949 124.178 619.901 121.207ZM68.3948 256.965H307.907C305.793 252.079 302.687 247.721 298.855 244.089C290.993 236.496 280.091 231.808 267.999 231.808C266.149 231.808 268.132 231.742 266.876 231.742L265.753 231.808C259.542 232.072 253.398 228.836 250.358 222.959C246.79 216.158 241.24 210.414 234.435 206.386C227.827 202.49 219.965 200.179 211.574 200.179C201.399 200.179 192.082 203.481 184.748 208.961C177.414 214.508 171.93 222.233 169.552 231.081C168.759 234.449 166.843 237.618 163.935 239.995C156.866 245.74 146.426 244.684 140.678 237.618C132.551 227.648 122.772 223.29 113.192 222.959C105.924 222.695 98.5238 224.676 91.8505 228.176C85.1111 231.742 79.1646 236.892 74.7377 242.967C71.6323 247.325 69.3858 252.079 68.3948 256.965ZM56.5678 290.112C53.9249 290.773 51.282 290.707 48.7713 290.112H33.5746V312.299H812.304V290.112H56.5678Z" fill="#fa8c16"/>
</svg>
