<svg  viewBox="0 0 727 715" xmlns="http://www.w3.org/2000/svg">
<path fill-rule="evenodd" clip-rule="evenodd" d="M0 0.816711H726.528V125.96H0V0.816711ZM26.4192 27.2359H700.109V99.8887H26.4192V27.2359Z" fill="#fa8c16"/>
<path fill-rule="evenodd" clip-rule="evenodd" d="M0 150.989H336.355V462.956H116.01V352.416C122.563 320.457 141.146 311.765 165.968 315.287C154.791 334.631 156.227 354.288 172.072 374.345C170.052 377.599 170.232 381.165 172.431 384.954L177.369 390.614C179.344 392.62 181.812 392.798 184.999 390.258L260.857 314.172C262.921 311.721 262.517 309.581 260.094 307.709L259.749 307.29C254.674 301.11 253.826 300.078 244.473 301.648C223.197 287.919 202.954 285.468 183.877 296.343C135.984 276.821 95.2274 301.336 89.7064 351.257V464.293C86.8786 465.318 84.365 466.967 82.3002 469.017C78.9786 472.316 76.763 476.784 76.3217 481.725H0V150.989ZM206.32 388.698L206.051 389.054C204.659 391.015 205.153 393.779 207.128 395.161L241.241 418.873C243.216 420.255 245.999 419.809 247.391 417.804L247.66 417.447C249.052 415.486 248.603 412.722 246.583 411.341L212.469 387.628C210.494 386.246 207.712 386.692 206.32 388.698ZM249.276 352.059L249.007 352.416C247.615 354.377 248.064 357.14 250.084 358.522L284.197 382.235C286.172 383.616 288.955 383.171 290.347 381.165L290.616 380.808C292.007 378.847 291.559 376.084 289.539 374.702L255.425 350.989C253.45 349.608 250.667 350.053 249.276 352.059ZM268.891 332.447L268.622 332.804C267.23 334.765 267.724 337.528 269.699 338.91L303.812 362.623C305.787 364.004 308.57 363.559 309.962 361.553L310.231 361.196C311.623 359.235 311.174 356.472 309.154 355.09L275.041 331.377C273.066 329.996 270.283 330.441 268.891 332.447ZM229.706 371.002L229.436 371.359C228.045 373.365 228.539 376.084 230.469 377.465L264.627 401.178C266.602 402.56 269.385 402.114 270.776 400.108L271.046 399.752C272.437 397.79 271.988 395.027 269.968 393.645L235.855 369.933C233.88 368.551 231.097 368.997 229.706 371.002Z" fill="#fa8c16"/>
<path d="M650.206 481.725C650.26 482.326 650.287 482.934 650.287 483.548V502.224C650.287 507.885 647.953 513.01 644.228 516.755L644.183 516.71V516.755C640.412 520.454 635.25 522.772 629.595 522.772H611.82L589.063 608.931C583.542 630.013 574.295 646.193 560.785 657.336C556.049 662.16 545.427 666.176 530.582 669.441H726.528V714.135H0V669.441H202.229C182.752 666.022 169.111 661.895 164.262 657.158C149.539 646.015 139.171 629.746 134.592 608.44L116.099 522.772H96.8881C91.2325 522.772 86.0257 520.454 82.3002 516.755C78.5747 513.01 76.2406 507.885 76.2406 502.224V483.548C76.2406 482.934 76.268 482.326 76.3217 481.725H98.6643L98.7285 500.352H627.754V481.725H650.206Z" fill="#fa8c16"/>
<path d="M650.206 481.725C649.764 476.791 647.549 472.355 644.228 469.017C643.958 468.75 643.644 468.438 643.33 468.215C639.694 464.961 634.891 463 629.64 463H626.902C626.139 454.888 622.997 447.221 618.149 440.536C613.211 433.671 606.389 427.832 598.623 423.821C590.813 419.765 581.971 417.492 573.039 417.759C565.183 418.026 557.373 420.166 550.147 424.712C547.005 420.166 543.1 416.11 538.611 412.767C529.813 406.215 518.816 402.292 506.921 402.292C497.047 402.292 487.8 404.967 479.945 409.602C473.796 413.213 468.499 418.071 464.37 423.776C451.846 424.757 440.535 430.061 432.052 438.173C425.094 444.859 420.067 453.417 417.868 462.956H363.264V356.582H726.528V481.725H650.206Z" fill="#fa8c16"/>
<path fill-rule="evenodd" clip-rule="evenodd" d="M726.528 150.989H363.264V329.765H726.528V150.989ZM442.522 192.356H475.546V304.637H442.522V192.356ZM389.683 192.356H422.707V304.637H389.683V192.356ZM700.109 192.356H587.827V304.637H700.109V192.356ZM495.36 245.194H515.175V304.637H495.36V245.194Z" fill="#fa8c16"/>
<path d="M604.1 463H441.388C442.824 459.702 444.934 456.76 447.537 454.308C452.879 449.183 460.285 446.018 468.499 446.018C469.188 446.018 469.095 446.005 469.01 445.992C468.94 445.982 468.877 445.973 469.262 445.973L470.025 446.018C474.244 446.196 478.419 444.012 480.484 440.045C482.907 435.454 486.678 431.576 491.301 428.858C495.79 426.228 501.131 424.668 506.832 424.668C513.744 424.668 520.073 426.896 525.055 430.596C530.038 434.34 533.763 439.555 535.379 445.528C535.918 447.801 537.219 449.94 539.194 451.545C543.997 455.423 551.089 454.71 554.994 449.94C560.515 443.21 567.158 440.268 573.667 440.045C578.604 439.867 583.632 441.204 588.165 443.566C592.743 445.973 596.783 449.45 599.791 453.551C601.9 456.492 603.426 459.702 604.1 463Z" fill="#fa8c16"/>
</svg>
