<svg viewBox="0 0 898 682" fill="#fa8c16" xmlns="http://www.w3.org/2000/svg">
<path fill-rule="evenodd" clip-rule="evenodd" d="M76.8752 682V393.081C61.2355 399.068 46.6189 399.214 34.4871 395.053C24.9863 391.84 17.0203 386.145 11.1005 378.697C5.2539 371.323 1.45358 362.269 0.357337 352.339C-1.39665 336.933 3.20757 319.483 16.3625 303.2C17.0203 302.397 17.7511 301.594 18.6281 300.937L438.344 3.69442C443.313 -0.83248 450.914 -1.34358 456.395 2.96428L876.988 299.623C877.572 300.061 878.157 300.572 878.668 301.156C896.355 320.14 900.739 341.241 896.501 359.056C894.381 367.891 890.142 375.704 884.369 382.275C878.595 388.846 871.141 393.884 862.736 396.878C849.362 401.697 833.503 401.551 817.425 393.957V682H780.006V377.529C780.006 370.812 479.343 163.888 450.402 141.4C419.78 164.692 114.294 369.863 114.294 378.551V682H76.8752ZM172.175 681.927C172.175 558.97 272.957 627.02 281.8 551.596C282.75 543.418 263.383 512.095 258.925 497.054C249.424 481.867 245.989 457.845 256.44 441.855C260.533 435.503 258.779 412.284 258.779 403.522C258.779 378.77 270.472 364.606 286.331 351.317C292.105 346.498 293.128 340.73 301.532 338.685C343.263 328.609 411.522 351.536 411.522 403.595C411.522 414.621 408.964 434.846 414.957 443.534C420.731 451.931 421.461 464.124 419.342 475.515C417.076 477.267 414.811 479.165 412.618 481.137C407.649 485.518 402.679 490.41 397.783 495.74C397.563 495.959 397.271 496.178 397.052 496.397C394.713 498.733 392.959 501.654 392.009 505.086C390.036 512.387 394.567 519.762 399.829 524.508C393.69 535.971 386.089 546.85 387.039 551.669C388.574 559.408 394.348 566.564 402.533 573.062V573.208C402.533 573.646 402.606 574.011 402.606 574.449C402.898 577.297 403.337 579.999 403.995 582.408C404.725 585.11 405.749 587.738 406.991 590.221C409.183 594.529 412.107 598.325 415.834 601.246C417.661 602.706 419.707 604.02 421.9 605.043C422.485 605.7 422.996 606.357 423.581 606.941L424.531 608.036C407.576 611.249 395.736 614.315 385.797 624.172C374.761 635.052 370.596 650.385 370.596 677.984C370.596 679.371 370.742 680.759 370.888 682L172.175 681.927ZM528.528 471.28C549.43 348.177 669.797 351.098 687.922 480.115C699.834 565.031 750.773 561.964 671.186 561.964H639.468C639.322 583.576 635.96 594.601 658.396 606.795C680.833 618.915 725.852 625.122 725.852 655.861V675.502C725.852 677.108 724.536 678.349 723.002 678.349H598.907V677.911C598.907 650.312 594.668 634.979 583.706 624.099C575.009 615.557 564.923 612.125 551.184 609.204C553.888 607.963 556.446 606.576 558.857 605.189C578.59 593.36 575.228 581.459 575.082 561.891H566.458C566.312 560.869 566.166 559.92 565.946 559.043H565.873C564.923 554.736 563.389 550.574 561.196 546.85C560.831 546.193 560.392 545.536 560.027 544.952V542.104C562.658 532.32 563.388 521.514 561.635 511.511C559.734 500.267 554.838 489.68 546.433 481.794C542.121 477.705 537.298 474.712 532.036 472.594C530.94 472.083 529.77 471.645 528.528 471.28ZM419.123 510.051C448.941 477.121 483.436 459.305 509.234 488.511C516.031 488.803 522.097 491.067 527.139 495.813C537.736 505.816 539.417 524.508 534.594 539.329V552.253C537.883 554.443 540.002 558.459 540.952 563.059C541.61 566.053 541.756 569.338 541.391 572.405C541.098 575.618 540.294 578.757 538.979 581.313C537.152 584.964 534.375 587.519 530.501 588.103C526.774 592.119 523.12 596.281 519.831 600.37C516.25 604.897 513.181 609.058 511.134 612.636C509.526 615.338 510.038 617.09 510.623 619.061C510.915 620.084 511.207 621.106 511.427 622.201C518.004 623.588 523.851 624.684 529.186 625.706C562.804 631.985 573.328 633.956 573.328 677.765C573.328 679.956 571.501 681.781 569.308 681.781H402.387C400.121 681.781 398.367 679.956 398.367 677.765C398.367 633.956 408.818 632.058 442.509 625.706C447.844 624.684 453.837 623.588 460.342 622.201C460.561 621.325 460.853 620.522 461.145 619.719C461.803 617.82 462.461 615.849 460.488 612.636C458.368 609.131 455.299 604.897 451.791 600.37C448.575 596.281 444.848 592.046 441.194 588.103C437.393 587.519 434.543 584.964 432.716 581.313C431.401 578.83 430.597 575.618 430.304 572.405C430.012 569.265 430.158 565.98 430.743 563.059C431.693 558.459 433.812 554.443 437.028 552.253L432.643 549.624C431.474 536.847 434.909 514.358 419.123 510.051ZM703.635 23.7734L818.302 28.4464V183.164L703.635 107.521V23.7734Z" fill="#fa8c16"/>
</svg>
