<svg  viewBox="0 0 921 680" fill="#fa8c16" xmlns="http://www.w3.org/2000/svg">
<path fill-rule="evenodd" clip-rule="evenodd" d="M59.4827 462.902V304.095C47.3956 308.742 36.0784 308.845 26.6732 305.644C19.3351 303.171 13.1339 298.725 8.58636 292.999C4.03881 287.273 1.14492 280.298 0.271582 272.605C-1.07201 260.678 2.49368 247.207 12.6688 234.552C13.1856 233.933 13.754 233.313 14.4258 232.797L309.267 2.84981C313.091 -0.655984 318.983 -1.02257 323.225 2.28186L618.739 231.821C619.204 232.182 619.617 232.544 620.025 233.009C633.72 247.724 637.135 264.039 633.828 277.82C632.174 284.635 628.919 290.733 624.423 295.788C619.932 300.842 614.196 304.771 607.68 307.095C597.344 310.807 585.05 310.704 572.596 304.823V462.277H543.663V292.122C543.663 286.902 340.945 126.807 318.574 109.413C294.855 127.427 88.4269 286.241 88.4269 292.948V463L59.4827 462.902ZM324.367 204.859V269.667H382.555V269.486C382.555 251.622 375.238 235.373 363.456 223.591C353.172 213.327 339.508 206.449 324.367 204.859ZM324.367 283.355V323.591H382.555V283.355H324.367ZM310.668 323.55V283.355H252.469V323.591H310.663V323.55H310.668ZM310.668 269.667V204.859C295.49 206.48 281.863 213.327 271.585 223.591C259.802 235.373 252.475 251.622 252.475 269.486V269.667H310.668ZM317.515 190.815C339.183 190.815 358.867 199.675 373.104 213.905C387.387 228.171 396.219 247.837 396.219 269.445V337.206H238.775V269.45C238.775 247.801 247.648 228.135 261.885 213.91C276.163 199.675 295.847 190.815 317.515 190.815ZM484.488 18.3393L573.211 21.9535V141.677L484.488 83.1784V18.3393Z" fill="#fa8c16"/>
<path fill-rule="evenodd" clip-rule="evenodd" d="M622.095 491.27H0V567.888C0.0197987 576.818 3.57174 585.376 9.87863 591.691C16.1855 598.005 24.7338 601.561 33.6531 601.581H78.6238C79.5682 578.511 89.3861 556.701 106.024 540.712C122.661 524.723 144.829 515.795 167.891 515.795C190.952 515.795 213.12 524.723 229.758 540.712C246.395 556.701 256.213 578.511 257.157 601.581H379.703C380.647 578.511 390.465 556.701 407.102 540.712C423.74 524.723 445.908 515.795 468.969 515.795C492.031 515.795 514.199 524.723 530.837 540.712C547.474 556.701 557.292 578.511 558.236 601.581H699.219C704.241 487.143 868.159 471.309 884.874 601.581H921C907.434 457.501 926.247 489.019 789.835 437.015C788.344 419.872 784.459 403.024 778.293 386.962C752.36 315.372 709.338 321.6 622.095 321V491.27ZM468.969 537.871C455.628 537.871 442.586 541.832 431.493 549.253C420.4 556.674 411.754 567.222 406.648 579.563C401.543 591.904 400.207 605.483 402.81 618.584C405.412 631.685 411.837 643.719 421.271 653.165C430.705 662.61 442.724 669.042 455.809 671.648C468.895 674.254 482.458 672.917 494.784 667.805C507.11 662.693 517.645 654.037 525.057 642.93C532.469 631.824 536.426 618.766 536.426 605.408C536.426 587.496 529.319 570.318 516.668 557.652C504.018 544.986 486.86 537.871 468.969 537.871ZM468.969 579.519C463.795 579.445 458.716 580.913 454.378 583.737C450.04 586.56 446.638 590.612 444.606 595.377C442.575 600.142 442.004 605.404 442.968 610.494C443.932 615.585 446.386 620.273 450.018 623.963C453.651 627.652 458.297 630.177 463.367 631.215C468.436 632.254 473.7 631.759 478.488 629.794C483.276 627.829 487.372 624.483 490.255 620.18C493.137 615.878 494.677 610.814 494.678 605.634C494.688 602.208 494.022 598.814 492.72 595.646C491.417 592.478 489.503 589.598 487.087 587.172C484.671 584.746 481.8 582.822 478.64 581.508C475.48 580.195 472.091 579.519 468.67 579.519H468.969ZM168.041 537.871C154.699 537.871 141.657 541.832 130.564 549.253C119.471 556.674 110.825 567.222 105.719 579.563C100.614 591.904 99.2778 605.483 101.881 618.584C104.483 631.685 110.908 643.719 120.342 653.165C129.776 662.61 141.795 669.042 154.88 671.648C167.966 674.254 181.529 672.917 193.855 667.805C206.181 662.693 216.716 654.037 224.128 642.93C231.54 631.824 235.497 618.766 235.497 605.408C235.497 587.496 228.39 570.318 215.739 557.652C203.089 544.986 185.931 537.871 168.041 537.871ZM168.041 579.519C162.879 579.504 157.828 581.023 153.529 583.884C149.23 586.744 145.875 590.817 143.89 595.588C141.904 600.358 141.377 605.611 142.375 610.682C143.373 615.753 145.851 620.413 149.496 624.073C153.14 627.732 157.788 630.227 162.849 631.241C167.911 632.254 173.159 631.742 177.93 629.767C182.7 627.793 186.778 624.446 189.648 620.15C192.517 615.854 194.049 610.802 194.049 605.634C194.049 598.721 191.311 592.09 186.436 587.194C181.56 582.299 174.945 579.539 168.041 579.519ZM792.084 531.117C777.375 531.102 762.993 535.456 750.756 543.626C738.519 551.797 728.978 563.418 723.339 577.019C717.7 590.62 716.217 605.59 719.077 620.035C721.937 634.48 729.013 647.752 739.408 658.17C749.803 668.588 763.051 675.686 777.476 678.564C791.901 681.443 806.854 679.973 820.445 674.341C834.035 668.709 845.652 659.167 853.825 646.924C861.998 634.68 866.361 620.285 866.361 605.559C866.361 585.828 858.537 566.905 844.61 552.947C830.683 538.989 811.79 531.137 792.084 531.117ZM792.084 576.893C786.418 576.878 780.875 578.546 776.157 581.687C771.439 584.828 767.757 589.3 765.579 594.536C763.4 599.773 762.822 605.539 763.919 611.105C765.015 616.67 767.736 621.785 771.737 625.802C775.738 629.818 780.84 632.556 786.396 633.668C791.952 634.78 797.712 634.217 802.948 632.049C808.184 629.882 812.66 626.208 815.81 621.492C818.959 616.777 820.64 611.231 820.64 605.559C820.64 597.969 817.634 590.689 812.281 585.315C806.928 579.941 799.664 576.912 792.084 576.893ZM707.239 360.097L665.267 359.421V437.015H742.991C739.496 408.236 726.979 381.307 707.239 360.097Z" fill="#fa8c16"/>
</svg>
