<svg width="736" height="422" viewBox="0 0 736 422" fill="none" xmlns="http://www.w3.org/2000/svg">
<path d="M364.389 114.384C405.967 114.384 443.597 132.032 470.876 160.568C498.096 189.104 514.967 228.588 514.967 272.081C514.967 283.686 513.77 294.993 511.497 305.881H700.601C713.165 305.881 716.275 312.821 716.275 321.376C716.275 329.931 713.165 336.87 700.601 336.87H42.4154C29.8523 336.87 26.7414 329.931 26.7414 321.376C26.7414 312.821 29.8523 305.881 42.4154 305.881H217.282C215.008 294.993 213.812 283.686 213.812 272.081C213.812 228.529 230.682 189.104 257.902 160.568C285.182 132.092 322.811 114.384 364.389 114.384ZM379.286 421.222C366.722 421.222 363.612 414.283 363.612 405.728C363.612 397.173 366.722 390.233 379.286 390.233H719.446C732.009 390.233 735.12 397.173 735.12 405.728C735.12 414.283 732.009 421.222 719.446 421.222H379.286ZM15.6739 421.222C3.11086 421.222 0 414.283 0 405.728C0 397.173 3.11086 390.233 15.6739 390.233H192.215C204.778 390.233 207.889 397.173 207.889 405.728C207.889 414.283 204.778 421.222 192.215 421.222H15.6739ZM229.665 56.5937C224.999 48.5174 227.751 38.2277 235.827 33.5614C243.903 28.8951 254.193 31.647 258.859 39.7233L280.516 77.2331C285.182 85.3093 282.43 95.5991 274.354 100.265C266.278 104.932 255.988 102.18 251.322 94.1035L229.665 56.5937ZM350.989 16.9303C350.989 7.59768 358.586 0 367.919 0C377.252 0 384.849 7.59768 384.849 16.9303V60.243C384.849 69.5756 377.252 77.1732 367.919 77.1732C358.586 77.1732 350.989 69.6354 350.989 60.243V16.9303ZM475.961 43.2529C480.568 35.1766 490.858 32.4247 498.934 37.0312C507.01 41.6377 509.762 51.9274 505.156 60.0037L483.499 97.5135C478.893 105.59 468.603 108.342 460.527 103.735C452.451 99.1287 449.699 88.839 454.305 80.7627L475.961 43.2529ZM571.022 128.502C579.098 123.836 589.388 126.588 594.055 134.664C598.721 142.741 595.969 153.03 587.893 157.697L550.383 179.353C542.307 184.019 532.017 181.267 527.351 173.191C522.684 165.115 525.436 154.825 533.512 150.159L571.022 128.502ZM610.686 249.826C620.018 249.826 627.616 257.424 627.616 266.756C627.616 276.089 620.018 283.686 610.686 283.686H567.373C558.04 283.686 550.443 276.149 550.443 266.756C550.443 257.364 557.98 249.826 567.373 249.826H610.686ZM118.093 276.687C108.76 276.687 101.163 269.089 101.163 259.757C101.163 250.424 108.76 242.827 118.093 242.827H161.406C170.738 242.827 178.336 250.364 178.336 259.757C178.336 269.149 170.738 276.687 161.406 276.687H118.093ZM144.416 151.654C136.339 147.048 133.587 136.758 138.194 128.682C142.8 120.606 153.09 117.854 161.166 122.46L198.676 144.117C206.752 148.723 209.504 159.013 204.898 167.089C200.291 175.165 190.002 177.917 181.925 173.311L144.416 151.654Z" fill="#FA8C16"/>
</svg>
