<svg width="626" height="420" viewBox="0 0 626 420" fill="none" xmlns="http://www.w3.org/2000/svg">
<path d="M78.7513 0H547.261C568.865 0 588.55 8.86421 602.806 23.1007H602.867C617.136 37.3493 626 57.0313 626 78.6424V341.358C626 362.969 617.124 382.638 602.855 396.887C588.587 411.136 568.89 420 547.261 420H78.7513C57.1225 420 37.4011 411.148 23.1327 396.887L22.2279 395.923C8.49746 381.759 0 362.48 0 341.358V78.6424C0 57.0679 8.86426 37.4226 23.1204 23.1495L23.1816 23.0885C37.5111 8.82758 57.1714 0 78.7513 0ZM222.633 251.885H188.876V291.042H136.938V128.958H218.745C255.963 128.958 274.572 148.933 274.572 188.871C274.572 210.824 269.718 227.075 260.035 237.624C256.391 241.592 251.378 244.962 244.971 247.734C238.565 250.493 231.119 251.885 222.633 251.885ZM188.876 170.459V210.385H203.132C209.355 210.385 213.904 209.737 216.765 208.443C219.614 207.149 221.056 204.17 221.056 199.494V181.35C221.056 176.674 219.614 173.695 216.765 172.4C213.904 171.106 209.355 170.459 203.132 170.459H188.876V170.459ZM345.718 291.042H291.445L301.311 128.958H369.095L389.343 211.422H391.164L411.424 128.958H479.196L489.062 291.042H434.789L431.671 212.46H429.861L410.116 291.042H370.391L350.389 212.46H348.836L345.718 291.042ZM547.261 32.2579H78.7513C65.9501 32.2579 54.3348 37.4714 45.9596 45.8351L45.8985 45.8961C37.5233 54.2597 32.3026 65.8589 32.3026 78.6424V341.358C32.3026 353.763 37.2543 365.081 45.2505 373.42L45.9596 374.092C54.396 382.504 66.0112 387.73 78.7513 387.73H547.261C559.977 387.73 571.592 382.492 580.016 374.079C588.452 365.667 593.697 354.068 593.697 341.358V78.6424C593.697 65.9199 588.452 54.3208 580.028 45.8961C571.641 37.4836 560.025 32.2579 547.261 32.2579V32.2579Z" fill="#FA8C16"/>
</svg>
