<svg width="500" height="437" viewBox="0 0 500 437" fill="none" xmlns="http://www.w3.org/2000/svg">
<path d="M386.7 200.907L386.934 201.219C388.146 202.938 387.716 205.36 385.996 206.571L356.283 227.354C354.562 228.566 352.139 228.175 350.927 226.417L350.692 226.104C349.48 224.385 349.871 221.963 351.63 220.752L381.343 199.969C383.064 198.758 385.488 199.149 386.7 200.907Z" fill="#FA8C16"/>
<path d="M449.175 393.502L465.283 318.417H482.016C486.942 318.417 491.477 316.386 494.722 313.143C497.967 309.862 500 305.369 500 300.408V284.039C500 279.078 497.967 274.546 494.722 271.304C492.924 269.507 490.734 268.061 488.271 267.163V168.091C483.462 124.338 447.963 102.851 406.248 119.962C389.632 110.43 371.999 112.579 353.468 124.611C345.321 123.235 344.583 124.14 340.163 129.556C340.064 129.677 339.964 129.799 339.862 129.924C337.751 131.565 337.399 133.44 339.198 135.589L405.27 202.274C408.046 204.501 410.196 204.345 411.917 202.587L416.217 197.625C418.133 194.305 418.289 191.179 416.53 188.328C430.331 170.748 431.582 153.52 421.847 136.565C443.467 133.479 459.653 141.097 465.361 169.107V265.991C381.987 265.991 311.547 266 243.787 266.009V285.641H480.413V298.767H243.787V361.287C243.787 387.43 222.593 408.624 196.45 408.624H155.621C129.478 408.624 108.284 387.43 108.284 361.287V298.767H19.6262V285.641H28.6183C30.104 285.992 31.6678 286.031 33.2317 285.641H108.284V266.026C79.1916 266.028 49.3505 266.03 17.9842 266.03C13.41 266.03 9.22668 267.749 6.0599 270.6C5.78622 270.796 5.51255 271.069 5.27797 271.304C2.033 274.585 0 279.078 0 284.039V300.408C0 305.369 2.033 309.862 5.27797 313.143L5.31707 313.104V313.143C8.60114 316.386 13.0972 318.417 18.0233 318.417H33.5054L53.3271 393.932C54.4861 398.385 55.0865 403.157 55.6749 407.834C57.528 422.562 59.2637 436.357 77.9576 436.357C90.125 436.357 168.247 436.319 247.308 436.28C328.29 436.241 410.256 436.201 423.333 436.201C443.785 436.201 445.553 421.152 447.378 405.617C447.859 401.524 448.343 397.396 449.175 393.502Z" fill="#FA8C16"/>
<path d="M220.118 266.012C190.732 266.016 161.629 266.02 131.953 266.023V285.641H220.118V266.012Z" fill="#FA8C16"/>
<path d="M220.118 298.767V361.287C220.118 374.358 209.522 384.955 196.45 384.955H155.621C142.549 384.955 131.953 374.358 131.953 361.287V298.767H220.118Z" fill="#FA8C16"/>
<path d="M349.285 168.795L349.519 169.107C350.731 170.826 350.34 173.248 348.581 174.459L318.868 195.242C317.148 196.453 314.724 196.063 313.512 194.305L313.277 193.992C312.065 192.273 312.456 189.851 314.215 188.64L343.928 167.857C345.649 166.646 348.073 167.037 349.285 168.795Z" fill="#FA8C16"/>
<path d="M332.2 151.606L332.434 151.918C333.646 153.637 333.216 156.059 331.496 157.27L301.783 178.053C300.063 179.264 297.639 178.874 296.427 177.116L296.192 176.803C294.98 175.084 295.371 172.662 297.13 171.451L326.843 150.668C328.564 149.457 330.988 149.848 332.2 151.606Z" fill="#FA8C16"/>
<path d="M366.33 185.398L366.565 185.71C367.777 187.468 367.347 189.851 365.666 191.062L335.914 211.845C334.193 213.056 331.769 212.666 330.557 210.908L330.323 210.595C329.111 208.876 329.502 206.454 331.261 205.243L360.974 184.46C362.694 183.249 365.118 183.64 366.33 185.398Z" fill="#FA8C16"/>
<path fill-rule="evenodd" clip-rule="evenodd" d="M107.135 125.884H105.115C105.115 109.334 98.9248 94.869 86.5666 82.5108C74.2085 70.1526 59.7436 63.9627 43.1936 63.9627V61.9428C59.7436 61.9428 74.2085 55.7529 86.5666 43.373C98.9248 30.9497 105.115 16.4848 105.115 0H107.135C107.135 16.5499 113.325 31.0148 125.683 43.373C138.041 55.7312 152.506 61.9211 169.056 61.9211V63.941C152.506 63.941 138.041 70.1309 125.683 82.4891C113.325 94.869 107.135 109.334 107.135 125.884ZM70.3425 201.662H69.4086C69.4086 194.082 66.5634 187.436 60.8947 181.767C55.226 176.098 48.58 173.253 41 173.253V172.319C48.58 172.319 55.226 169.474 60.8947 163.805C66.5634 158.115 69.4086 151.491 69.4086 143.932H70.3425C70.3425 151.512 73.1877 158.158 78.8564 163.827C84.525 169.496 91.1494 172.341 98.751 172.341V173.275C91.1711 173.275 84.525 176.12 78.8564 181.789C73.166 187.436 70.3425 194.082 70.3425 201.662ZM189.493 207.569H188.559C188.559 199.989 185.714 193.343 180.046 187.675C174.377 182.006 167.753 179.161 160.151 179.161V178.227C167.731 178.227 174.377 175.382 180.046 169.713C185.714 164.023 188.559 157.398 188.559 149.84H189.493C189.493 157.42 192.339 164.066 198.007 169.735C203.676 175.403 210.3 178.249 217.902 178.249V179.182C210.322 179.182 203.676 182.028 198.007 187.696C192.317 193.343 189.493 199.968 189.493 207.569ZM255.91 140.24H254.216C254.216 126.362 249.025 114.221 238.644 103.839C228.262 93.4572 216.143 88.2664 202.242 88.2664V86.5723C216.121 86.5723 228.262 81.3814 238.644 70.978C249.025 60.5745 254.216 48.4336 254.216 34.5985H255.91C255.91 48.477 261.101 60.618 271.483 70.9997C281.865 81.3814 293.984 86.5723 307.884 86.5723V88.2664C294.006 88.2664 281.865 93.4572 271.483 103.839C261.101 114.221 255.91 126.362 255.91 140.24Z" fill="#FA8C16"/>
</svg>
