<svg width="500" height="424" viewBox="0 0 500 424" fill="none" xmlns="http://www.w3.org/2000/svg">
<path d="M441.757 194.081L440.11 201.758C424.505 194.501 407.108 190.449 388.764 190.449C323.578 190.449 270.342 241.611 267.018 305.97L234.803 305.985C159.74 306.022 85.5681 306.058 74.0159 306.058C56.2672 306.058 54.6193 292.961 52.8599 278.977C52.3012 274.536 51.7312 270.006 50.6307 265.778L31.8113 194.081H17.112C12.435 194.081 8.16625 192.153 5.04823 189.074V189.037L5.01111 189.074C1.9302 185.959 0 181.693 0 176.983V161.442C0 156.731 1.9302 152.466 5.01111 149.35C5.23382 149.127 5.49366 148.868 5.75349 148.682C8.76016 145.975 12.7319 144.343 17.0749 144.343C46.8552 144.343 75.1875 144.341 102.809 144.339V162.962H31.5514C30.0666 163.333 28.5819 163.296 27.1713 162.962H18.6339V175.425H102.809V234.783C102.809 259.605 122.931 279.727 147.753 279.727H186.517C211.339 279.727 231.461 259.605 231.461 234.783V175.425H456.122V162.962H231.461V144.323C295.795 144.314 362.673 144.306 441.831 144.306V52.3208C436.412 25.7268 421.044 18.4941 400.517 21.4243C409.76 37.5217 408.572 53.8786 395.469 70.5695C397.14 73.2771 396.991 76.2443 395.172 79.397L391.089 84.1075C389.456 85.7766 387.414 85.925 384.779 83.8108L322.047 20.497C320.34 18.457 320.674 16.6767 322.678 15.1189L322.963 14.7696C327.16 9.6273 327.861 8.76833 335.596 10.0746C353.19 -1.34937 369.931 -3.38936 385.707 5.66077C425.313 -10.5849 459.017 9.81492 463.583 51.3565V145.418C465.922 146.271 468 147.644 469.708 149.35C472.789 152.429 474.719 156.731 474.719 161.442V176.983C474.719 181.693 472.789 185.959 469.708 189.074C466.627 192.153 462.321 194.081 457.644 194.081H441.757Z" fill="#FA8C16"/>
<path d="M367.37 82.8094L367.147 82.5126C365.996 80.8436 363.695 80.4727 362.062 81.6225L333.851 101.355C332.181 102.505 331.81 104.804 332.96 106.436L333.183 106.733C334.334 108.402 336.635 108.773 338.268 107.623L366.479 87.8908C368.112 86.741 368.521 84.4414 367.37 82.8094Z" fill="#FA8C16"/>
<path d="M208.989 144.326C181.088 144.33 153.456 144.334 125.281 144.337V162.962H208.989V144.326Z" fill="#FA8C16"/>
<path d="M208.989 234.783V175.425H125.281V234.783C125.281 247.194 135.342 257.255 147.753 257.255H186.517C198.928 257.255 208.989 247.194 208.989 234.783Z" fill="#FA8C16"/>
<path d="M331.624 52.0241L331.847 52.3208C332.997 53.9528 332.626 56.2524 330.956 57.4023L302.745 77.1345C301.112 78.2843 298.811 77.9134 297.66 76.2443L297.437 75.9476C296.286 74.3156 296.658 72.016 298.328 70.8662L326.539 51.1339C328.172 49.9841 330.473 50.355 331.624 52.0241Z" fill="#FA8C16"/>
<path d="M315.626 36.0009L315.403 35.7042C314.252 34.0351 311.951 33.6642 310.318 34.814L282.107 54.5463C280.436 55.6961 280.065 57.9957 281.216 59.6277L281.439 59.9244C282.589 61.5935 284.891 61.9644 286.524 60.8146L314.735 41.0824C316.368 39.9325 316.776 37.6329 315.626 36.0009Z" fill="#FA8C16"/>
<path d="M347.808 67.7876L348.031 68.0844C349.181 69.7535 348.773 72.016 347.177 73.1658L318.929 92.898C317.296 94.0478 314.994 93.6769 313.844 92.0079L313.621 91.7111C312.47 90.0791 312.842 87.7795 314.512 86.6297L342.723 66.8975C344.356 65.7477 346.657 66.1186 347.808 67.7876Z" fill="#FA8C16"/>
<path fill-rule="evenodd" clip-rule="evenodd" d="M500 312.359C500 373.793 450.198 423.595 388.764 423.595C327.33 423.595 277.528 373.793 277.528 312.359C277.528 250.926 327.33 201.124 388.764 201.124C450.198 201.124 500 250.926 500 312.359ZM480.298 312.359C480.298 362.912 439.317 403.893 388.764 403.893C338.211 403.893 297.23 362.912 297.23 312.359C297.23 261.807 338.211 220.826 388.764 220.826C439.317 220.826 480.298 261.807 480.298 312.359Z" fill="#FA8C16"/>
<path d="M380 254C374.477 254 370 258.477 370 264V290.5H343C337.477 290.5 333 294.977 333 300.5V319.5C333 325.023 337.477 329.5 343 329.5H370V356C370 361.523 374.477 366 380 366H399C404.523 366 409 361.523 409 356V329.5H435C440.523 329.5 445 325.023 445 319.5V300.5C445 294.977 440.523 290.5 435 290.5H409V264C409 258.477 404.523 254 399 254H380Z" fill="#FA8C16"/>
</svg>
