<svg width="500" height="362" fill="none" xmlns="http://www.w3.org/2000/svg"><path fill-rule="evenodd" clip-rule="evenodd" d="M148.615.886c-.854.273-30.116 12.213-65.028 26.532-37.49 15.378-64.436 26.993-65.825 28.377-1.293 1.289-2.64 3.79-2.995 5.56-.353 1.77-.643 65.078-.643 140.684v137.465h-3.945c-7.426 0-12.536 8.654-9.07 15.358 3.564 6.891-16.907 6.367 248.891 6.367s245.327.524 248.891-6.367c3.466-6.704-1.644-15.358-9.07-15.358h-3.945V175.496c0-175.59.222-167.96-5.008-172.618-1.356-1.209-3.677-1.934-6.091-1.903-2.659.033-23.976 8.336-66.948 26.074-34.675 14.313-63.927 26.497-65.004 27.073-4.477 2.396-4.889 6.045-4.889 43.266v35.207h-14.483V71.107c0-36.573-.401-62.541-.988-64.088-1.303-3.424-5.731-6.234-9.751-6.187-1.777.021-31.807 11.786-66.852 26.192-48.782 20.053-64.289 26.853-66.47 29.152l-2.845 3v73.419H162.11l-.281-62.57-.283-62.57-3.103-3.002c-3.162-3.056-7.036-4.463-9.828-3.567zm-9.311 105.328v78.108H36.866l.268-57.056.267-57.056 50.693-20.968c27.881-11.532 50.809-21.005 50.951-21.052.142-.046.259 35.065.259 78.024zm162.423 0v78.108H198.273V70.75l10.087-4.237c12.938-5.436 92.766-38.339 93.109-38.378.141-.015.258 35.12.258 78.079zm161.389 0v78.108H360.679l.268-57.056.267-57.056 50.692-20.968c27.881-11.532 50.81-21.005 50.952-21.052.141-.046.258 35.065.258 78.024zm-411.748 8.277v18.104h21.725V96.386H51.368v18.105zm161.388 0v18.104h22.76V96.386h-22.76v18.105zm162.424 0v18.104h21.725V96.386H375.18v18.105zm-272.085 22.242v18.622h21.725v-37.243h-21.725v18.621zm161.389 0v18.692l11.121-.293 11.121-.294v-36.209l-11.121-.294-11.121-.294v18.692zm162.423 0v18.622h21.726v-37.243h-21.726v18.621zm-250.36 92.075v73.452h-14.483V155.355h14.483v73.453zm161.389 0v73.452h-14.483V155.355h14.483v73.453zm-198.632 44.485v66.211h-21.726v-50.486c0-37.887-.309-50.795-1.241-51.727-1.768-1.768-54.718-1.768-56.486 0-.932.932-1.242 13.84-1.242 51.727v50.486H36.884V207.082h102.42v66.211zm162.172-.258l-.266 65.952h-21.725l-.518-51.21-.517-51.21h-56.9l-.517 51.21-.517 51.21H198.79l-.266-65.952-.267-65.953h103.486l-.267 65.953zm161.64.258v66.211h-21.725v-50.486c0-37.887-.31-50.795-1.242-51.727-1.768-1.768-54.718-1.768-56.486 0-.932.932-1.241 13.84-1.241 51.727v50.486h-21.726V207.082h102.42v66.211zm-353.028 17.846l-.269 47.848H66.368l-.269-47.848-.269-47.848h44.527l-.269 47.848zm161.637.259v48.106h-43.45v-96.213h43.45v48.107zm162.176-.259l-.269 47.848h-43.451l-.269-47.848-.269-47.848h44.527l-.269 47.848zm-257.567 40.347l-.304 7.501-6.983.306-6.983.305v-15.612h14.574l-.304 7.5zm161.602.307v7.805l-6.983-.305-6.983-.306-.304-7.501-.304-7.5h14.574v7.807z" fill="#FA8C16"/></svg>