<svg width="500" height="393" fill="none" xmlns="http://www.w3.org/2000/svg"><path fill-rule="evenodd" clip-rule="evenodd" d="M147.934 1.183C98.358 4.947 54.209 34.503 31.93 78.84c-5.455 10.858-9.781 23.039-12.589 35.452-2.094 9.254-2.15 11.313-2.503 89.679l-.36 80.206-3.377.547c-4.784.776-9.145 4.212-11.262 8.872C.405 296.758.017 300.001 0 309.011c-.029 15.357 1.767 19.458 10.233 23.365 3.59 1.657 7.082 1.805 42.991 1.825l39.085.021 1.157 6.104c1.566 8.26 8.797 22.446 14.945 29.316 13.215 14.765 30.621 22.416 50.754 22.308 11.272-.06 18.388-1.786 29.298-7.104 6.551-3.192 9.967-5.713 16.2-11.953 10.442-10.454 16.343-21.395 19.407-35.985l.565-2.686h183.564v41.018l-4.15.002c-11.828.003-17.066 11.029-7.558 15.906 2.984 1.531 5.69 1.713 21.804 1.465l18.399-.283 2.354-2.74c2.958-3.442 3.015-7.616.148-10.949-1.807-2.1-3.32-2.668-8.301-3.12l-6.093-.553v-40.746l30.518-.021c27.582-.02 30.895-.196 34.426-1.825 4.519-2.086 7.731-5.295 9.212-9.204.661-1.745 1.042-14.514 1.042-34.959v-32.208l-2.398-2.397c-3.627-3.628-8.664-3.563-12.007.153-2.065 2.295-2.197 3.292-2.197 16.604v14.163l-4.151-.301-4.15-.3-.3-5.856c-.367-7.16-2.707-10.258-7.748-10.258-1.821 0-4.116.431-5.098.956-2.294 1.228-3.945 5.998-3.945 11.397v4.249h-7.813v-73.283c0-44.833-.4-76.966-1.031-82.767-3.661-33.644-17.398-62.482-41.013-86.098-16.189-16.188-33.691-27.013-55.155-34.114C330.538.726 332.799.876 240.223.647c-45.387-.114-86.917.128-92.289.536zM338.1 20.926c19.888 5.467 35.283 13.307 49.937 25.432 22.411 18.544 37.313 43.844 43.293 73.5 1.624 8.051 1.773 15.31 1.773 86.429v77.64l-24.626.261-24.625.261-.279-90.597c-.308-100.77.187-93.619-7.026-101.603-1.937-2.144-5.723-4.845-8.415-6.002-4.821-2.074-5.59-2.1-52.972-1.826-53.878.312-50.744-.101-58.306 7.69-7.196 7.416-6.865 2.466-6.865 102.631v89.673h-39.365l-3.354-3.919c-1.845-2.155-6.13-5.899-9.522-8.319-27.186-19.4-62.588-16.86-85.881 6.163l-6.146 6.075H33.183v-16.47l22.385-.31c22.15-.307 22.412-.336 24.904-2.677 3.47-3.262 3.47-8.606 0-11.868-2.492-2.342-2.754-2.37-24.904-2.678l-22.385-.31v-16.47h45.76l2.023-2.573c2.835-3.604 2.63-8.236-.493-11.174-2.494-2.344-2.742-2.37-24.98-2.663l-22.461-.296.414-45.604c.379-41.818.582-46.334 2.442-54.394 10.48-45.403 41.99-80.048 85.23-93.708 16.951-5.355 15.481-5.29 115.199-5.09l92.289.186 9.494 2.61zM133.774 85.678c-15.424 3.117-29.129 10.294-40.773 21.351-17.211 16.346-25.209 34.949-26.326 61.235-.719 16.911-.04 21.499 3.83 25.906 5.813 6.621 1.197 6.259 79.578 6.242l71.097-.017 3.833-2.181c2.39-1.36 4.688-3.802 6.104-6.485l2.27-4.305v-44.95c0-43.64-.059-45.073-2.047-49.178-1.365-2.82-3.428-5.038-6.19-6.657l-4.142-2.427-40.443.091c-29.201.067-42.208.449-46.791 1.374zm83.011 56.642v41.505h-58.596v-83.011h58.596v41.506zm147.023-39.109l2.397 2.397v178.807h-99.613v-88.447c0-65.37.297-89.002 1.135-90.58 2.434-4.567 1.817-4.511 48.96-4.543l44.724-.031 2.397 2.397zm-222.222 39.597v41.017H82.7l.576-13.428c.667-15.565 2.156-22.115 7.511-33.059 6.909-14.114 19.852-25.847 35.174-31.882 7.273-2.866 9.201-3.395 12.94-3.552l2.685-.114v41.018zm138.19 42.145c-3.969 2.17-4.395 3.73-4.395 16.079 0 11.747.044 11.984 2.573 13.973 3.603 2.835 8.236 2.63 11.174-.493 2.132-2.268 2.4-3.517 2.697-12.579.369-11.274-.943-15.508-5.323-17.173-3.095-1.177-4.284-1.143-6.726.193zm-111.625 91.744c22.948 4.75 39.844 25.405 39.844 48.707 0 13.209-4.067 23.966-12.695 33.574-16.132 17.964-43.835 21.7-64.046 8.637-25.85-16.708-30.534-53.449-9.609-75.386 3.057-3.205 7.605-7.141 10.106-8.745 10.53-6.757 24.215-9.309 36.4-6.787zm-72.112 25.517c-.407.657-1.464 4.283-2.351 8.057l-1.612 6.861-37.747.255-37.748.255v-16.624H56.68c31.386 0 39.938.259 39.359 1.196zm53.57.031c-4.529 1.451-11.401 7.806-13.8 12.764-4.567 9.433-1.523 23.269 6.598 29.985 3.675 3.04 11.228 5.83 15.782 5.83 10.351 0 21.062-8.07 23.966-18.057 3.49-12.005-2.351-24.771-13.69-29.922-4.38-1.989-13.605-2.282-18.856-.6zm333.789 7.074v8.301H224.635l-.592-2.686c-.326-1.476-1.213-4.95-1.972-7.719-.759-2.768-1.38-5.295-1.38-5.615 0-.321 59.109-.582 131.354-.582h131.353v8.301zm-319.632 10.498c3.004 3.283 3.521 6.092 1.751 9.515-3.965 7.667-15.141 5.116-15.141-3.455 0-7.142 8.768-11.11 13.39-6.06z" fill="#FA8C16"/></svg>