<svg width="500" height="682" fill="none" xmlns="http://www.w3.org/2000/svg"><path fill-rule="evenodd" clip-rule="evenodd" d="M202.502 3.13c-3.696 2.702-3.97 6.477-4.921 67.82l-1.008 64.961-11.089.799c-16.397 1.179-36.055 7.661-47.129 15.536-17.432 12.396-33.359 35.462-36.746 53.217l-1.252 6.554H9.897l-4.947 4.951C.002 221.915 0 221.937 0 265.143c0 39.555.327 43.63 3.855 47.986l3.853 4.761h484.584l3.853-4.761c3.528-4.356 3.855-8.431 3.855-47.986 0-43.206-.002-43.228-4.95-48.175l-4.947-4.951h-90.46l-1.399-7.452c-.768-4.097-3.698-12.037-6.51-17.645-15.024-29.951-42.061-47.518-77.218-50.172l-11.089-.837-1.008-64.96c-.951-61.344-1.225-65.12-4.921-67.822-5.71-4.172-89.286-4.172-94.996 0zm69.675 79.822v52.433h-44.354V30.519h44.354v52.433zm63.714 89.529c5.657 2.635 13.591 8.094 17.627 12.134 6.998 7 15.434 20.83 15.434 25.305 0 1.427-37.956 2.097-118.952 2.097-65.423 0-118.952-.343-118.952-.762 0-.42 1.4-4.11 3.109-8.202 4.575-10.956 18.66-25.267 30.158-30.647 10.004-4.681 10.649-4.715 85.685-4.715 75.361 0 75.639.014 85.891 4.79zm133.867 92.977v23.191H30.242v-46.383h439.516v23.192zM51.02 368.131l-5.657 4.866v57.164l5.657 4.868c7.141 6.145 11.788 6.145 18.928-.002l5.657-4.872v-57.16l-5.657-4.866c-7.142-6.141-11.789-6.141-18.928.002zm79.02-2.585c-8.346 4.666-9.072 7.588-9.072 36.513 0 26.975.171 28.11 4.949 32.887 2.722 2.723 7.299 4.951 10.172 4.951s7.449-2.228 10.171-4.951c4.782-4.781 4.95-5.902 4.95-33.05 0-23.829-.537-28.735-3.529-32.273-4.403-5.205-12.344-7.04-17.641-4.077zm77.621-.851c-9.443 3.474-10.08 5.818-10.08 37.051 0 29.782.002 29.792 5.312 33.971 8.625 6.788 17.236 4.779 22.585-5.266 3.032-5.697 3.117-51.186.107-57.795-1.232-2.702-4.45-5.92-7.152-7.153-5.318-2.422-6.201-2.488-10.772-.808zm73.315.885c-7.051 3.487-8.799 10.642-8.799 36.001 0 25.914 1.738 32.589 9.39 36.078 6.909 3.148 9.479 2.827 15.54-1.942 5.31-4.179 5.312-4.189 5.312-33.971 0-25.815-.469-30.213-3.528-32.97-4.824-4.35-12.732-5.761-17.915-3.196zm76.514-.284c-7.403 2.984-8.7 8.532-8.7 37.253 0 26.454.18 27.628 4.95 32.397 2.722 2.723 7.298 4.951 10.171 4.951 2.873 0 7.45-2.228 10.172-4.951 4.764-4.765 4.949-5.961 4.949-32.101 0-14.933-.564-28.62-1.252-30.415-1.203-3.137-10.939-9.302-14.272-9.038-.887.07-3.595.928-6.018 1.904zm72.562 2.833l-5.657 4.866v57.16l5.657 4.872c7.14 6.147 11.787 6.147 18.928.004l5.657-4.864v-57.162l-5.657-4.87c-7.139-6.147-11.786-6.147-18.928-.006zM57.165 485.824c-9.355 1.472-11.71 7.323-12.483 31.03-.4 12.173-.132 25.297.594 29.167 3.718 19.813 26.726 19.666 30.452-.196.724-3.862.907-17.022.407-29.247-1.107-27.063-4.762-32.99-18.97-30.754zm74.057.787c-9.129 3.377-10.121 6.939-10.19 36.563-.062 26.89.101 27.987 4.885 32.771 2.722 2.722 7.299 4.951 10.172 4.951s7.449-2.229 10.171-4.951c4.77-4.77 4.95-5.943 4.95-32.398 0-15.096-.889-29.11-1.974-31.139-2.696-5.037-11.988-8.028-18.014-5.797zm74.875-.103c-7.22 2.672-8.516 8.427-8.516 37.81 0 28.083.026 28.239 5.312 32.397 6.686 5.262 13.696 5.334 18.831.198 5.736-5.738 6.524-10.935 5.768-37.98-.557-19.87-1.327-24.893-4.327-28.202-4.28-4.723-11.133-6.419-17.068-4.223zm78.722-.662c-2.474.388-6.329 3.033-8.569 5.883-3.589 4.563-4.073 8.149-4.073 30.215 0 18.029.825 26.632 2.95 30.74 4.788 9.262 13.341 10.829 21.98 4.031 5.294-4.164 5.312-4.279 5.312-32.825 0-34.934-2.53-40.401-17.6-38.044zm72.754 1.426c-3.39 1.426-6.752 4.128-7.472 6.008-.722 1.877-1.311 15.631-1.311 30.564 0 26.14.186 27.335 4.95 32.101 2.722 2.722 7.298 4.951 10.171 4.951 2.873 0 7.45-2.229 10.172-4.951 4.784-4.784 4.947-5.881 4.885-32.771-.069-29.668-1.028-33.093-10.268-36.606-3.396-1.292-6.91-1.069-11.127.704zm78.625-1.448c-9.716 1.531-11.704 7.034-12.23 33.896-.502 25.625 1.006 33.825 7.058 38.427 5.087 3.866 13.988 3.299 18.458-1.172 5.389-5.39 6.679-14.267 5.835-40.121-.885-27.047-4.734-33.295-19.121-31.03zM49.204 611.521c-3.252 3.59-3.918 7.906-4.335 28.106-.585 28.33 1.835 38.203 10.07 41.097a16.825 16.825 0 0011.09 0c8.265-2.904 10.654-12.749 10.07-41.486-.464-22.76-.787-24.49-5.254-28.106-6.395-5.179-16.77-4.991-21.641.389zm75.943 1.071c-3.756 4.776-4.179 8.051-4.179 32.357 0 26.025.187 27.231 4.949 31.994 6.349 6.353 15.097 6.472 20.91.284 4.068-4.333 4.383-6.689 4.383-32.895 0-25.619-.379-28.634-4.111-32.639-5.96-6.399-16.555-5.965-21.952.899zm76.466-1.28c-3.661 3.662-4.032 6.721-4.032 33.274s.371 29.612 4.032 33.275c5.665 5.666 15.151 5.193 21.413-1.069 5.039-5.04 5.091-5.439 4.444-33.069-.565-24.105-1.186-28.554-4.496-32.206-5.014-5.533-15.93-5.638-21.361-.205zm75.413.205c-3.31 3.652-3.931 8.101-4.496 32.206-.647 27.63-.595 28.029 4.444 33.069 6.262 6.262 15.748 6.735 21.413 1.069 3.661-3.663 4.032-6.722 4.032-33.275 0-26.553-.371-29.612-4.032-33.274-5.431-5.433-16.347-5.328-21.361.205zm75.875.176c-3.736 4.009-4.111 7.018-4.111 32.921 0 27.195.216 28.713 4.666 32.896 6.191 5.816 14.473 5.588 20.627-.567 4.762-4.763 4.949-5.969 4.949-31.994 0-24.306-.423-27.581-4.179-32.357-5.397-6.864-15.992-7.298-21.952-.899zm75.335-.172c-3.252 3.59-3.917 7.906-4.335 28.106-.584 28.33 1.835 38.203 10.071 41.097a16.823 16.823 0 0011.088 0c8.267-2.904 10.656-12.749 10.071-41.486-.464-22.76-.786-24.49-5.254-28.106-6.395-5.179-16.77-4.991-21.641.389z" fill="#FA8C16"/></svg>