<svg width="487" height="487" fill="none" xmlns="http://www.w3.org/2000/svg"><path d="M7.615 441.779c-10.153 10.153-10.153 26.616 0 36.769 10.153 10.154 26.616 10.154 36.77 0L243 279.933l198.845 198.846c10.154 10.153 26.617 10.153 36.77 0 10.153-10.154 10.153-26.616 0-36.77L279.769 243.164l198.78-198.78c10.153-10.153 10.153-26.615 0-36.769-10.155-10.153-26.617-10.153-36.77 0L243 206.394 44.452 7.846c-10.154-10.154-26.616-10.154-36.77 0-10.154 10.153-10.154 26.616 0 36.77L206.23 243.163 7.615 441.779z" fill="#FA8C16"/></svg>