<svg width="500" height="424" fill="none" xmlns="http://www.w3.org/2000/svg"><path d="M441.757 194.081l-1.647 7.677c-15.605-7.257-33.002-11.309-51.346-11.309-65.186 0-118.422 51.162-121.746 115.521l-32.215.015c-75.063.037-149.235.073-160.787.073-17.749 0-19.397-13.097-21.156-27.081-.559-4.441-1.129-8.971-2.23-13.199l-18.819-71.697H17.112c-4.677 0-8.946-1.928-12.064-5.007v-.037l-.037.037C1.931 185.959 0 181.693 0 176.983v-15.541c0-4.711 1.93-8.976 5.011-12.092.223-.223.483-.482.742-.668a16.86 16.86 0 0111.322-4.339c29.78 0 58.112-.002 85.734-.004v18.623H31.551c-1.484.371-2.97.334-4.38 0h-8.537v12.463h84.175v59.358c0 24.822 20.122 44.944 44.944 44.944h38.764c24.822 0 44.944-20.122 44.944-44.944v-59.358h224.661v-12.463H231.461v-18.639c64.334-.009 131.212-.017 210.37-.017V52.321c-5.419-26.594-20.787-33.827-41.314-30.897 9.243 16.098 8.055 32.455-5.048 49.145 1.671 2.708 1.522 5.675-.297 8.828l-4.083 4.71c-1.633 1.67-3.675 1.818-6.31-.296l-62.732-63.314c-1.707-2.04-1.373-3.82.631-5.378l.285-.35c4.197-5.142 4.898-6 12.633-4.694C353.19-1.35 369.931-3.39 385.707 5.66c39.606-16.246 73.31 4.154 77.876 45.695v94.062c2.339.853 4.417 2.226 6.125 3.932a17.098 17.098 0 015.011 12.092v15.541c0 4.71-1.93 8.976-5.011 12.091a17.101 17.101 0 01-12.064 5.007h-15.887z" fill="#FA8C16"/><path d="M367.37 82.81l-.223-.297c-1.151-1.67-3.452-2.04-5.085-.89l-28.211 19.732c-1.67 1.15-2.041 3.449-.891 5.081l.223.297c1.151 1.669 3.452 2.04 5.085.89l28.211-19.732c1.633-1.15 2.042-3.45.891-5.082zm-158.381 61.516l-83.708.011v18.625h83.708v-18.636zm0 90.457v-59.358h-83.708v59.358c0 12.411 10.061 22.472 22.472 22.472h38.764c12.411 0 22.472-10.061 22.472-22.472zM331.624 52.024l.223.297c1.15 1.632.779 3.931-.891 5.081l-28.211 19.733c-1.633 1.15-3.934.778-5.085-.89l-.223-.297c-1.151-1.632-.779-3.932.891-5.082l28.211-19.732c1.633-1.15 3.934-.779 5.085.89zM315.626 36l-.223-.296c-1.151-1.669-3.452-2.04-5.085-.89l-28.211 19.732c-1.671 1.15-2.042 3.45-.891 5.082l.223.296c1.15 1.67 3.452 2.04 5.085.89l28.211-19.732c1.633-1.15 2.041-3.45.891-5.081zm32.182 31.788l.223.296c1.15 1.67.742 3.932-.854 5.082l-28.248 19.732c-1.633 1.15-3.935.779-5.085-.89l-.223-.297c-1.151-1.632-.779-3.931.891-5.081l28.211-19.733c1.633-1.15 3.934-.778 5.085.89z" fill="#FA8C16"/><path fill-rule="evenodd" clip-rule="evenodd" d="M500 312.359c0 61.434-49.802 111.236-111.236 111.236-61.434 0-111.236-49.802-111.236-111.236 0-61.433 49.802-111.235 111.236-111.235 61.434 0 111.236 49.802 111.236 111.235zm-19.702 0c0 50.553-40.981 91.534-91.534 91.534-50.553 0-91.534-40.981-91.534-91.534 0-50.552 40.981-91.533 91.534-91.533 50.553 0 91.534 40.981 91.534 91.533z" fill="#FA8C16"/><path d="M380 254c-5.523 0-10 4.477-10 10v26.5h-27c-5.523 0-10 4.477-10 10v19c0 5.523 4.477 10 10 10h27V356c0 5.523 4.477 10 10 10h19c5.523 0 10-4.477 10-10v-26.5h26c5.523 0 10-4.477 10-10v-19c0-5.523-4.477-10-10-10h-26V264c0-5.523-4.477-10-10-10h-19z" fill="#FA8C16"/></svg>