<svg width="500" height="466" fill="none" xmlns="http://www.w3.org/2000/svg"><path fill-rule="evenodd" clip-rule="evenodd" d="M450.818 438.891v18.226c0 4.719-3.825 8.503-8.504 8.503H55.349a8.5 8.5 0 01-8.504-8.503V239.629c-9.522 3.661-18.433 3.743-25.838 1.22-5.779-1.952-10.661-5.451-14.242-9.967-3.58-4.516-5.86-10.008-6.551-16.069-1.058-9.398 1.75-20.016 9.765-29.983.407-.489.855-.977 1.384-1.384l232.138-181.2c3.011-2.766 7.65-3.05 10.986-.447l232.708 180.874c.366.285.692.57 1.017.936 10.783 11.595 13.469 24.45 10.865 35.313-1.302 5.37-3.866 10.211-7.406 14.157a32.042 32.042 0 01-13.184 8.909c-8.138 2.93-17.822 2.848-27.628-1.79v198.693h-.041zM22.634 196.221c-4.516 5.899-6.103 11.798-5.574 16.761.325 2.848 1.342 5.37 2.97 7.404 1.587 1.994 3.743 3.499 6.348 4.394 4.435 1.505 10.172 1.098 16.723-1.994L245.698 68.681a8.488 8.488 0 0110.376.041l196.819 152.966c.082.081.163.163.285.203 7.202 5.208 14.12 6.021 19.491 4.109 2.482-.895 4.638-2.359 6.307-4.271a15.444 15.444 0 003.54-6.754c1.343-5.614-.285-12.53-6.307-19.283l-226.93-176.4-226.645 176.93zm97.779 110.9h108.643c4.232 0 7.69 3.377 7.69 7.526v84.986c0 4.15-3.458 7.526-7.69 7.526H120.413c-4.232 0-7.691-3.376-7.691-7.526v-84.986c.041-4.149 3.459-7.526 7.691-7.526zm155.152-7.486h102.011c4.557 0 8.26 3.825 8.26 8.544v140.436h47.933V230.15c0-.57.041-1.099.163-1.627L250.785 86.175 63.569 228.604c.203.692.284 1.424.284 2.197v217.773h203.452V308.138c0-4.719 3.703-8.503 8.26-8.503zm93.75 17.046h-85.449v131.73h85.449v-131.73zm-147.949 47.965h-40.325v27.461h40.325v-27.461zm-55.38 0h-37.883v27.461h37.883v-27.461zm-37.883-15.052h37.883v-27.42h-37.883v27.42zm52.938 0h40.325v-27.42h-40.325v27.42zm66.651-201.785c14.445 0 26.164 11.716 26.164 26.158 0 14.443-11.719 26.159-26.164 26.159-14.445 0-26.164-11.716-26.164-26.159 0-14.483 11.719-26.158 26.164-26.158z" fill="#FA8C16"/></svg>