<svg width="500" height="724" fill="none" xmlns="http://www.w3.org/2000/svg"><path fill-rule="evenodd" clip-rule="evenodd" d="M468.834 309.409c17.432 1.59 31.166 16.365 31.166 34.202v42.032c0 17.837-13.793 32.613-31.166 34.202v84.593c0 26.726-10.916 51.038-28.465 68.699-17.549 17.601-41.789 28.551-68.494 28.551H96.901c-26.646 0-50.886-10.95-68.494-28.551C10.917 555.476 0 531.164 0 504.438V224.816c0-26.726 10.917-51.038 28.466-68.699 17.549-17.601 41.789-28.551 68.494-28.551h6.925V24.253C103.885 10.89 114.744 0 128.067 0H338.89c13.323 0 24.181 10.95 24.181 24.253v103.313h8.862c26.647 0 50.887 10.95 68.494 28.551 17.549 17.602 28.466 41.914 28.466 68.699v84.593h-.059zm-229.898-4.356c14.732-15.424 25.062-28.728 47.717-31.318 42.611-4.886 81.817 38.853 60.277 81.944-6.104 12.245-18.605 26.844-32.398 41.149-15.142 15.717-31.87 31.141-43.608 42.797l-31.988 31.847-26.411-25.549c-31.811-30.729-83.695-69.405-85.397-117.323-1.174-33.555 25.237-55.041 55.581-54.688 27.116.353 38.502 13.893 56.227 31.141zM128.771 191.497h211.292c36.037 0 65.501 29.552 65.501 65.696v214.868c0 36.145-29.464 65.696-65.501 65.696H128.771c-36.037 0-65.5-29.551-65.5-65.696V257.193c0-36.144 29.463-65.696 65.5-65.696zm243.162-40.501H96.96c-20.19 0-38.62 8.3-51.943 21.663s-21.599 31.848-21.599 52.098v279.622c0 20.251 8.276 38.735 21.599 52.098s31.753 21.664 51.943 21.664h274.973c20.19 0 38.62-8.301 51.943-21.664 13.323-13.363 21.599-31.847 21.599-52.098V224.757c0-20.25-8.276-38.735-21.599-52.098-13.382-13.304-31.753-21.663-51.943-21.663zm-8.862 450.633v97.485c0 13.363-10.917 24.253-24.181 24.253H128.067c-13.323 0-24.182-10.89-24.182-24.253v-97.485h259.186z" fill="#FA8C16"/></svg>