<svg width="500" height="425" fill="none" xmlns="http://www.w3.org/2000/svg"><path fill-rule="evenodd" clip-rule="evenodd" d="M406.525 254.457c8.769 37.608 43.34 64.97 43.34 87.158 0 53.736-78.393 56.339-86.031 7.789a35.262 35.262 0 01-16.798-5.533 27.937 27.937 0 01-9.251-10.191 31.82 31.82 0 01-3.617-13.389c-.493-9.203 2.452-19.573 8.959-29.449l3.685-5.443c7.29-10.696 15.6-22.873 18.814-36.834a3.219 3.219 0 013.136-2.514 3.219 3.219 0 013.135 2.514c3.282 13.883 11.58 26.06 18.871 36.778l1.489 2.244c6.081-10.1 11.49-21.009 14.268-33.063v-.067zm-43.296 88.415v-1.257c0-13.76 13.159-29.337 25.299-48.113l-3.08-4.546c-5.857-8.608-12.319-18.136-16.63-28.955-4.267 10.886-10.774 20.415-16.642 29.034l-3.64 5.376c-5.767 8.686-8.365 17.676-7.951 25.555a25.371 25.371 0 002.856 10.684 21.583 21.583 0 007.133 7.856 28.566 28.566 0 0012.655 4.366zm16.888-7.598a4.412 4.412 0 011-3.216 4.389 4.389 0 017.747 2.419 42.482 42.482 0 004.267 15.892 28.022 28.022 0 0010.975 11.29 4.41 4.41 0 01-1.147 8.063 4.382 4.382 0 01-3.333-.476 36.642 36.642 0 01-14.245-14.77 51.485 51.485 0 01-5.23-19.202h-.034z" fill="#FA8C16"/><path d="M441.757 194.677l-1.647 7.676c-15.605-7.257-33.002-11.308-51.346-11.308-65.186 0-118.422 51.161-121.746 115.52l-32.215.016c-75.063.036-149.235.073-160.787.073-17.749 0-19.397-13.098-21.156-27.081-.559-4.441-1.129-8.971-2.23-13.2l-18.819-71.696H17.112c-4.677 0-8.946-1.929-12.064-5.007v-.038l-.037.038C1.931 186.554 0 182.288 0 177.578v-15.541c0-4.711 1.93-8.976 5.011-12.092.223-.222.483-.482.742-.667a16.856 16.856 0 0111.322-4.34c29.78 0 58.112-.001 85.734-.004v18.624H31.551c-1.484.371-2.97.334-4.38 0h-8.537v12.462h84.175v59.359c0 24.821 20.122 44.943 44.944 44.943h38.764c24.822 0 44.944-20.122 44.944-44.943V176.02h224.661v-12.462H231.461v-18.64c64.334-.008 131.212-.017 210.37-.017V52.916c-5.419-26.594-20.787-33.826-41.314-30.896 9.243 16.097 8.055 32.454-5.048 49.145 1.671 2.707 1.522 5.675-.297 8.827l-4.083 4.71c-1.633 1.67-3.675 1.818-6.31-.296l-62.732-63.314c-1.707-2.04-1.373-3.82.631-5.378l.285-.349c4.197-5.142 4.898-6.001 12.633-4.695C353.19-.754 369.931-2.794 385.707 6.256c39.606-16.246 73.31 4.154 77.876 45.696v94.062a16.875 16.875 0 016.125 3.931 17.098 17.098 0 015.011 12.092v15.541c0 4.71-1.93 8.976-5.011 12.092-3.081 3.078-7.387 5.007-12.064 5.007h-15.887z" fill="#FA8C16"/><path d="M367.37 83.405l-.223-.297c-1.151-1.669-3.452-2.04-5.085-.89l-28.211 19.732c-1.67 1.15-2.041 3.45-.891 5.082l.223.296c1.151 1.669 3.452 2.04 5.085.89l28.211-19.732c1.633-1.15 2.042-3.45.891-5.081zm-158.381 61.517l-83.708.01v18.626h83.708v-18.636zm0 90.457V176.02h-83.708v59.359c0 12.411 10.061 22.472 22.472 22.472h38.764c12.411 0 22.472-10.061 22.472-22.472zM331.624 52.62l.223.296c1.15 1.632.779 3.932-.891 5.082L302.745 77.73c-1.633 1.15-3.935.779-5.085-.89l-.223-.297c-1.151-1.632-.779-3.932.891-5.081l28.211-19.733c1.633-1.15 3.934-.779 5.085.89zm-15.998-16.024l-.223-.296c-1.151-1.67-3.452-2.04-5.085-.89l-28.211 19.732c-1.671 1.15-2.042 3.45-.891 5.081l.223.297c1.15 1.669 3.452 2.04 5.085.89l28.211-19.732c1.633-1.15 2.041-3.45.891-5.082zm32.182 31.787l.223.297c1.15 1.669.742 3.931-.854 5.081l-28.248 19.732c-1.633 1.15-3.934.78-5.085-.89l-.223-.296c-1.151-1.633-.779-3.932.891-5.082l28.211-19.732c1.633-1.15 3.934-.779 5.085.89z" fill="#FA8C16"/><path fill-rule="evenodd" clip-rule="evenodd" d="M500 312.955c0 61.434-49.802 111.236-111.236 111.236-61.434 0-111.236-49.802-111.236-111.236 0-61.434 49.802-111.236 111.236-111.236 61.434 0 111.236 49.802 111.236 111.236zm-19.702 0c0 50.553-40.981 91.534-91.534 91.534-50.553 0-91.534-40.981-91.534-91.534 0-50.553 40.981-91.534 91.534-91.534 50.553 0 91.534 40.981 91.534 91.534z" fill="#FA8C16"/></svg>