<svg width="500" height="424" fill="none" xmlns="http://www.w3.org/2000/svg"><path fill-rule="evenodd" clip-rule="evenodd" d="M390.233 255.574c-1.31.242-2.472.814-3.967 1.953-3.687 2.81-6.003 7.776-6.015 12.899-.011 5.21 1.68 9.599 6.954 18.042 4.433 7.097 5.7 10.505 5.463 14.696-.167 2.943-1.151 5.008-3.922 8.229-1.118 1.299-2.252 2.795-2.52 3.323-1.678 3.315 1.306 6.372 5.01 5.132 2.469-.827 5.822-4.615 7.715-8.718 1.362-2.952 1.873-5.469 1.857-9.144-.022-5.228-1.326-9.165-5.017-15.155-4.391-7.128-5.338-8.796-6.055-10.67-.966-2.522-1.237-3.772-1.245-5.735-.008-2.275.636-3.473 3.257-6.055 2.633-2.595 3.227-3.52 3.227-5.032 0-2.494-2.194-4.235-4.742-3.765zm16.455.796c-5.29 2.664-8.624 9.818-7.72 16.561.59 4.403 2.134 7.923 6.693 15.253 4.263 6.855 5.269 9.303 5.474 13.316.21 4.105-.469 5.906-3.708 9.833-2.325 2.819-2.715 3.588-2.715 5.354 0 1.043.13 1.407.762 2.132 1.959 2.249 5.13 1.579 8.166-1.725 4.524-4.924 6.665-11.465 5.81-17.75-.605-4.444-2.455-8.643-6.77-15.368-4.201-6.546-5.65-10.277-5.416-13.946.153-2.409 1.009-3.957 3.435-6.207 2.934-2.723 3.536-4.153 2.591-6.16-1.045-2.218-3.723-2.742-6.602-1.293zm19.494-.382c-1.606.701-3.961 2.591-5.118 4.106-2.525 3.307-3.5 6.666-3.289 11.322.233 5.132 1.548 8.483 6.472 16.505 5.25 8.553 6.447 11.992 5.693 16.36-.415 2.411-1.458 4.412-3.522 6.762-2.383 2.713-3.226 4.207-3.229 5.715-.002.97.139 1.349.769 2.073 1.975 2.267 5.368 1.566 8.407-1.737 4.139-4.499 6.275-10.206 5.98-15.977-.254-4.953-1.846-8.937-6.693-16.744-4.407-7.097-5.714-10.294-5.71-13.963.002-2.392.591-3.462 3.598-6.542 1.869-1.914 2.65-2.903 2.837-3.59.426-1.562-.186-3.083-1.641-4.079-1.088-.746-3.115-.84-4.554-.211zm-86.253 5.969c-2.832.906-5.771 3.182-7.387 5.72-2.269 3.564-2.282 8.719-.031 12.295.393.623 1.707 2.322 2.92 3.774 4.909 5.876 7.01 10.394 8.968 19.292.482 2.188 2.175 9.98 3.763 17.315 1.588 7.334 3.23 14.454 3.649 15.822 1.921 6.278 5.023 11.137 10.358 16.226 5.187 4.947 11.731 8.331 18.337 9.482 1.89.329 3.511.388 8.104.294 5.268-.108 6.246-.203 11.842-1.155 10.343-1.758 13.8-1.847 20.888-.534 3.232.598 5.235.63 7.205.113 4.112-1.08 7.686-4.563 8.751-8.53.332-1.233.409-2.217.315-4.016-.107-2.073-.241-2.632-1.028-4.301-2.771-5.882-8.887-8.288-21.89-8.612-6.477-.162-8.922.056-17.844 1.587-9.641 1.654-12.098 1.584-15.909-.454-2.619-1.4-4.813-4.344-5.783-7.758-.214-.755-1.23-5.164-2.257-9.8-3.28-14.803-5.619-24.969-6.281-27.299-2.647-9.317-8.009-18.671-14.441-25.191-2.589-2.625-3.866-3.471-6.365-4.218-1.598-.478-4.474-.503-5.884-.052zm3.93 8.61c2.632 1.372 7.692 7.918 10.515 13.603 3.105 6.253 3.507 7.679 8.276 29.317 2.143 9.726 4.165 18.465 4.493 19.419 1.313 3.817 4.795 8.29 8.33 10.702 5.089 3.472 10.412 4.491 17.132 3.281 11.951-2.152 17.817-2.882 21.469-2.669 3.3.193 8.923 1.003 10.823 1.559 1.941.569 3.033 1.711 3.031 3.168-.002 1.212-.625 2.379-1.544 2.893-.837.468-2.986.411-6.348-.168-3.904-.673-8.109-.872-11.329-.538-1.442.15-6.104.863-10.361 1.586-6.914 1.173-8.124 1.312-11.358 1.304-3.222-.008-3.942-.094-6.548-.782-5.429-1.433-9.815-3.976-13.476-7.812-3.42-3.585-5.617-7.445-6.896-12.12-.284-1.038-2.157-9.36-4.163-18.493-2.005-9.133-3.923-17.577-4.262-18.765-1.845-6.464-4.582-11.59-9.053-16.95-2.635-3.159-3.269-4.118-3.444-5.21-.42-2.604 2.349-4.557 4.713-3.325z" fill="#FA8C16"/><path d="M441.757 194.272l-1.647 7.677c-15.605-7.257-33.002-11.309-51.346-11.309-65.186 0-118.422 51.161-121.746 115.52l-32.215.016c-75.063.037-149.235.073-160.787.073-17.749 0-19.397-13.097-21.156-27.081-.559-4.441-1.129-8.971-2.23-13.2l-18.819-71.696H17.112c-4.677 0-8.946-1.929-12.064-5.007v-.037l-.037.037C1.931 186.149 0 181.884 0 177.173v-15.541c0-4.71 1.93-8.976 5.011-12.091.223-.223.483-.482.742-.668a16.86 16.86 0 0111.322-4.339c29.78 0 58.112-.002 85.734-.004v18.623H31.551c-1.484.371-2.97.334-4.38 0h-8.537v12.463h84.175v59.358c0 24.822 20.122 44.944 44.944 44.944h38.764c24.822 0 44.944-20.122 44.944-44.944v-59.358h224.661v-12.463H231.461v-18.639c64.334-.009 131.212-.017 210.37-.017V52.512c-5.419-26.594-20.787-33.827-41.314-30.897 9.243 16.097 8.055 32.454-5.048 49.145 1.671 2.708 1.522 5.675-.297 8.828l-4.083 4.71c-1.633 1.67-3.675 1.818-6.31-.296l-62.732-63.314c-1.707-2.04-1.373-3.82.631-5.378l.285-.35c4.197-5.142 4.898-6 12.633-4.695 17.594-11.424 34.335-13.464 50.111-4.413 39.606-16.246 73.31 4.154 77.876 45.695v94.062c2.339.853 4.417 2.226 6.125 3.932a17.096 17.096 0 015.011 12.091v15.541c0 4.711-1.93 8.976-5.011 12.092-3.081 3.078-7.387 5.007-12.064 5.007h-15.887z" fill="#FA8C16"/><path d="M367.37 83l-.223-.297c-1.151-1.669-3.452-2.04-5.085-.89l-28.211 19.733c-1.67 1.149-2.041 3.449-.891 5.081l.223.297c1.151 1.669 3.452 2.04 5.085.89l28.211-19.732c1.633-1.15 2.042-3.45.891-5.082zm-158.381 61.517c-27.901.004-55.533.008-83.708.01v18.626h83.708v-18.636zm0 90.457v-59.358h-83.708v59.358c0 12.411 10.061 22.472 22.472 22.472h38.764c12.411 0 22.472-10.061 22.472-22.472zM331.624 52.215l.223.297c1.15 1.632.779 3.931-.891 5.081l-28.211 19.732c-1.633 1.15-3.935.78-5.085-.89l-.223-.297c-1.151-1.632-.779-3.931.891-5.081l28.211-19.732c1.633-1.15 3.934-.78 5.085.89zm-15.998-16.023l-.223-.297c-1.151-1.67-3.452-2.04-5.085-.89l-28.211 19.732c-1.671 1.15-2.042 3.45-.891 5.081l.223.297c1.15 1.67 3.452 2.04 5.085.89l28.211-19.732c1.633-1.15 2.041-3.45.891-5.081zm32.182 31.786l.223.297c1.15 1.67.742 3.932-.854 5.082l-28.248 19.732c-1.633 1.15-3.934.779-5.085-.89l-.223-.297c-1.151-1.632-.779-3.932.891-5.082l28.211-19.732c1.633-1.15 3.934-.779 5.085.89z" fill="#FA8C16"/><path fill-rule="evenodd" clip-rule="evenodd" d="M500 312.55c0 61.434-49.802 111.236-111.236 111.236-61.434 0-111.236-49.802-111.236-111.236 0-61.434 49.802-111.236 111.236-111.236C450.198 201.314 500 251.116 500 312.55zm-19.702 0c0 50.553-40.981 91.534-91.534 91.534-50.553 0-91.534-40.981-91.534-91.534 0-50.552 40.981-91.534 91.534-91.534 50.553 0 91.534 40.982 91.534 91.534z" fill="#FA8C16"/></svg>