<svg width="500" height="560" fill="none" xmlns="http://www.w3.org/2000/svg"><path fill-rule="evenodd" clip-rule="evenodd" d="M114.059 412.234c44.356 43.003 88.941 67.03 133.89 68.395 45.04 1.365 91.037-20.113 138.174-68.122-6.838-1.592-14.132-3.14-21.836-4.687v.046l-1.094-.228c-13.494-2.685-38.157-7.645-53.702-17.064-8.844-5.37-13.858-10.603-13.721-17.793-11.671 6.962-23.934 11.422-36.516 13.197-19.192 2.73-38.886-.865-58.215-11.377.958 8.055-3.51 13.697-12.08 18.885-13.312 8.055-34.692 11.558-50.328 14.107-3.647.591-6.975 1.137-10.166 1.774a278.98 278.98 0 00-14.406 2.867zm59.446-294.011c30.133 52.514 88.257 87.598 196.252 91.603 3.146 9.146 2.143 18.748 0 28.395-44.31 151.079-157.822 193.717-236.278 39.59l-11.761-31.49c-24.025-49.009 20.742-29.032 37.108-63.753l6.883-30.17 7.796-34.175zm212.618 148.894c41.302-160.088.365-227.8-74.899-240.587C295.222 9.056 265.408 1.138 244.347 0 62.454 9.192 54.157 202.636 99.699 330.051l44.676-9.829c13.174 19.021 27.033 33.72 41.21 44.368l.456.728c4.65 7.645 1.869 12.833-4.194 16.473-10.986 6.689-30.908 9.92-45.496 12.287-4.148.682-7.932 1.274-10.576 1.82C78 405.226 46.772 416.33 27.033 439.583 7.385 462.745 0 497.011 0 552.391a6.774 6.774 0 006.792 6.781h486.416a6.774 6.774 0 006.792-6.781c0-56.882-7.795-91.102-28.72-114.082-20.833-22.889-53.793-33.629-104.395-43.776v-.046l-1.094-.227c-12.718-2.549-35.968-7.19-49.37-15.29-6.839-4.141-10.713-9.329-7.067-15.7a139.036 139.036 0 0011.762-10.511c19.83-19.659 37.245-47.599 50.693-82.456l14.314-3.186zm18.098 150.032c-52.744 56.199-104.941 81.273-156.728 79.726-51.787-1.548-102.389-29.761-151.942-80.09-26.623 7.372-45.45 16.746-58.078 31.581-16.549 19.476-23.25 49.237-23.797 97.199H486.37c-.592-49.191-7.567-78.861-25.118-98.155-12.628-13.925-31.182-22.889-57.03-30.261z" fill="#FA8C16"/></svg>