<svg width="500" height="350" fill="none" xmlns="http://www.w3.org/2000/svg"><path fill-rule="evenodd" clip-rule="evenodd" d="M39.078 349.282V199.933c-7.947 3.056-15.377 3.125-21.553 1.021-4.822-1.632-8.895-4.553-11.878-8.317-2.99-3.768-4.89-8.354-5.469-13.407-.883-7.841 1.461-16.7 8.147-25.017.337-.403.712-.813 1.155-1.155L203.157 1.873c2.511-2.307 6.385-2.543 9.164-.374l117.574 91.402c-18.787 8.13-34.697 21.342-44.21 39.673-34.196-27.396-69.279-55.086-76.416-60.64-15.58 11.849-151.18 116.256-151.18 120.662v156.751l-19.01-.065zm297.099-56.169c12.085 35.563 62.574 36.861 73.906 0 13.363 12.016 52.889 14.437 67.611 22.636 4.651 2.604 8.862 5.908 12.227 10.368 3.288 4.334 8.158 13.981 10.079 23.234H246.264c1.921-9.253 6.792-18.9 10.079-23.234 3.386-4.46 7.577-7.764 12.228-10.368 14.721-8.199 54.248-10.62 67.606-22.636zm-9.248-73.682c-2.54.106-4.44.623-5.762 1.51-.745.497-1.302 1.135-1.648 1.9-.395.851-.582 1.88-.541 3.056.101 3.475 1.92 8.016 5.452 13.261l.041.086 11.422 18.172c4.585 7.291 9.399 14.721 15.364 20.174 5.737 5.249 12.7 8.801 21.908 8.817 9.977.021 17.265-3.67 23.189-9.208 6.156-5.765 11.031-13.672 15.8-21.561l12.87-21.212c2.393-5.473 3.28-9.143 2.723-11.292-.33-1.281-1.734-1.9-4.155-2.022a18.03 18.03 0 00-1.566-.024c-.582.024-1.181.065-1.799.105-.35.021-.675 0-.989-.065-1.135.065-2.331-.02-3.532-.187l4.419-19.515c-32.711 5.168-57.178-19.141-91.772-4.85l2.498 23.002c-1.383.081-2.702.045-3.922-.147zm101.082-4.109c3.154.968 5.2 2.974 6.026 6.238.932 3.597-.085 8.675-3.137 15.612-.061.122-.122.253-.187.371l-13.029 21.456c-5.017 8.256-10.116 16.56-16.911 22.92-7.039 6.588-15.715 10.991-27.592 10.946-11.088-.02-19.425-4.256-26.265-10.51-6.604-6.047-11.662-13.859-16.48-21.501l-11.438-18.172c-4.171-6.234-6.364-11.935-6.486-16.602-.065-2.209.305-4.191 1.111-5.945.846-1.839 2.169-3.365 3.926-4.565a12.717 12.717 0 012.767-1.404c-.744-9.851-1.013-22.286-.537-32.67a45.031 45.031 0 011.404-7.389c2.913-10.429 10.246-18.832 19.308-24.614 5-3.182 10.469-5.595 16.19-7.206 3.618-1.029-3.096-12.638.663-13.009 18.152-1.855 47.498 14.706 60.177 28.418 6.34 6.877 10.323 15.959 11.19 27.999l-.7 29.627zm-189.84 5.09c-2.417 1.314-5.432.423-6.734-1.977-1.314-2.421-.423-5.437 1.994-6.731 11.426-6.201 16.748-14.217 17.818-22.062.574-4.183-.081-8.39-1.652-12.284-1.611-3.943-4.155-7.528-7.381-10.417-6.283-5.611-15.096-8.569-24.3-6.278-3.732.927-6.958 2.791-9.786 5.424-3.003 2.791-5.595 6.441-7.87 10.754a4.967 4.967 0 01-6.698 2.096 4.965 4.965 0 01-2.095-6.698c2.791-5.294 6.055-9.835 9.916-13.44 4.045-3.747 8.732-6.441 14.185-7.792 12.658-3.133 24.719.863 33.284 8.52 4.354 3.894 7.805 8.749 9.986 14.104 2.189 5.403 3.084 11.344 2.258 17.362-1.485 10.742-8.37 21.517-22.925 29.419zm-38.074 39.229c-18.819-25.288-19.279-49.243 3.573-71.504l-16.455-9.09c-13.18-5.123-37.358 32.67-28.015 42.769l12.821 19.019-2.645 5.517c-.728 1.636-.016 2.787 1.77 3.585l1.738.468-33.35 66.003 6.751 14.396 13.505-3.979 3.475-6.746-3.325-6.234 7.333-1.575 1.709-3.308-3.833-5.847 2.518-4.883 7.32-.928 2.381-4.622-4.09-5.343 2.617-5.062 7.458-1.216 10.165-19.393 1.721.94c2.974 1.819 4.517.647 4.858-2.967zm35.429 15.849l-4.968 18.539-6.897 2.726-1.445 5.4 5.03 4.268-1.31 4.919-6.816 2.405-1.396 5.188 4.883 4.789-.94 3.524-6.701 3.032 4.479 5.277-1.932 7.19-12.089 6.604-9.449-12.382 18.014-67.232-4.362-1.172a1.701 1.701 0 01-1.2-2.079l1.831-6.828c-13.208-10.018-19.751-27.348-15.206-44.336 5.843-21.826 27.885-35.01 49.727-30.103a16.052 16.052 0 01-.081 3.536c-.411 2.954-1.693 5.99-4.061 8.924-.322.394-.663.793-1.017 1.188a14.961 14.961 0 00-15.402 11.067 14.915 14.915 0 00.322 8.814c.232.972.602 1.916 1.094 2.836a11.454 11.454 0 004.818 4.74c1.298.863 2.759 1.506 4.334 1.949 7.837 2.092 15.869-2.417 18.204-10.123a48.822 48.822 0 006.202-6.576c3.438-4.431 5.79-9.135 7.19-13.92 9.476 10.221 13.647 24.943 9.769 39.421-4.545 16.988-18.908 28.739-35.335 30.798l-1.831 6.832a1.708 1.708 0 01-2.079 1.204l-1.38-.419zm82.736-263.432l58.276 2.377v69.299l-2.547-.033v.167c-3.577.004-7.17.175-10.746.509l-44.983-29.688V12.06z" fill="#FA8C16"/></svg>