<svg width="500" height="585" fill="none" xmlns="http://www.w3.org/2000/svg"><path fill-rule="evenodd" clip-rule="evenodd" d="M2.808 461.502c-7 27.253-.666 57.971 16.24 84.369 21.62-112.239 154.149-64.523 86.098 38.505 58.908-4.748 90.719-50.09 89.481-105.924-.572-26.303 0-40.594 4.143-52.559a62.384 62.384 0 017.952-15.24 54.468 54.468 0 01-4.333-20.986v-1.377a55.554 55.554 0 015.714-23.739l-35.382-34.327-9.81 12.962a252.649 252.649 0 01-31.716 31.478 89.12 89.12 0 01-21.858 9.828c-47.43 16.19-91.956 20.558-106.529 77.01zm276.965-99.705L70.24 158.4l-28.573-5.033a17.398 17.398 0 01-9.048-4.748L8.285 124.88a17.304 17.304 0 01-5.23-12.157 17.3 17.3 0 014.897-12.294l29.382-29.58a17.36 17.36 0 0112.238-5.043 17.36 17.36 0 0112.24 5.044l21.572 21.317a16.983 16.983 0 014.762 8.689l9.524 34.707 207.104 201.498 21.096-21.175a3.333 3.333 0 012.381-.998 3.331 3.331 0 012.382.998l13.762 13.578a3.32 3.32 0 011 2.137c.572 4.226.905 7.644 1.238 10.54.715 7.075 1.096 10.635 2.381 11.87 1.286 1.234 4.762 1.424 11.667 1.899 2.953 0 6.525.475 11.287.95a3.19 3.19 0 012.047.949L479.83 464.161a54.546 54.546 0 0117.922 26.83 54.391 54.391 0 01-.398 32.233 56.3 56.3 0 01-12.334 20.985 52.397 52.397 0 01-20.096 13.532c-17.858 6.599-40.192 3.133-61.288-18.09l-101.1-101.888a3.605 3.605 0 01-1-2.089c-.857-5.745-1.381-10.398-1.81-14.244-.904-7.644-1.381-11.632-2.904-13.104-1.524-1.472-6.001-1.757-14.954-2.041-3.095 0-6.714 0-10.952-.428a3.34 3.34 0 01-2.191-.949l-13.524-13.342a3.36 3.36 0 010-4.748l24.62-24.783-.048-.238zm54.955 69.509a8.336 8.336 0 010-11.87 8.49 8.49 0 0111.953 0l91.432 92.393a8.41 8.41 0 01.048 11.917 8.466 8.466 0 01-11.953.048l-91.48-92.488zm25.144-25.354a8.395 8.395 0 01-.071-11.893 8.452 8.452 0 0111.929-.071l91.67 92.488a8.401 8.401 0 012.507 5.932 8.397 8.397 0 01-2.435 5.961 8.459 8.459 0 01-9.182 1.878 8.448 8.448 0 01-2.747-1.807l-91.671-92.488zm-40.811-142.15l28.287-36.891c34.049-46.101 122.815-18.991 144.577-103.265 6.953-27.063.619-57.734-16.143-84.18C454.162 151.705 321.68 103.99 389.73.961c-58.907 4.748-90.718 50.09-89.48 105.925.572 24.499 7.477 44.487-15.81 75.538l-27.287 36.131 50.002 48.57a54.782 54.782 0 0111.906-3.323z" fill="#FA8C16"/></svg>