<svg width="500" height="593" fill="none" xmlns="http://www.w3.org/2000/svg"><path fill-rule="evenodd" clip-rule="evenodd" d="M312.785 36.65C350.664 198.152 500 315.651 500 410.933c0 230.758-338.631 241.939-371.624 33.447a152.905 152.905 0 01-72.564-23.76 120.212 120.212 0 01-39.958-43.761A135.994 135.994 0 01.229 319.363c-2.129-39.52 10.594-84.053 38.7-126.464l15.916-23.375c31.493-45.93 67.388-98.221 81.272-158.176a13.824 13.824 0 014.872-7.765 13.914 13.914 0 018.673-3.03c3.152 0 6.211 1.068 8.673 3.03a13.824 13.824 0 014.872 7.765c14.174 59.617 50.021 111.909 81.513 157.935l6.434 9.639c26.268-43.375 49.634-90.22 61.631-141.982v-.29zM125.764 416.331v-5.398c0-59.087 56.842-125.982 109.281-206.612l-13.303-19.519c-25.301-36.966-53.214-77.883-71.838-124.343-18.432 46.749-46.538 87.667-71.887 124.68l-15.722 23.086c-24.914 37.303-36.137 75.907-34.347 109.74a108.465 108.465 0 0012.336 45.882 92.9 92.9 0 0030.815 33.736 123.815 123.815 0 0054.665 18.748zm72.951-32.628a18.846 18.846 0 014.319-13.809 18.99 18.99 0 0112.854-6.722 19.017 19.017 0 0113.861 4.302 18.875 18.875 0 016.747 12.807 181.653 181.653 0 0018.432 68.244 120.692 120.692 0 0047.408 48.484 18.99 18.99 0 015.521 4.929 18.864 18.864 0 011.155 21 18.96 18.96 0 01-4.947 5.501 19.058 19.058 0 01-21.079 1.15c-26.157-14.871-47.505-36.875-61.534-63.424a220.088 220.088 0 01-22.592-82.462h-.145z" fill="#FA8C16"/></svg>