<svg width="508" height="513" fill="none" xmlns="http://www.w3.org/2000/svg"><path d="M123.446 250.361c15.068 27.157 32.416 53.254 54.973 77.041 22.608 23.947 50.704 45.714 87.13 64.292 2.7 1.32 5.269 1.32 7.549.42 3.46-1.33 6.989-4.179 10.469-7.669 2.7-2.69 6.039-6.989 9.559-11.699 13.988-18.437 31.336-41.285 55.803-29.856.54.25.95.53 1.49.78l81.651 46.954c.22.12.53.42.769.53 10.779 7.409 15.199 18.838 15.319 31.757 0 13.178-4.85 27.976-11.959 40.495-9.399 16.498-23.267 27.427-39.245 34.686-15.199 6.999-32.127 10.748-48.395 13.148-25.547 3.77-49.464 1.37-73.931-6.159-23.937-7.419-48.024-19.628-74.361-35.886l-1.95-1.25c-12.069-7.519-25.117-15.608-37.906-25.127-46.904-35.396-94.639-86.47-125.725-142.693C8.61 252.93-5.629 201.986 2.16 153.412c4.3-26.627 15.718-50.834 35.626-66.812 17.348-13.978 40.735-21.637 71.001-18.958 3.48.23 6.58 2.27 8.19 5.24L169.3 161.37c7.669 9.929 8.609 19.748 4.44 29.577-3.49 8.089-10.469 15.498-20.038 22.457-2.819 2.4-6.179 4.84-9.689 7.399-11.708 8.499-24.997 18.298-20.447 29.847l-.12-.29zm97.498-42.245c-8.079-2.08-12.938-10.349-10.848-18.428 2.089-8.079 10.348-12.939 18.427-10.849 24.508 6.389 47.555 19.658 66.203 37.066 18.757 17.518 33.306 39.405 40.655 62.872 2.48 7.99-1.98 16.489-9.959 18.968-7.979 2.49-16.488-1.97-18.968-9.949-5.749-18.367-17.328-35.685-32.356-49.724-15.148-14.148-33.676-24.877-53.154-29.956zm2.01-92.729c-8.249-1.4-13.788-9.239-12.388-17.488 1.389-8.24 9.238-13.789 17.477-12.389 46.205 8 90.07 31.456 125.236 64.373 35.186 32.916 61.813 75.401 73.521 121.445 2.06 8.119-2.849 16.378-10.969 18.438-8.119 2.06-16.378-2.85-18.437-10.969-10.299-40.475-33.746-77.88-64.743-106.877-30.926-28.947-69.372-49.544-109.697-56.533zm9.739-84.18c-8.309-.95-14.278-8.47-13.328-16.779.949-8.309 8.459-14.288 16.768-13.338 64.642 7.57 125.385 37.216 173.469 80.8 48.205 43.685 83.82 101.499 98.009 165.201 1.8 8.139-3.35 16.218-11.499 18.018-8.139 1.8-16.218-3.35-18.018-11.499-12.798-57.443-45.045-109.717-88.759-149.322-43.525-39.445-98.389-66.272-156.642-73.082z" fill="#fff"/></svg>