<svg width="500" height="545" fill="none" xmlns="http://www.w3.org/2000/svg"><path fill-rule="evenodd" clip-rule="evenodd" d="M453.009 0h29.292a17.9 17.9 0 0112.452 5.26A17.986 17.986 0 01500 17.74v509.39a17.986 17.986 0 01-5.247 12.481 17.902 17.902 0 01-12.452 5.26h-29.292a17.677 17.677 0 01-12.515-5.196 17.76 17.76 0 01-5.184-12.545v-8.982a17.615 17.615 0 01-3.452.311H299.002a18.914 18.914 0 01-13.288-5.544 19.006 19.006 0 01-5.562-13.306v-76.353H172.035l-28.761-1.641a104.937 104.937 0 01-28.849-9.492 106.801 106.801 0 01-28.186-20.668H14.348C6.424 391.456 0 385.032 0 377.108s6.424-14.348 14.348-14.348h62.643c19.204 0 19.867.577 23.23 6.298a40.847 40.847 0 0011.46 11.931 80.715 80.715 0 0049.204 16.987h146.726a17.671 17.671 0 009.419-2.753 17.726 17.726 0 006.51-7.359 18.171 18.171 0 00-1.549-16.766c-5.752-8.294-13.274-7.54-21.681-7.54h-4.646a3.889 3.889 0 01-2.569-1.217 3.909 3.909 0 01-1.06-2.641v-18.185c0-1.016.4-1.99 1.112-2.713a3.85 3.85 0 012.694-1.146h50c21.593 0 21.46-34.683 0-34.683h-50.177a3.887 3.887 0 01-2.651-1.126 3.912 3.912 0 01-1.155-2.644v-18.806a3.82 3.82 0 011.13-2.668 3.803 3.803 0 012.676-1.102h80.442c21.239 0 21.505-34.684 0-34.684h-80.575a3.8 3.8 0 01-2.691-1.117 3.82 3.82 0 01-1.114-2.697v-18.406c.023-1 .432-1.953 1.142-2.656a3.846 3.846 0 012.663-1.114h49.602c21.681 0 21.637-34.506 0-34.506H230.752c-6.017-.4-53.363 1.995-38.363-19.915a62.1 62.1 0 015.62-8.028c2.522-3.104 5.265-6.298 8.009-9.402 5.929-6.609 12.566-13.617 15.221-16.189a40.628 40.628 0 009.336-14.903 16.887 16.887 0 001.593-7.229 17.101 17.101 0 00-3.512-10.394 17.034 17.034 0 00-9.098-6.105 21.159 21.159 0 00-5.399-.577 22.347 22.347 0 00-10.221 2.528c-9.203 4.17-19.38 16.455-26.549 23.862-19.778 19.826-57.035 57.259-78.053 86.177l-.708.887a44.768 44.768 0 01-29.424 11.488h-54.59C6.543 213.647 0 207.104 0 199.032c0-8.071 6.543-14.614 14.614-14.614h63.572c19.823-27.321 52.433-58.723 74.602-80.367 12.566-12.064 28.008-30.647 43.761-37.079a45.571 45.571 0 0118.009-3.68 44.767 44.767 0 0110.575 1.241 43.266 43.266 0 019.823 3.77 41.379 41.379 0 018.849 6.165 38.447 38.447 0 016.637 8.25 45.854 45.854 0 014.425 9.757 45.288 45.288 0 011.77 12.907 47.015 47.015 0 01-2.168 14.015 64.24 64.24 0 01-15.531 25.37l-6.062 6.032-3.761 4.08h6.283c1.484.096 2.961.274 4.425.533h40.329v-107.8a19.005 19.005 0 015.547-13.334 18.914 18.914 0 0113.303-5.56h132.724c1.157-.01 2.313.094 3.451.31V17.742c0-4.705 1.865-9.218 5.184-12.545A17.677 17.677 0 01452.876 0h.133zM345.042 411.681v19.648a23.935 23.935 0 006.985 16.86 23.824 23.824 0 0016.82 7.002h66.286V91.854h-68.749a23.822 23.822 0 00-16.82 7.002 23.936 23.936 0 00-6.985 16.86v39.917h2.554a39.754 39.754 0 0115.708 3.282 40.856 40.856 0 0113.274 9.359 42.095 42.095 0 018.85 13.838 44.454 44.454 0 013.097 16.055 45.85 45.85 0 01-1.77 12.464c-.531 1.907-4.026 5.544-2.035 5.544h1.902c44.602.221 56.859 64.444 15.841 82.451a65.795 65.795 0 01-15.708 3.282h-1.549a48.054 48.054 0 01.93 34.684 43.145 43.145 0 01-8.85 13.794 40.853 40.853 0 01-13.274 9.358 39.75 39.75 0 01-15.708 3.238h-3.761c3.245 7.927 3.363 15.538 3.055 25.07 0 8.936-.093 12.277-.182 23.629h.089z" fill="#FA8C16"/></svg>