<svg width="500" height="650" fill="none" xmlns="http://www.w3.org/2000/svg"><path d="M444.69 119.215c-11.096 0-21.435 3.278-30.093 8.993v-14.877c0-15.213-6.22-28.997-16.223-39-10.003-10.001-23.789-16.22-39.003-16.22h-.084a54.965 54.965 0 00-31.522 9.917v-12.02c0-15.212-6.22-28.997-16.223-38.999C301.707 7.091 287.837.872 272.707.872c-15.215 0-29 6.22-39.003 16.221-10.003 10.003-16.223 23.787-16.223 39V68.28c-8.827-5.967-19.502-9.582-30.934-9.582-15.214 0-29 6.22-39.003 16.222-10.003 10.002-16.223 23.786-16.223 39v262.321c-.672 4.539-1.093 9.161-1.093 13.784v15.465l-1.345-1.26c-9.498-8.91-18.745-18.239-22.275-21.685-23.536-23.535-48.922-28.578-69.012-22.19-9.078 2.858-16.98 7.985-23.116 14.793a55.521 55.521 0 00-12.86 24.627C-3.677 422.048 3.468 450.121 31.207 475l.42.42.084.084c32.699 32.948 123.061 138.431 176.27 159.612 65.818 26.224 198.377 16.306 247.887-33.788C483.188 573.675 500 535.516 500 493.575V174.436c0-15.213-6.22-28.998-16.223-39-10.003-10.002-23.873-16.221-39.087-16.221zm30.177 268.289c0 .84.084 1.681.084 2.605v103.466c0 35.217-14.038 67.156-36.818 90.186-42.197 42.698-164.922 50.346-220.821 28.157-47.576-18.911-143.655-129.69-167.78-154.064-.42-.421-.756-.841-1.26-1.261l-8.322 9.414 8.322-9.33c-20.09-17.819-25.638-36.73-22.192-51.103 1.261-5.211 3.699-9.833 6.977-13.532 3.278-3.614 7.481-6.388 12.188-7.9 11.937-3.783 27.74 0 43.71 16.053 3.615 3.614 13.366 13.364 22.865 22.274 8.91 8.405 18.156 16.389 24.124 19.835a12.55 12.55 0 006.893 2.102l9.919-4.875 2.942-49.422c0-92.455.672-183.398.672-276.105 0-8.237 3.363-15.802 8.826-21.265 5.464-5.463 12.945-8.825 21.267-8.825 8.238 0 15.803 3.362 21.267 8.825 5.464 5.463 8.826 12.944 8.826 21.265v179.951h25.974V56.093c0-8.237 3.362-15.802 8.826-21.265 5.464-5.463 12.945-8.825 21.267-8.825 8.237 0 15.803 3.362 21.266 8.825 5.464 5.463 8.827 12.944 8.827 21.265V293.87h26.562V113.33c0-8.237 3.362-15.801 8.826-21.265 5.464-5.463 13.029-8.825 21.267-8.825 8.237 0 15.803 3.362 21.266 8.825 5.464 5.464 8.827 13.028 8.827 21.265v180.54h25.133V174.436c0-8.237 3.362-15.802 8.826-21.265 5.464-5.463 13.029-8.825 21.267-8.825 8.237 0 15.803 3.362 21.266 8.825 5.464 5.463 8.827 13.028 8.827 21.265v213.068h.084z" fill="#FA8C16"/></svg>