<svg width="500" height="658" fill="none" xmlns="http://www.w3.org/2000/svg"><path fill-rule="evenodd" clip-rule="evenodd" d="M0 40.22v39.403h7.995c4.397 0 10.387-.48 13.31-1.064 6.655-1.333 15.761-10.27 17.216-16.898l1.102-5.023H276.69l5.573 3.727c7.723 5.165 11.307 13.087 11.312 25.004l.003 9.85h31.559l-.765-15.596c-.621-12.65-1.587-17.212-5.113-24.149-5.498-10.812-15.732-20.706-27.319-26.41l-9.024-4.44-121.661-.47-121.658-.47-1.052-4.788C35.945 7.047 26.366.818 10.743.818H0v39.403zm287.815 73.445c-19.206 6.894-34.472 20.281-42.502 37.272-3.97 8.402-8.743 31.42-6.898 33.267.492.492 7.755-1.013 16.137-3.348 40.295-11.215 74.155-10.315 120.857 3.21l3.929 1.138-.828-11.583c-1.679-23.49-16.378-44.784-38.453-55.705-10.856-5.372-13.61-6.019-28.03-6.58-12.441-.485-17.816.032-24.212 2.329zm5.761 76.011c-71.563 5.698-133.961 52.313-159.851 119.419-6.339 16.431-12.775 45.528-12.032 54.401l.494 5.899h373.941l-.466-11.492c-.655-16.173-7.466-41.647-15.902-59.475-34.352-72.591-107.048-115.053-186.184-108.752zM125.193 392.569c-2.522 3.852-2.562 4.74-.385 8.619l2.425 4.326h368.768l2.426-4.326c2.176-3.879 2.137-4.767-.385-8.619l-2.81-4.293H128.003l-2.81 4.293zm47.497 51.116c-9.48 20.243-10.534 27.497-4.884 33.591 10.895 11.752 30.645 5.518 30.645-9.673 0-5.339-14.917-39.925-17.219-39.925-.574 0-4.419 7.203-8.542 16.007zm85.285 0c-4.123 8.805-7.843 19.01-8.268 22.68-.674 5.828-.11 7.334 4.455 11.903 7.285 7.292 17.066 7.401 24.69.271 4.759-4.45 5.222-5.684 4.505-12.043-.761-6.756-14.679-38.818-16.85-38.818-.569 0-4.409 7.203-8.532 16.007zm85.304 0c-11.157 23.89-11.197 31.813-.185 37.513 11.645 6.029 25.927-1.31 25.927-13.319 0-5.32-14.948-40.201-17.226-40.201-.571 0-4.404 7.203-8.516 16.007zm84.813.853c-9.864 20.932-10.403 26.68-3.182 33.909 10.428 10.438 29.408 3.974 29.387-10.009-.006-5.129-12.766-36.145-16.34-39.722-1.089-1.09-4.391 4.204-9.865 15.822zm-295.687 57.43c-9.843 22.312-10.046 23.175-6.956 29.693 3.049 6.431 8.312 9.314 16.906 9.263 8.697-.052 16.734-7.609 16.734-15.735 0-3.644-16.386-40.049-18.028-40.049-.677 0-4.573 7.574-8.656 16.828zm85.353 0c-9.912 22.317-10.116 23.172-7.024 29.693 4.695 9.905 19.568 12.781 27.594 5.334 5.88-5.455 6.949-11.082 3.666-19.297-5.537-13.852-14.51-32.558-15.619-32.558-.628 0-4.505 7.574-8.617 16.828zm85.162 0c-9.745 21.928-10.32 24.518-6.765 30.542 7.141 12.102 26.622 11.269 31.847-1.359 1.074-2.599 1.443-6.441.818-8.539-2.215-7.441-16.002-37.472-17.203-37.472-.67 0-4.584 7.574-8.697 16.828zm86.252-2.462c-11.056 24.226-11.474 25.903-8.043 32.28 9.611 17.866 39.062 7.321 32.176-11.522-3.723-10.189-15.412-35.124-16.465-35.124-.61 0-4.061 6.465-7.668 14.366zm83.371 4.232c-8.888 19.686-9.478 22.19-6.565 27.89 4.389 8.592 15.407 11.872 25.074 7.462 5.092-2.321 9.756-11.691 8.285-16.642-2.178-7.337-15.966-37.308-17.163-37.308-.678 0-5.012 8.37-9.631 18.598zm-300.055 56.643c-4.662 9.832-8.479 20.033-8.479 22.668 0 9.765 10.62 18.158 20.601 16.283 6.853-1.286 13.841-9.303 13.841-15.875 0-4.204-13.129-36.086-16.337-39.673-.63-.703-4.961 6.766-9.626 16.597zm88.259-6.84c-13.497 28.48-14.084 32.031-6.667 40.34 4.108 4.604 5.868 5.362 12.435 5.362s8.327-.758 12.435-5.362c3.051-3.418 4.786-7.16 4.786-10.323 0-4.354-13.126-36.201-16.431-39.867-.682-.756-3.632 3.677-6.558 9.85zm86.219-2.151c-2.302 5.1-6.032 13.356-8.287 18.349-5.417 11.991-5.262 17.48.685 24.142 4.109 4.604 5.869 5.362 12.436 5.362s8.326-.758 12.435-5.362c3.104-3.477 4.786-7.148 4.786-10.445 0-4.374-13.029-35.61-16.619-39.844-.688-.811-3.133 2.699-5.436 7.798zm88.833-7.699c-4.417 7.258-15.936 36.128-15.936 39.939 0 3.083 1.768 6.871 4.786 10.251 4.109 4.604 5.868 5.362 12.435 5.362s8.327-.758 12.436-5.362c6.581-7.373 6.153-12.269-2.812-32.051-8.07-17.816-9.579-20.325-10.909-18.139zm-303.611 74.603c-9.606 20.719-10.211 23.826-5.963 30.654 6.05 9.727 18.113 11.456 26.65 3.82 7.674-6.863 7.159-13.339-2.723-34.234-4.377-9.256-8.479-16.828-9.116-16.828-.636 0-4.618 7.465-8.848 16.588zm85.04.24c-9.501 20.088-10.221 26.959-3.532 33.656 3.706 3.711 5.958 4.515 12.637 4.515 10.619 0 17.168-5.814 17.104-15.186-.041-5.988-14.572-39.813-17.104-39.813-.63 0-4.727 7.572-9.105 16.828zm85.608-.58c-9.612 20.46-10.324 24.11-6.042 30.994 8.85 14.227 32.039 8.831 31.928-7.429-.041-5.988-14.572-39.813-17.105-39.813-.629 0-4.58 7.312-8.781 16.248zm84.962.58c-9.501 20.088-10.221 26.959-3.533 33.656 3.707 3.711 5.959 4.515 12.637 4.515 10.648 0 17.19-5.823 17.062-15.186-.082-6.006-14.561-39.813-17.05-39.813-.637 0-4.739 7.572-9.116 16.828zm85.285 0c-9.341 19.749-10.187 26.995-3.892 33.297 4.843 4.848 13.554 6.691 19.966 4.227 5.939-2.284 11.44-11.192 10.39-16.831-1.035-5.554-15.815-37.521-17.349-37.521-.636 0-4.738 7.572-9.115 16.828z" fill="#FA8C16"/></svg>