<svg width="500" height="535" fill="none" xmlns="http://www.w3.org/2000/svg"><path fill-rule="evenodd" clip-rule="evenodd" d="M336.6 1.217c-4.394 1.994-6.937 7.233-5.868 12.094.258 1.175 1.512 3.289 2.786 4.699 2.565 2.837 4.151 3.309 15.623 4.64 25.681 2.981 52.175 14.053 73.249 30.613 7.125 5.598 20.931 19.75 26.293 26.953 16.099 21.624 25.754 45.547 28.74 71.212.562 4.821 1.174 10.045 1.362 11.608 1.184 9.829 14.869 12.237 19.973 3.515 1.538-2.628 1.636-7.532.358-17.978-3.704-30.292-17.238-62.194-36.374-85.739C434.956 28.645 394.648 6.282 351.17.931c-10.487-1.291-11.122-1.279-14.57.286zm2.162 42.67c-2.089.507-5.591 3.405-6.697 5.544-.552 1.066-1.002 3.385-1.001 5.152.004 5.741 3.845 9.8 10.019 10.588 25.664 3.276 46.434 13.144 63.301 30.073 7.63 7.658 11.155 12.117 16.563 20.953 6.861 11.21 12.23 27.173 13.9 41.321.433 3.681 1.252 7.677 1.819 8.881 1.536 3.265 4.502 5.062 8.856 5.366 4.138.289 6.998-1.118 9.692-4.768 1.964-2.664 1.766-11.44-.51-22.544-10.724-52.311-52.311-91.802-105.308-100-6.908-1.068-8.272-1.14-10.634-.567zm-198.876 22.28c-44.657 3.741-83.558 25.144-110.08 60.564C6.062 158.442-4.329 199.089 1.662 236.827c1.787 11.251 4.901 22.487 9.218 33.254 1.052 2.626 1.294 4.289.993 6.828-.355 2.997-.091 4.002 2.456 9.36 3.248 6.831 3.241 8.785-.036 10.478-1.115.577-2.617 2.014-3.335 3.192-2.118 3.471-1.697 6.872 1.786 14.427l3.099 6.72-1.782 4.448c-.98 2.447-2.22 6.303-2.754 8.569-1.285 5.446-1.252 16.061.069 22.058 1.375 6.241 6.013 15.801 10.122 20.864 14.643 18.04 40.51 23.652 61.41 13.323 13.004-6.427 22.781-18.523 26.62-32.934 1.739-6.527 1.874-17.233.301-23.804-4.114-17.178-17.687-31.598-34.677-36.842l-4.468-1.379-3.686-7.362c-4.158-8.307-6.055-10.031-10.771-9.788l-5.4.279-2.679.139-3.52-6.693c-2.435-4.632-4.188-7.125-5.69-8.096-5.26-3.398-11.87-30.003-11.879-47.806-.026-52.419 34.41-100 84.493-116.748 14.61-4.885 27.86-6.757 43.732-6.178 15.717.575 28.206 3.186 42.03 8.79 36.208 14.678 63.6 45.83 73.517 83.613 3.438 13.098 4.221 22.299 3.764 44.261-.864 41.586-6.838 76.504-19.295 112.773-5.434 15.823-5.932 17.712-5.932 22.49 0 5.232 1.437 9.683 4.629 14.336 4.968 7.245 16.794 15.337 25.863 17.698 9.279 2.416 20.655 1.995 28.844-1.067 4.867-1.82 10.808-7.354 13.253-12.345 1.849-3.774 4.264-14.406 6.779-29.846l1.164-7.137 2.205.357c1.761.286 2.554.011 3.93-1.365.947-.947 1.724-2.262 1.726-2.924.002-.66.61-7.31 1.35-14.777.964-9.704 1.15-13.946.651-14.876-.851-1.591-2.762-2.669-4.726-2.669-1.328 0-1.431-.246-1.056-2.51.228-1.38.418-5.296.422-8.701.007-6.061.041-6.191 1.591-6.191.871 0 2.378-.624 3.348-1.387l1.765-1.387v-15.911c0-17.586-.041-17.757-4.353-18.236l-2.009-.224-.432-8.366c-.239-4.601-.296-8.592-.128-8.867.167-.277 1.138-.502 2.157-.502 1.112 0 2.483-.672 3.43-1.678l1.577-1.678-1.833-14.218c-1.008-7.82-2.15-15.036-2.537-16.036-.762-1.967-2.527-2.832-5.386-2.638-1.608.11-1.895-.199-2.536-2.729-.397-1.57-1.791-6.008-3.096-9.863-1.764-5.206-2.155-7.081-1.52-7.293 1.508-.502 3.943-3.334 3.943-4.586 0-.668-1.148-3.467-2.552-6.22-2.958-5.801-4.732-6.928-8.265-5.256l-2.131 1.009-4.828-6.405c-6.983-9.265-17.99-19.607-27.713-26.036-4.461-2.951-8.33-5.462-8.598-5.582-.268-.12-2.274-2.477-4.458-5.238-5.118-6.469-16.061-17.698-22.514-23.101-11.313-9.473-28.228-19.414-42.228-24.818-19.36-7.473-45.283-11.303-65.21-9.633zm197.537 22.36c-1.105.493-2.894 1.836-3.975 2.984-1.602 1.702-2.019 2.814-2.249 5.999-.512 7.072 2.436 10.194 11.498 12.173 25.553 5.582 43.892 24.624 48.325 50.177.543 3.129 1.539 6.442 2.214 7.362 4.559 6.216 13.688 6.259 17.885.084 1.966-2.892 2.162-7.525.626-14.823-3.194-15.174-10.149-28.281-21.09-39.742-12.052-12.627-26.352-20.689-42.841-24.156-5.797-1.22-7.767-1.23-10.393-.059zM142.564 101.68c-36.213 2.552-69.675 22.322-89.667 52.978-12.986 19.914-21.433 49.997-16.058 57.192.744.995 2.46 2.705 3.813 3.8 4.825 3.904 13.509 2.956 17.814-1.945 2.174-2.475 2.795-4.298 4.44-13.019 5.858-31.067 29.868-58.112 60.239-67.855 8.604-2.761 14.818-3.852 24.107-4.234 43.6-1.795 81.564 27.561 91.494 70.75 3.728 16.211 1.374 60.63-4.817 90.919-3.034 14.843-8.994 32.154-14.783 42.937-6.971 12.984-13.826 21.764-32.398 41.495-6.756 7.178-14.422 15.67-17.035 18.871-15.946 19.535-26.152 41.758-32.831 71.482-1.53 6.81-3.449 14.04-4.265 16.068-4.917 12.213-16.756 22.423-29.895 25.781-5.515 1.409-15.716 1.401-21.093-.015-14.99-3.953-26.967-15.497-31.335-30.204-1.936-6.518-4.13-9.371-8.662-11.264-3.573-1.492-7.129-1.279-11.021.66-4.417 2.199-6.867 5.686-7.345 10.446-.293 2.929.058 4.825 1.92 10.351 7.613 22.597 26.347 39.999 49.747 46.206 5.812 1.542 8.066 1.783 17.075 1.824 11.38.051 17.334-1.044 26.976-4.967 11.48-4.669 24.171-14.847 31.221-25.04 6.939-10.033 8.551-14.522 14.782-41.185 4.626-19.794 13.688-38.531 25.732-53.207 2.115-2.577 9.521-10.709 16.459-18.071 15.67-16.628 20.691-22.604 27.554-32.795 18.579-27.587 28.622-63.246 32.053-113.804.899-13.251.936-36.911.067-42.807-4.897-33.209-21.777-61.101-48.621-80.334-15.717-11.262-38.161-19.482-56.583-20.724-3.13-.211-7.047-.48-8.705-.596-1.657-.117-6.327.021-10.379.306zm195.652 31.687c-4.806 1.755-7.155 5.068-7.155 10.096 0 4.937 2.283 8.17 7.701 10.906 3.699 1.868 5.878 4.389 8.349 9.657 2.626 5.599 4.937 7.384 10.022 7.739 3.076.215 4.125-.013 6.008-1.304 3.845-2.637 5.084-4.866 5.084-9.144 0-8.324-9.073-20.906-18.749-26-5.014-2.64-7.969-3.151-11.26-1.95zm-32.948 42.107c1.753 2.674 6.287 15.41 8.396 23.588 10.342 40.092 10.33 96.012-.037 157.872-2.777 16.57-5.491 22.111-12.816 26.162-3.115 1.721-4.242 1.97-8.922 1.967-6.542-.004-10.798-1.157-11.412-3.092-.272-.858-.064-1.778.539-2.38.863-.864 1.413-.855 4.542.074 8.956 2.658 16.1-.381 19.903-8.468 3.794-8.068 9.647-54.509 10.831-85.949 1.563-41.501-2.993-77.612-12.917-102.381-2.46-6.141-2.823-7.683-2-8.506.944-.943 2.914-.38 3.893 1.113zm-190.37 20.543c-8.039 1.17-13.749 2.907-15.975 4.86-4.226 3.71-4.572 9.902-.794 14.203 3.075 3.501 6.078 4.058 13.19 2.445 12.124-2.749 22.163-2.349 33.254 1.324 32.767 10.85 49.631 46.575 37.169 78.738-3.521 9.087-6.919 13.922-16.162 22.993l-8.619 8.46v3.656c0 4.38 1.848 7.605 5.37 9.374 5.346 2.684 9.747.803 18.999-8.12 25.256-24.36 32.078-61.036 17.161-92.266-11.761-24.62-33.526-40.983-60.279-45.316-6.646-1.077-17.233-1.236-23.314-.351zM85.865 328.734c7.485 14.658 13.761 27.609 13.948 28.779.724 4.53-.918 5.72-23.45 16.999-22.355 11.19-23.216 11.453-26.37 8.04-2.185-2.366-29.036-55.745-28.605-56.868.472-1.228 3.334-2.602 4.493-2.158.467.179 7.025 12.512 14.572 27.405 7.547 14.895 14.023 27.082 14.392 27.084 1.603.01 38.168-19.268 38.168-20.122 0-.512-5.723-12.225-12.716-26.029-6.995-13.803-12.939-25.632-13.21-26.285-.655-1.577 1.75-3.984 3.702-3.706 1.197.17 3.962 5.097 15.076 26.861z" fill="#FA8C16"/></svg>