<svg width="500" height="547" fill="none" xmlns="http://www.w3.org/2000/svg"><path fill-rule="evenodd" clip-rule="evenodd" d="M453.009.786h29.292a17.891 17.891 0 0112.452 5.266A18.015 18.015 0 01500 18.546v509.935a18.013 18.013 0 01-5.247 12.494 17.89 17.89 0 01-12.452 5.266h-29.292a17.667 17.667 0 01-12.515-5.202 17.788 17.788 0 01-5.184-12.558v-8.991c-1.138.216-2.294.32-3.452.31H299.002a18.906 18.906 0 01-13.288-5.549 19.037 19.037 0 01-5.562-13.321v-76.434H172.035l-28.761-1.643a104.859 104.859 0 01-28.849-9.502 106.814 106.814 0 01-28.186-20.69H14.363C6.431 392.661 0 386.23 0 378.298c0-7.933 6.43-14.364 14.363-14.364h62.628c19.204 0 19.867.577 23.23 6.305a40.881 40.881 0 0011.46 11.944 80.67 80.67 0 0049.204 17.005h146.726a17.657 17.657 0 009.419-2.756 17.741 17.741 0 006.51-7.367 18.206 18.206 0 00-1.549-16.784c-5.752-8.302-13.274-7.548-21.681-7.548h-4.646a3.89 3.89 0 01-2.569-1.218 3.917 3.917 0 01-1.06-2.645v-18.204c0-1.016.4-1.992 1.112-2.715a3.842 3.842 0 012.694-1.147h50c21.593 0 21.46-34.721 0-34.721h-50.177a3.888 3.888 0 01-2.651-1.127 3.915 3.915 0 01-1.155-2.647v-18.826a3.826 3.826 0 011.13-2.671 3.8 3.8 0 012.676-1.103h80.442c21.239 0 21.505-34.721 0-34.721h-80.575a3.8 3.8 0 01-2.691-1.118 3.827 3.827 0 01-1.114-2.7v-18.426a3.87 3.87 0 011.142-2.659 3.843 3.843 0 012.663-1.115h49.602c21.681 0 21.637-34.543 0-34.543H230.752c-6.017-.4-53.363 1.998-38.363-19.936a62.114 62.114 0 015.62-8.036c2.522-3.108 5.265-6.305 8.009-9.413 5.929-6.616 12.566-13.631 15.221-16.206a40.682 40.682 0 009.336-14.919 16.922 16.922 0 001.593-7.237 17.13 17.13 0 00-3.512-10.405 17.033 17.033 0 00-9.098-6.112 21.132 21.132 0 00-5.399-.577 22.327 22.327 0 00-10.221 2.531c-9.203 4.174-19.38 16.472-26.549 23.887-19.778 19.847-57.035 57.321-78.053 86.27l-.708.888a44.743 44.743 0 01-29.424 11.499H14.63c-8.08 0-14.63-6.55-14.63-14.63 0-8.079 6.55-14.629 14.63-14.629h63.556c19.823-27.351 52.433-58.786 74.602-80.453 12.566-12.077 28.008-30.68 43.761-37.119a45.528 45.528 0 0118.009-3.685 44.8 44.8 0 0110.575 1.243 43.24 43.24 0 019.823 3.774 41.372 41.372 0 018.849 6.172 38.477 38.477 0 016.637 8.258 45.929 45.929 0 014.425 9.768 45.382 45.382 0 011.77 12.921c-.01 4.76-.741 9.49-2.168 14.03a64.318 64.318 0 01-15.531 25.397l-6.062 6.038-3.761 4.085h6.283c1.484.096 2.961.274 4.425.533h40.329V48.45a19.035 19.035 0 015.547-13.35 18.904 18.904 0 0113.303-5.565h132.724c1.157-.01 2.313.094 3.451.311v-11.3c0-4.71 1.865-9.227 5.184-12.558A17.668 17.668 0 01452.876.786h.133zM345.042 412.907v19.67a23.972 23.972 0 006.985 16.877 23.807 23.807 0 0016.82 7.01h66.286V92.739h-68.749a23.809 23.809 0 00-16.82 7.009 23.973 23.973 0 00-6.985 16.878v39.96h2.554a39.688 39.688 0 0115.708 3.286 40.836 40.836 0 0113.274 9.368 42.139 42.139 0 018.85 13.853 44.545 44.545 0 013.097 16.073 45.942 45.942 0 01-1.77 12.476c-.531 1.909-4.026 5.55-2.035 5.55h1.902c44.602.222 56.859 64.513 15.841 82.54a65.8 65.8 0 01-15.708 3.285h-1.549a48.153 48.153 0 01.93 34.721 43.2 43.2 0 01-8.85 13.809 40.851 40.851 0 01-13.274 9.368 39.7 39.7 0 01-15.708 3.241h-3.761c3.245 7.936 3.363 15.555 3.055 25.097 0 8.946-.093 12.291-.182 23.654h.089z" fill="#FA8C16"/></svg>