<svg width="500" height="426" fill="none" xmlns="http://www.w3.org/2000/svg"><path d="M161.632 286.48c-13.473 2.763-27.393 3.088-40.703-10.725a50.398 50.398 0 01-10.342-17.42 50.32 50.32 0 01-2.641-20.076c34.556 40.096 76.641-9.466 25.642-35.181 24.625-11.7 47.906-.732 60.239 21.937 5.861 10.725 9.361 16.25 13.798 20.312a23.557 23.557 0 002.564 1.95 22.886 22.886 0 0110.623-12.634 20.395 20.395 0 019.24-2.194c9.036 0 20.351 5.363 22.142 14.544a4.514 4.514 0 011.261 0h6.553a4.466 4.466 0 011.059 0 15.887 15.887 0 019.305 4.102 15.835 15.835 0 014.9 8.898 4.813 4.813 0 012.035-.447h6.512a4.809 4.809 0 011.099 0 16.3 16.3 0 019.848 4.674 16.244 16.244 0 014.683 9.829h7.285c.352-.04.707-.04 1.059 0 10.745 1.666 15.019 8.734 16.647 17.225 19.7-3.047 41.353-14.95 62.355 6.581a50.346 50.346 0 0110.316 17.405 50.283 50.283 0 012.628 20.051c-34.679-40.056-76.805 9.466-25.765 35.344-21.246 10.034-41.394 3.331-54.5-13.203a83.894 83.894 0 01-6.634 13.934l-.936 1.503a7.173 7.173 0 013.72 2.556 7.143 7.143 0 011.449 4.269v38.553a7.109 7.109 0 01-2.086 4.987 7.133 7.133 0 01-4.996 2.082H207.503a7.087 7.087 0 01-5.008-2.071 7.06 7.06 0 01-2.074-4.998v-38.675c0-1.874.746-3.672 2.074-4.998a7.086 7.086 0 015.008-2.07l-35.533-57.972a62.595 62.595 0 01-7.082-12.187 34.018 34.018 0 01-3.094-11.457 40.374 40.374 0 010-4.428h-.162zm295.334 129.309a7.466 7.466 0 01-2.194 5.286 7.498 7.498 0 01-5.296 2.189H356.92v-21.247h78.718V213.478a8.933 8.933 0 010-1.463L250.728 76.45 62.074 212.218a7.46 7.46 0 01.245 1.91v187.889h94.469v21.45H48.48a7.464 7.464 0 01-5.281-2.192 7.43 7.43 0 01-2.168-5.283V221.806a33.19 33.19 0 01-22.67 1.056 26.539 26.539 0 01-12.496-8.734 27.358 27.358 0 01-5.74-14.097 35.604 35.604 0 011.62-14.002 35.661 35.661 0 016.928-12.283 6.694 6.694 0 011.221-1.178L244.338 2.919a7.497 7.497 0 019.646-.365l234.892 169.324c.317.249.617.521.895.812a33.576 33.576 0 018.746 14.257 33.539 33.539 0 01.779 16.699 28.422 28.422 0 01-6.449 12.45 28.496 28.496 0 01-11.623 7.863 31.274 31.274 0 01-24.218-1.585v193.537l-.04-.122zM207.869 302.852a3.163 3.163 0 01-.733-.447l-9.198-7.434c-4.07-3.372-8.955-7.353-12.211-10.116a17.681 17.681 0 00-7.367-3.656 7.261 7.261 0 00-4.07 0 4.353 4.353 0 00-2.239 2.275 14.238 14.238 0 00-.814 6.703 24.892 24.892 0 002.28 8.125 54.483 54.483 0 005.983 10.156c.118.142.227.291.325.447l35.818 53.625c.441.642.72 1.38.814 2.153a53.435 53.435 0 001.465 7.719h79.654a40.806 40.806 0 003.297-4.997v-.244l3.745-6.215a67.758 67.758 0 0011.356-31.485l-.407-16.25v-4.468c0-10.685.325-23.888-9.484-25.553h-6.146c0 3.047-.244 6.093-.407 9.059-.163 2.966-.326 5.2-.326 7.638 0 1.26-.501 2.469-1.394 3.36a4.766 4.766 0 01-6.735 0 4.747 4.747 0 01-1.395-3.36c0-2.438 0-5.282.367-8.125.651-10.035 1.383-21.572-6.676-22.994h-6.227a4.458 4.458 0 01-1.058 0c0 3.656 0 7.434-.407 11.05 0 2.64-.326 5.2-.326 7.637 0 1.261-.502 2.47-1.395 3.361a4.763 4.763 0 01-3.367 1.392c-1.263 0-2.474-.5-3.367-1.392a4.748 4.748 0 01-1.395-3.361c0-2.437 0-5.281.407-8.125.61-10.034 1.343-21.571-6.716-22.993h-6.227c-.42.042-.843.042-1.262 0v18.037c0 1.261-.502 2.47-1.395 3.361a4.767 4.767 0 01-6.735 0 4.747 4.747 0 01-1.394-3.361v-23.237c0-6.541-6.513-9.385-12.618-9.385a11.126 11.126 0 00-4.925 1.179c-4.07 2.153-7.611 8.124-7.611 16.737v51.959c0 1.261-.502 2.47-1.395 3.361a4.767 4.767 0 01-6.735 0 4.748 4.748 0 01-1.395-3.361v-8.775h.041zm0-16.859l-4.436-1.788a52.66 52.66 0 00-6.228-2.153l6.797 5.566 4.071 3.169v-4.794h-.204z" fill="#FA8C16"/></svg>