<svg width="500" height="210" fill="none" xmlns="http://www.w3.org/2000/svg"><path d="M500 0v32.575H218.295v177.259H0v-32.575h185.72V0H500z" fill="#FA8C16"/><path d="M322.505 164.56c-6.73 0-12.724-1.157-17.982-3.47-5.228-2.344-9.36-5.559-12.394-9.645-3.005-4.117-4.552-8.864-4.643-14.242h19.651c.12 2.253.856 4.236 2.208 5.949 1.382 1.682 3.215 2.989 5.499 3.921 2.283.931 4.852 1.397 7.706 1.397 2.975 0 5.604-.526 7.888-1.577 2.283-1.052 4.071-2.509 5.363-4.372 1.292-1.863 1.938-4.011 1.938-6.445 0-2.464-.691-4.642-2.073-6.535-1.352-1.923-3.305-3.425-5.859-4.507-2.524-1.082-5.529-1.623-9.014-1.623h-8.609v-14.332h8.609c2.944 0 5.543-.51 7.797-1.532 2.283-1.022 4.056-2.434 5.318-4.236 1.262-1.833 1.893-3.967 1.893-6.4 0-2.314-.556-4.342-1.668-6.085-1.081-1.772-2.614-3.155-4.597-4.146-1.953-.992-4.236-1.487-6.85-1.487-2.644 0-5.063.48-7.257 1.442-2.193.931-3.951 2.268-5.273 4.011-1.322 1.743-2.028 3.786-2.118 6.13h-18.704c.09-5.319 1.608-10.006 4.552-14.062 2.945-4.056 6.911-7.226 11.899-9.51 5.017-2.313 10.681-3.47 16.991-3.47 6.37 0 11.943 1.157 16.72 3.47 4.778 2.314 8.489 5.439 11.133 9.375 2.674 3.906 3.996 8.292 3.966 13.16.03 5.168-1.578 9.479-4.823 12.935-3.215 3.455-7.406 5.648-12.574 6.58v.721c6.79.871 11.958 3.23 15.504 7.076 3.575 3.816 5.348 8.593 5.318 14.332.03 5.258-1.487 9.93-4.552 14.017-3.035 4.086-7.226 7.301-12.574 9.644-5.349 2.344-11.478 3.516-18.389 3.516zm79.097-1.262V94.071h19.2v69.227h-19.2zm9.645-78.15c-2.854 0-5.303-.947-7.346-2.84-2.013-1.923-3.02-4.221-3.02-6.895 0-2.644 1.007-4.913 3.02-6.806 2.043-1.923 4.492-2.884 7.346-2.884s5.288.961 7.301 2.884c2.043 1.893 3.065 4.162 3.065 6.806 0 2.674-1.022 4.972-3.065 6.895-2.013 1.893-4.447 2.84-7.301 2.84zm44.134 38.128v40.022h-19.199V94.071h18.298v12.214h.811c1.532-4.026 4.101-7.211 7.707-9.555 3.606-2.373 7.977-3.56 13.115-3.56 4.808 0 8.999 1.052 12.575 3.155 3.575 2.103 6.354 5.108 8.337 9.014 1.983 3.876 2.975 8.503 2.975 13.881v44.078h-19.2v-40.653c.03-4.236-1.051-7.541-3.245-9.915-2.193-2.404-5.213-3.606-9.059-3.606-2.584 0-4.867.556-6.85 1.668-1.953 1.112-3.486 2.734-4.597 4.868-1.082 2.103-1.638 4.642-1.668 7.616z" fill="#FA8C16"/></svg>