<svg width="736" height="422" fill="none" xmlns="http://www.w3.org/2000/svg"><path d="M364.389 114.384c41.578 0 79.208 17.648 106.487 46.184 27.22 28.536 44.091 68.02 44.091 111.513 0 11.605-1.197 22.912-3.47 33.8h189.104c12.564 0 15.674 6.94 15.674 15.495s-3.11 15.494-15.674 15.494H42.415c-12.563 0-15.674-6.939-15.674-15.494s3.111-15.495 15.674-15.495h174.867a165.204 165.204 0 01-3.47-33.8c0-43.552 16.87-82.977 44.09-111.513 27.28-28.476 64.909-46.184 106.487-46.184zm14.897 306.838c-12.564 0-15.674-6.939-15.674-15.494s3.11-15.495 15.674-15.495h340.16c12.563 0 15.674 6.94 15.674 15.495s-3.111 15.494-15.674 15.494h-340.16zm-363.612 0C3.11 421.222 0 414.283 0 405.728s3.11-15.495 15.674-15.495h176.541c12.563 0 15.674 6.94 15.674 15.495s-3.111 15.494-15.674 15.494H15.674zM229.665 56.594c-4.666-8.077-1.914-18.366 6.162-23.033 8.076-4.666 18.366-1.914 23.032 6.162l21.657 37.51c4.666 8.076 1.914 18.366-6.162 23.032-8.076 4.667-18.366 1.915-23.032-6.162l-21.657-37.51zM350.989 16.93c0-9.332 7.597-16.93 16.93-16.93 9.333 0 16.93 7.598 16.93 16.93v43.313c0 9.333-7.597 16.93-16.93 16.93-9.333 0-16.93-7.538-16.93-16.93V16.93zm124.972 26.323c4.607-8.076 14.897-10.828 22.973-6.222 8.076 4.607 10.828 14.896 6.222 22.973l-21.657 37.51c-4.606 8.076-14.896 10.828-22.972 6.221-8.076-4.606-10.828-14.896-6.222-22.972l21.656-37.51zm95.061 85.249c8.076-4.666 18.366-1.914 23.033 6.162 4.666 8.077 1.914 18.366-6.162 23.033l-37.51 21.656c-8.076 4.666-18.366 1.914-23.032-6.162-4.667-8.076-1.915-18.366 6.161-23.032l37.51-21.657zm39.664 121.324c9.332 0 16.93 7.598 16.93 16.93 0 9.333-7.598 16.93-16.93 16.93h-43.313c-9.333 0-16.93-7.537-16.93-16.93 0-9.392 7.537-16.93 16.93-16.93h43.313zm-492.593 26.861c-9.333 0-16.93-7.598-16.93-16.93 0-9.333 7.597-16.93 16.93-16.93h43.313c9.332 0 16.93 7.537 16.93 16.93 0 9.392-7.598 16.93-16.93 16.93h-43.313zm26.323-125.033c-8.077-4.606-10.829-14.896-6.222-22.972 4.606-8.076 14.896-10.828 22.972-6.222l37.51 21.657c8.076 4.606 10.828 14.896 6.222 22.972-4.607 8.076-14.896 10.828-22.973 6.222l-37.509-21.657z" fill="#FA8C16"/></svg>