<svg width="500" height="437" fill="none" xmlns="http://www.w3.org/2000/svg"><path d="M386.7 200.907l.234.312c1.212 1.719.782 4.141-.938 5.352l-29.713 20.783c-1.721 1.212-4.144.821-5.356-.937l-.235-.313c-1.212-1.719-.821-4.141.938-5.352l29.713-20.783c1.721-1.211 4.145-.82 5.357.938z" fill="#FA8C16"/><path d="M449.175 393.502l16.108-75.085h16.733c4.926 0 9.461-2.031 12.706-5.274 3.245-3.281 5.278-7.774 5.278-12.735v-16.369c0-4.961-2.033-9.493-5.278-12.735-1.798-1.797-3.988-3.243-6.451-4.141v-99.072c-4.809-43.753-40.308-65.24-82.023-48.129-16.616-9.532-34.249-7.383-52.78 4.649-8.147-1.376-8.885-.471-13.305 4.945l-.301.368c-2.111 1.641-2.463 3.516-.664 5.665l66.072 66.685c2.776 2.227 4.926 2.071 6.647.313l4.3-4.962c1.916-3.32 2.072-6.446.313-9.297 13.801-17.58 15.052-34.808 5.317-51.763 21.62-3.086 37.806 4.532 43.514 32.542v96.884c-83.374 0-153.814.009-221.574.018v19.632h236.626v13.126H243.787v62.52c0 26.143-21.194 47.337-47.337 47.337h-40.829c-26.143 0-47.337-21.194-47.337-47.337v-62.52H19.626v-13.126h8.992c1.486.351 3.05.39 4.614 0h75.052v-19.615c-29.092.002-58.934.004-90.3.004A17.759 17.759 0 006.06 270.6c-.274.196-.547.469-.782.704C2.033 274.585 0 279.078 0 284.039v16.369c0 4.961 2.033 9.454 5.278 12.735l.04-.039v.039c3.283 3.243 7.78 5.274 12.705 5.274h15.482l19.822 75.515c1.16 4.453 1.76 9.225 2.348 13.902 1.853 14.728 3.589 28.523 22.283 28.523 12.167 0 90.289-.038 169.35-.077 80.982-.039 162.948-.079 176.025-.079 20.452 0 22.22-15.049 24.045-30.584.481-4.093.965-8.221 1.797-12.115z" fill="#FA8C16"/><path d="M220.118 266.012l-88.165.011v19.618h88.165v-19.629zm0 32.755v62.52c0 13.071-10.596 23.668-23.668 23.668h-40.829c-13.072 0-23.668-10.597-23.668-23.668v-62.52h88.165zm129.167-129.972l.234.312c1.212 1.719.821 4.141-.938 5.352l-29.713 20.783c-1.72 1.211-4.144.821-5.356-.937l-.235-.313c-1.212-1.719-.821-4.141.938-5.352l29.713-20.783c1.721-1.211 4.145-.82 5.357.938zM332.2 151.606l.234.312c1.212 1.719.782 4.141-.938 5.352l-29.713 20.783c-1.72 1.211-4.144.821-5.356-.937l-.235-.313c-1.212-1.719-.821-4.141.938-5.352l29.713-20.783c1.721-1.211 4.145-.82 5.357.938zm34.13 33.792l.235.312c1.212 1.758.782 4.141-.899 5.352l-29.752 20.783c-1.721 1.211-4.145.821-5.357-.937l-.234-.313c-1.212-1.719-.821-4.141.938-5.352l29.713-20.783c1.72-1.211 4.144-.82 5.356.938z" fill="#FA8C16"/><path fill-rule="evenodd" clip-rule="evenodd" d="M107.135 125.884h-2.02c0-16.55-6.19-31.015-18.548-43.373-12.358-12.358-26.823-18.548-43.373-18.548v-2.02c16.55 0 31.014-6.19 43.373-18.57C98.925 30.95 105.115 16.485 105.115 0h2.02c0 16.55 6.19 31.015 18.548 43.373 12.358 12.358 26.823 18.548 43.373 18.548v2.02c-16.55 0-31.015 6.19-43.373 18.548-12.358 12.38-18.548 26.845-18.548 43.395zm-36.793 75.778h-.933c0-7.58-2.846-14.226-8.514-19.895-5.669-5.669-12.315-8.514-19.895-8.514v-.934c7.58 0 14.226-2.845 19.895-8.514 5.668-5.69 8.514-12.314 8.514-19.873h.933c0 7.58 2.846 14.226 8.514 19.895 5.669 5.669 12.293 8.514 19.895 8.514v.934c-7.58 0-14.226 2.845-19.895 8.514-5.69 5.647-8.513 12.293-8.513 19.873zm119.151 5.907h-.934c0-7.58-2.845-14.226-8.513-19.894-5.669-5.669-12.293-8.514-19.895-8.514v-.934c7.58 0 14.226-2.845 19.895-8.514 5.668-5.69 8.513-12.315 8.513-19.873h.934c0 7.58 2.846 14.226 8.514 19.895 5.669 5.668 12.293 8.514 19.895 8.514v.933c-7.58 0-14.226 2.846-19.895 8.514-5.69 5.647-8.514 12.272-8.514 19.873zm66.417-67.329h-1.694c0-13.878-5.191-26.019-15.572-36.401-10.382-10.382-22.501-15.573-36.402-15.573v-1.694c13.879 0 26.02-5.19 36.402-15.594 10.381-10.403 15.572-22.544 15.572-36.38h1.694c0 13.879 5.191 26.02 15.573 36.402 10.382 10.381 22.501 15.572 36.401 15.572v1.694c-13.878 0-26.019 5.191-36.401 15.573-10.382 10.382-15.573 22.523-15.573 36.401z" fill="#FA8C16"/></svg>