<svg width="239" height="100" fill="none" xmlns="http://www.w3.org/2000/svg"><path d="M7.105 44.461c.1.054.197.116.287.187C16.797 33.37 20.29 32.703 22.779 18.887 19.142 27.079 8.963 33.808 7.105 44.46zm.287 6.457a34.671 34.671 0 00-.574 16.743 33 33 0 009.555 16.83 35.868 35.868 0 0011.945 7.554 35.468 35.468 0 0019.785 1.643 32.684 32.684 0 0017.181-9.434 33.588 33.588 0 006.988-11.205 38.802 38.802 0 002.582-15.933 36.048 36.048 0 00-4.182-15.137 33.982 33.982 0 00-17.77-15.71 2.8 2.8 0 012.016-5.223 39.564 39.564 0 0120.69 18.329 41.61 41.61 0 014.813 17.454 44.53 44.53 0 01-2.941 18.214 39.048 39.048 0 01-8.178 13.064 38.294 38.294 0 01-20.087 11.062 41.08 41.08 0 01-22.899-1.88 41.664 41.664 0 01-13.81-8.737 38.595 38.595 0 01-11.17-19.707 40.288 40.288 0 01.984-20.56c-9.133-23.523 10.818-27.519 23.078-36.436 9.964 24.7.115 36.723-18.006 39.04v.029z" fill="#fff"/><path fill-rule="evenodd" clip-rule="evenodd" d="M55.162 62.69a1.75 1.75 0 001.693-1.743v-2.03a1.75 1.75 0 00-1.743-1.751h-5.194v-10.76a2.784 2.784 0 00-2.769-2.77 2.776 2.776 0 00-2.769 2.77v10.76h-8.128v-10.76a2.784 2.784 0 00-2.769-2.77 2.776 2.776 0 00-2.77 2.77v10.76h-5.336a1.758 1.758 0 00-1.75 1.75v2.03a1.758 1.758 0 001.692 1.744h1.435v4.197c0 7.432 3.142 11.069 10.71 11.98v6.872h5.854v-6.944c7.497-.717 10.71-5.13 10.71-12.325v-3.78h1.141-.007zm-22.16 1.528H47.76v2.152H33.002v-2.152z" fill="#fff"/><path d="M145.564 21.197c-8.377 12.729-14.063 22.26-14.251 23.768-.258 2.068.069 2.685 1.852 3.499 4.308 1.965 12.231.779 17.338-2.573 1.468-.963 3.821-3.5 5.196-5.556 8.359-12.492 24.973-38.08 25.364-39.1.394-1.028-1.211-1.24-10.547-1.235h-10.958l-13.994 21.197zM84.255 79.649c7.015-9.961 19.96-29.472 19.585-29.848-.144-.144-2.295.26-4.785.926-3.895 1.044-7.395 1.141-10.21.282.378 2.386.574 4.833.574 7.325 0 7.683-1.864 14.93-5.164 21.315zm4.101-31.243c4.406 2.045 13.601.776 18.365-3.646 1.255-1.166 4.664-5.73 7.563-10.187 1.039-1.598 2.507-3.865 4.182-6.45l.014-.023c2.995-4.623 6.648-10.264 9.695-14.93L136.818 0h-22.534a7606.54 7606.54 0 01-2.883 4.429c-7.724 11.862-16.643 25.558-24.472 38.856a46.122 46.122 0 011.427 5.12zm-3.028-9.168L110.991 0H94.116l-2.16 3.396c-1.176 1.863-7.933 12.13-15.023 22.842l-.153.232a46.56 46.56 0 018.548 12.768zM75.297 24.965a8556.28 8556.28 0 0111.977-18.38L91.595 0H69.01l-9.765 14.791a46.507 46.507 0 0116.052 10.174zm34.665 19.589c1.069-1.176 8.191-11.688 15.795-23.358L139.545 0h8.591c6.656 0 8.452.231 7.975 1.03-.339.566-6.31 9.723-13.325 20.372-7.016 10.65-13.161 20.569-13.634 22.02-.618 1.897-1.806 3.05-4.167 4.116-4.066 1.835-13.533 2.017-15.589.308-1.295-1.076-1.241-1.304.566-3.292z" fill="#fff"/><path d="M104.71 87.453c-1.223-1.94 1.78-6.542 14.001-25.28l.82-1.259c4.72-7.239 8.736-13.17 8.901-13.17.165 0 1.354.809 2.624 1.749 3.166 2.342 7.849 2.81 13.479 1.337 2.604-.68 4.733-1.136 4.733-.926 0 .732-20.776 32.037-22.534 33.956-4.186 4.57-14.284 7.264-19.396 5.144l-.261-.108c-1.122-.462-1.969-.811-2.367-1.443zm-7.713-22.629C91.564 73.285 85.9 81.832 84.444 83.757l-2.624 3.498 1.801 1.235c2.386 1.673 9.094 1.593 13.788-.206 2.903-1.112 4.038-2.17 5.248-4.733.847-1.8 5.643-9.58 10.701-17.286l2.085-3.177c4.132-6.294 7.427-11.312 7.69-11.743.402-.661-.641-.66-3.704-.103-3.876.705-7.076.385-11.319-1.235-.9-.343-3.91 3.599-11.113 14.817zm80.053-53.505c-3.783 5.778-12.237 18.806-18.779 28.913-4.243 6.555-9.501 14.644-13.876 21.376l-.003.004c-2.369 3.646-4.48 6.893-6.031 9.283-4.414 6.803-8.026 12.746-8.026 13.17 0 .425 2.162.824 4.837.824h4.887l4.425-6.894c2.44-3.739 6.988-10.766 10.135-15.64 3.146-4.874 9.14-14.07 13.325-20.476 4.185-6.406 9.499-14.549 11.781-18.11 2.282-3.562 4.411-6.485 4.733-6.482.324.003 1.219 1.02 1.955 2.263.736 1.244 8.47 13.178 17.184 26.547 8.713 13.37 17.927 27.523 20.476 31.486l4.63 7.203 5.145.103c2.83.001 5.145-.24 5.145-.515 0-.276-3.461-5.733-7.666-12.141-4.205-6.41-16.337-25.153-26.958-41.57C193.746 14.246 184.774.834 184.458.823c-.315-.01-3.626 4.717-7.408 10.496z" fill="#fff"/><path d="M174.992 35.087l2.058-3.19c1.146-1.733 2.321-2.827 2.624-2.469.303.358 7.743 11.717 16.514 25.312 8.771 13.596 16.628 25.672 17.441 26.753 2.2 2.924 1.833 3.396-2.469 3.396h-3.91l-9.724-15.126a19906.22 19906.22 0 00-16.155-24.9l-6.379-9.776z" fill="#fff"/></svg>