<svg width="500" height="453" fill="none" xmlns="http://www.w3.org/2000/svg"><path d="M419.667.2L25.432 394.339l21.022 21.017 150.581-150.545c18.246 9.438 40.476 16.563 73.442 24.713 6.801 1.681 13.582 5.642 15.974 9.329 2.283 3.526 12.153 28.929 21.928 56.455 9.778 27.526 19.804 52.297 22.287 55.051 6.097 6.764 24.103 6.632 30.296-.225 7.235-8.011 5.805-18.964-7.743-59.236-19.162-56.953-29.788-82.728-36.792-89.246-3.516-3.274-20.523-11.605-37.791-18.509-40.838-16.332-41.038-19.706-1.427-24.259 16.483-1.896 38.959-3.827 49.947-4.29l19.978-.847 51.936 30.743c56.79 33.617 64.753 36.085 74.862 23.208 7.23-9.209 7.558-18.523.922-26.23-5.534-6.426-80.867-51.1-107.741-63.892-19.059-9.072-36.144-10.357-77.842-4.978L440.689 21.216 419.667.2zM153.315 232.048a243.57 243.57 0 01-.894-.879c-13.546-13.358-25.461-23.77-26.483-23.138-1.022.632-4.133 6.208-6.916 12.391l-5.06 11.245 12.293 27.434-32.504 32.497c-11.72-24.888-24.869-56.195-24.878-61.59-.014-8.739 20.732-63.662 30.09-79.666 17.645-30.165 35.488-41.369 85.74-53.838 14.97-3.715 29.052-8.28 31.295-10.144 2.243-1.865 9.912-15.79 17.042-30.946 7.129-15.154 15.092-29.162 17.695-31.129 6.405-4.839 15.326-4.499 22.984.878 10.32 7.241 8.06 19.664-10.831 59.532-18.532 39.114-20.059 40.636-47.755 47.585-6.673 1.673-12.13 3.815-12.13 4.762 0 2.515 10.521 14.52 20.647 24.689l-70.335 70.317zM50.967 106.765c-20.21-24.066-14.22-57.723 13.36-75.093 12.338-7.77 39.643-6.232 52.526 2.96 19.839 14.156 26.118 43.191 13.979 64.666-16.302 28.841-58.594 32.796-79.865 7.467zM0 428.038h500v24.07H0v-24.07z" fill="#FA8C16"/></svg>