<svg width="500" height="424" fill="none" xmlns="http://www.w3.org/2000/svg"><path d="M353.587 336.311a3.598 3.598 0 01-3.595-3.61 3.598 3.598 0 013.595-3.61h63.46c.259 0 .519.025.766.087 2.273.347 4.397.992 6.3 2.022 2.1 1.141 3.891 2.717 5.275 4.825 4.756 7.233 4.052 13.944.692 18.906-2.187 3.238-5.522 5.644-9.204 6.91-3.706 1.277-7.807 1.401-11.513.037-5.609-2.059-10.155-7.307-10.822-16.809a3.592 3.592 0 013.336-3.833c1.976-.137 3.681 1.364 3.817 3.349.432 6.128 2.977 9.378 6.102 10.52 2.113.769 4.534.669 6.77-.1 2.273-.781 4.299-2.22 5.584-4.118 1.841-2.717 2.112-6.55-.754-10.904a7.404 7.404 0 00-2.693-2.457c-1.124-.607-2.433-1.004-3.866-1.228h-63.25v.013zm-16.405-32.465a3.598 3.598 0 01-3.595-3.61 3.597 3.597 0 013.595-3.609h63.262c1.445-.224 2.754-.621 3.879-1.229a7.409 7.409 0 002.693-2.456c2.866-4.354 2.582-8.187.753-10.904-1.285-1.898-3.311-3.337-5.584-4.119-2.236-.769-4.669-.868-6.769-.099-3.113 1.142-5.67 4.392-6.103 10.52-.136 1.985-1.84 3.486-3.817 3.349a3.591 3.591 0 01-3.335-3.833c.667-9.502 5.213-14.75 10.821-16.809 3.706-1.352 7.808-1.228 11.514.037 3.681 1.266 7.016 3.685 9.203 6.91 3.36 4.962 4.064 11.673-.692 18.905-1.383 2.109-3.175 3.685-5.275 4.826-1.902 1.03-4.027 1.675-6.3 2.022-.247.05-.507.087-.766.087h-63.484v.012zm-15.442 16.239c-1.989 0-3.595-1.625-3.595-3.61a3.598 3.598 0 013.595-3.61h132.268c1.446-.223 2.755-.62 3.867-1.228a7.41 7.41 0 002.693-2.456c2.866-4.355 2.582-8.188.753-10.905-1.284-1.898-3.31-3.337-5.583-4.118-2.236-.769-4.67-.868-6.77-.099-3.113 1.141-5.67 4.391-6.103 10.519-.136 1.985-1.84 3.486-3.817 3.35a3.593 3.593 0 01-3.335-3.834c.667-9.502 5.213-14.749 10.821-16.809 3.706-1.352 7.808-1.228 11.514.038 3.681 1.265 7.016 3.684 9.203 6.909 3.36 4.962 4.064 11.674-.692 18.906-1.383 2.109-3.175 3.684-5.275 4.825-1.902 1.03-4.027 1.675-6.3 2.023a3.959 3.959 0 01-.766.086H321.74v.013zm120.017-126.004l-1.647 7.677c-15.605-7.257-33.002-11.309-51.346-11.309-65.186 0-118.422 51.162-121.746 115.521l-32.215.015c-75.063.037-149.235.073-160.787.073-17.749 0-19.397-13.097-21.156-27.081-.559-4.441-1.129-8.971-2.23-13.199l-18.819-71.697H17.112c-4.677 0-8.946-1.928-12.064-5.007v-.037l-.037.037C1.931 185.959 0 181.693 0 176.983v-15.541c0-4.711 1.93-8.976 5.011-12.092.223-.223.483-.482.742-.668a16.86 16.86 0 0111.322-4.339c29.78 0 58.112-.002 85.734-.004v18.623H31.551c-1.484.371-2.97.334-4.38 0h-8.537v12.463h84.175v59.358c0 24.822 20.122 44.944 44.944 44.944h38.764c24.822 0 44.944-20.122 44.944-44.944v-59.358h224.661v-12.463H231.461v-18.639c64.334-.009 131.212-.017 210.37-.017V52.321c-5.419-26.594-20.787-33.827-41.314-30.897 9.243 16.098 8.055 32.455-5.048 49.145 1.671 2.708 1.522 5.675-.297 8.828l-4.083 4.71c-1.633 1.67-3.675 1.818-6.31-.296l-62.732-63.314c-1.707-2.04-1.373-3.82.631-5.378l.285-.35c4.197-5.142 4.898-6 12.633-4.694C353.19-1.35 369.931-3.39 385.707 5.66c39.606-16.246 73.31 4.154 77.876 45.695v94.062c2.339.853 4.417 2.226 6.125 3.932a17.098 17.098 0 015.011 12.092v15.541c0 4.71-1.93 8.976-5.011 12.091a17.101 17.101 0 01-12.064 5.007h-15.887z" fill="#FA8C16"/><path d="M367.37 82.81l-.223-.297c-1.151-1.67-3.452-2.04-5.085-.89l-28.211 19.732c-1.67 1.15-2.041 3.449-.891 5.081l.223.297c1.151 1.669 3.452 2.04 5.085.89l28.211-19.732c1.633-1.15 2.042-3.45.891-5.082zm-158.381 61.516l-83.708.011v18.625h83.708v-18.636zm0 90.457v-59.358h-83.708v59.358c0 12.411 10.061 22.472 22.472 22.472h38.764c12.411 0 22.472-10.061 22.472-22.472zM331.624 52.024l.223.297c1.15 1.632.779 3.931-.891 5.081l-28.211 19.733c-1.633 1.15-3.935.778-5.085-.89l-.223-.297c-1.151-1.632-.779-3.932.891-5.082l28.211-19.732c1.633-1.15 3.934-.779 5.085.89zM315.626 36l-.223-.296c-1.151-1.669-3.452-2.04-5.085-.89l-28.211 19.732c-1.671 1.15-2.042 3.45-.891 5.082l.223.296c1.15 1.67 3.452 2.04 5.085.89l28.211-19.732c1.633-1.15 2.041-3.45.891-5.081zm32.182 31.788l.223.296c1.15 1.67.742 3.932-.854 5.082l-28.248 19.732c-1.633 1.15-3.934.779-5.085-.89l-.223-.297c-1.151-1.632-.779-3.931.891-5.081l28.211-19.733c1.633-1.15 3.934-.778 5.085.89z" fill="#FA8C16"/><path fill-rule="evenodd" clip-rule="evenodd" d="M500 312.359c0 61.434-49.802 111.236-111.236 111.236-61.434 0-111.236-49.802-111.236-111.236 0-61.433 49.802-111.235 111.236-111.235 61.434 0 111.236 49.802 111.236 111.235zm-19.702 0c0 50.553-40.981 91.534-91.534 91.534-50.553 0-91.534-40.981-91.534-91.534 0-50.552 40.981-91.533 91.534-91.533 50.553 0 91.534 40.981 91.534 91.533z" fill="#FA8C16"/></svg>