<svg width="500" height="415" fill="none" xmlns="http://www.w3.org/2000/svg"><path fill-rule="evenodd" clip-rule="evenodd" d="M262.071 49.628c-10.873-4.237-22.099-6.45-33.676-6.45-17.411 0-31.73 5.567-42.956 16.607l-96.876 96.717 10.079 10.162L61.87 203.67 0 141.75l36.768-36.745 11.401 11.129 96.343-96.185C157.769 6.79 172.003.252 187.204.252c25.546 0 50.473 16.432 74.867 49.376zm147.01-27.386a90.85 90.85 0 0130.046 5.083l-23.901 25.853c-54.302 58.703 6.978 92.667 60.978 52.367l20.83-15.54A90.993 90.993 0 01500 113.096c0 50.181-40.703 90.858-90.923 90.858-16.382 0-31.755-4.33-45.028-11.909l-44.157 46.846c41.561 39.759 83.135 79.509 124.7 119.26L388.203 414.5c-39.323-40.975-78.63-81.97-117.929-122.969l-77.426 82.128c-5.88 10.048-16.789 16.802-29.272 16.802-18.714 0-33.892-15.163-33.892-33.867a33.725 33.725 0 017.577-21.335l-.049-.049.297-.256a34.109 34.109 0 018.675-7.433l87.082-74.598L125.9 140.551l44.552-44.516c41.33 39.669 74.879 71.491 116.261 111.103l48.275-41.361c-10.596-14.857-16.829-33.037-16.829-52.677 0-50.184 40.702-90.858 90.922-90.858zM116.497 42.386L72.213 86.638l-8.488-8.478 44.284-44.256 8.488 8.482z" fill="#FA8C16"/></svg>