<svg width="500" height="442" fill="none" xmlns="http://www.w3.org/2000/svg"><path fill-rule="evenodd" clip-rule="evenodd" d="M112.674 1.017c-35.78 2.586-71.298 22.272-91.88 50.926-4.92 6.85-11.963 20.651-14.581 28.569-12.55 37.959-5.87 79.308 18.075 111.89 2.297 3.127 12.14 13.586 24.075 25.585l20.189 20.294 6.46-1.998c18.021-5.574 31.517-5.866 43.2-.936 9.513 4.013 19.102 11.966 25.36 21.034 5.943 8.609 9.071 17.298 10.05 27.916.484 5.246.71 5.966 2.402 7.659 1.737 1.737 2.327 1.907 8.364 2.412 27.257 2.279 46.241 21.72 48.433 49.597.326 4.141.649 5.199 2.078 6.798 1.558 1.745 2.146 1.938 7.396 2.422 15.234 1.407 26.467 6.617 35.699 16.559 8.514 9.168 12.919 19.55 13.681 32.245.55 9.171-1.388 18.963-5.704 28.827-.598 1.365 1.508 2.467 8.804 4.606 16.585 4.862 30.126 1.166 40.567-11.071 5.202-6.097 6.769-16.444 4.082-26.955-2.195-8.586-3.4-10.252-18.436-25.494-7.637-7.741-21.604-22.098-31.04-31.905a61253.08 61253.08 0 00-31.536-32.752c-7.909-8.207-14.624-15.346-14.921-15.865-.407-.71.981-2.472 5.615-7.125 3.387-3.401 6.346-6.183 6.578-6.183.232 0 14.025 14.141 30.65 31.423 40.313 41.906 61.035 63.06 63.36 64.681 6.832 4.762 20.006 5.174 29.324.918 9.518-4.347 16.782-14.08 18.564-24.869.955-5.784.09-10.9-2.852-16.876-1.93-3.921-3.202-5.369-10.483-11.936-11.733-10.583-35.279-33.216-60.665-58.313l-21.788-21.54 6.601-6.604 6.601-6.604 46.739 46.71 46.739 46.709 3.738 1.069c6.939 1.983 20.021.286 28.849-3.743 5.793-2.643 8.056-4.52 11.553-9.58 9.39-13.589 10.226-26.28 2.604-39.51-4.246-7.372-9.221-13.061-24.121-27.59-8.646-8.429-33.902-33.437-56.126-55.574l-40.407-40.249-34.154 35.871c-18.786 19.728-36.437 37.748-39.226 40.044-10.245 8.431-21.285 12.402-34.488 12.402-21.173 0-41.557-12.796-51.317-32.215-3.689-7.34-4.916-12.216-5.274-20.958-.375-9.14.568-14.857 3.689-22.356 3.919-9.417 7.122-13.174 45.227-53.048 19.946-20.871 36.338-38.136 36.426-38.364.271-.701-29.96-33.908-34.59-37.996-15.367-13.57-34.32-22.845-55.304-27.063-5.566-1.12-21.992-2.748-25.001-2.479-.516.046-4.061.31-7.878.585zm263.295-.27c-28 1.652-53.175 11.361-74.718 28.816-3.609 2.925-7.556 7.096-12.299 12.998-3.841 4.781-7.576 8.911-8.299 9.18-.724.267-1.539 1.089-1.811 1.826-.273.737-22.423 23.985-49.224 51.663-30.461 31.458-49.816 51.928-51.629 54.602-4.172 6.155-5.835 11.471-5.779 18.468.035 4.27.391 6.537 1.475 9.383 3.39 8.904 10.723 17.056 19.31 21.464 6.883 3.534 11.761 4.67 18.91 4.403 5.158-.192 6.433-.479 10.058-2.266 2.282-1.125 5.063-3.095 6.178-4.379 2.91-3.345 85.676-89.162 86.269-89.448.405-.194 7.508 7.019 54.678 55.526 19.237 19.783 41.413 42.555 49.281 50.605l14.305 14.636 19.061-19.015c10.483-10.458 20.829-21.267 22.991-24.019 10.143-12.917 17.031-26.822 21.258-42.913 10.007-38.095 1.093-78.507-24.288-110.118C452.55 18.313 422.72 3.36 389.519.965c-4.702-.34-8.97-.568-9.486-.51-.516.06-2.345.19-4.064.292zM68.656 304.044v16.588l1.72-.381c6.307-1.396 9.75-3.727 12.218-8.269 3.684-6.779 2.678-14.218-2.644-19.542-2.782-2.783-7.406-4.985-10.47-4.985-.662 0-.824 3.276-.824 16.589zm58.774 59.101v16.263l1.719-.006c2.327-.008 7.583-2.548 9.696-4.685 3.285-3.322 4.397-5.829 4.703-10.607.321-5.014-.746-8.357-3.841-12.02-2.084-2.466-7.462-5.209-10.212-5.209h-2.065v16.264zm59.399 62.17c0 9.156.23 16.646.511 16.646.282 0 1.924-.419 3.65-.932 4.391-1.305 7.735-3.936 9.778-7.694 5.511-10.141-.237-22.157-11.594-24.237l-2.345-.429v16.646z" fill="#FA8C16"/></svg>