<svg width="500" height="398" fill="none" xmlns="http://www.w3.org/2000/svg"><path fill-rule="evenodd" clip-rule="evenodd" d="M326.269 1.6a197.752 197.752 0 01131.992 75.214c67.226 86.524 51.582 211.123-34.942 278.35-.078.048-.136.107-.214.175-86.494 67.207-211.084 51.572-278.291-34.922a1.151 1.151 0 00-.137-.166 199.977 199.977 0 01-22.304-36.074 164.727 164.727 0 0036.904-5.293 168.683 168.683 0 0013.232 19.815c55.371 71.103 157.881 83.847 228.965 28.466 71.093-55.361 83.828-157.87 28.467-228.964-39.336-50.498-104.571-73.33-166.817-58.388a166.987 166.987 0 00-21.367-30.557c2.403-.781 4.834-1.475 7.285-2.158A196.308 196.308 0 01326.376 1.6h-.107zM0 126.13v-15.039C3.877 49.608 54.941.926 117.392.897h.049c65.02-.01 117.725 52.666 117.764 117.685.029 65.019-52.666 117.734-117.686 117.763C55.009 236.365 3.877 187.664 0 126.131zm104.062 30.82h26.973v23.877h-26.973V156.95zm26.953-13.877h-26.953c-2.685-32.773-8.33-32.07-8.33-64.795 0-12.08 9.795-21.865 21.865-21.865 12.071 0 21.875 9.785 21.875 21.865 0 32.705-5.712 32.061-8.457 64.795zm159.629-41.015c1.211-9.649 10-16.485 19.619-15.274h.039c9.59 1.29 16.338 10.078 15.098 19.658l-11.426 91.885 63.535 49.365c7.666 5.957 9.082 16.992 3.125 24.687a17.593 17.593 0 01-11.67 6.661 17.33 17.33 0 01-12.949-3.536l-71.113-55.283a17.404 17.404 0 01-5.655-6.914 17.902 17.902 0 01-1.425-9.443l12.822-101.758v-.048z" fill="#FA8C16"/></svg>