<svg width="500" height="488" fill="none" xmlns="http://www.w3.org/2000/svg"><path d="M283.854 16.99c0-9.048 9.115-16.474 20.142-16.474s20.345 7.344 20.345 16.474v71.985c0 9.048-8.952 16.474-20.345 16.474-11.394 0-20.142-7.344-20.142-16.474V16.99zm70.475 290.088a12.793 12.793 0 013.494-9.529 12.852 12.852 0 014.257-2.968 12.894 12.894 0 0110.174 0 12.842 12.842 0 016.989 7.373c.601 1.639.86 3.382.762 5.124v56.038h40.12a12.891 12.891 0 019.556 3.484 12.792 12.792 0 010 18.636 12.891 12.891 0 01-9.556 3.484h-52.897a12.919 12.919 0 01-9.08-3.767 12.848 12.848 0 01-3.778-9.055v-68.982l-.041.162zM58.472 317.223h46.142c1.4.021 2.735.59 3.717 1.585a5.309 5.309 0 011.532 3.73v34.004c0 1.41-.561 2.762-1.561 3.759a5.337 5.337 0 01-3.769 1.557H58.472a5.34 5.34 0 01-3.77-1.557 5.309 5.309 0 01-1.56-3.759v-34.004c0-1.41.56-2.762 1.56-3.758a5.338 5.338 0 013.77-1.557zm176.676-96.899h46.143a5.377 5.377 0 013.662 1.461A164.073 164.073 0 00238.688 265h-3.54a5.348 5.348 0 01-3.769-1.557 5.318 5.318 0 01-1.561-3.759V225.68c0-1.414.56-2.77 1.558-3.773a5.38 5.38 0 013.772-1.583zm-88.338 0h46.142c1.414 0 2.77.56 3.77 1.557a5.31 5.31 0 011.561 3.758v34.004c0 1.41-.562 2.762-1.561 3.759a5.34 5.34 0 01-3.77 1.557H146.81c-1.414 0-2.77-.56-3.769-1.557a5.308 5.308 0 01-1.562-3.759v-34.004a5.3 5.3 0 011.562-3.758 5.337 5.337 0 013.769-1.557zm-88.338 0h46.142c1.4.021 2.735.591 3.717 1.585a5.31 5.31 0 011.532 3.73v34.004c0 1.41-.561 2.762-1.561 3.759a5.337 5.337 0 01-3.769 1.557H58.472a5.34 5.34 0 01-3.77-1.557 5.309 5.309 0 01-1.56-3.759v-34.004a5.302 5.302 0 011.56-3.758 5.341 5.341 0 013.77-1.557zm88.338 96.899h46.142c1.414 0 2.77.56 3.77 1.557a5.307 5.307 0 011.561 3.758v34.004c0 1.41-.562 2.762-1.561 3.759a5.34 5.34 0 01-3.77 1.557H146.81c-1.414 0-2.77-.56-3.769-1.557a5.308 5.308 0 01-1.562-3.759v-34.004c0-1.41.562-2.762 1.562-3.758a5.335 5.335 0 013.769-1.557zm274.292-75.109a127.758 127.758 0 0153.752 41.835 127.24 127.24 0 0124.532 63.443 127.143 127.143 0 01-11.669 66.993 127.553 127.553 0 01-44.551 51.476 128.045 128.045 0 01-64.751 21.307 128.105 128.105 0 01-66.522-14.925 127.656 127.656 0 01-49.36-46.911 127.186 127.186 0 01-18.148-65.544 129.272 129.272 0 0121.941-71.165 129.804 129.804 0 0157.608-47.361 134.868 134.868 0 0197.168.852zm26.977 44.107c-52.897-52.75-142.212-37.858-173.177 28.405a106.698 106.698 0 00-9.681 52.388 106.754 106.754 0 0016.858 50.548 107.147 107.147 0 0039.217 36.171 107.495 107.495 0 0051.848 12.82 107.495 107.495 0 0051.62-13.708 107.13 107.13 0 0038.587-36.838 106.712 106.712 0 005.399-103.045 98.875 98.875 0 00-20.671-26.862v.121zM103.068 16.991c0-9.05 8.952-16.475 20.345-16.475 11.393 0 20.142 7.344 20.142 16.474v71.985c0 9.048-8.993 16.474-20.142 16.474s-20.345-7.344-20.345-16.474V16.99zm302.45 140.965v-82.9a9.959 9.959 0 00-2.971-7.141 10.228 10.228 0 00-7.161-2.962h-36.621a11.166 11.166 0 01-7.884-3.257 11.102 11.102 0 010-15.723 11.166 11.166 0 017.884-3.257h36.621c8.633 0 16.913 3.42 23.017 9.508a32.416 32.416 0 019.535 22.954V206.73a167.371 167.371 0 00-22.624-6.046v-20.572H22.176v214.695a9.956 9.956 0 002.97 7.141 10.225 10.225 0 007.162 2.962h182.17a163.015 163.015 0 007.812 22.48H32.552a32.597 32.597 0 01-23.018-9.508A32.414 32.414 0 010 394.928V75.138c0-8.61 3.43-16.867 9.534-22.954a32.598 32.598 0 0123.018-9.508h39.225c2.957 0 5.793 1.171 7.884 3.256a11.102 11.102 0 013.265 7.862c0 2.949-1.174 5.777-3.265 7.862a11.164 11.164 0 01-7.884 3.256H32.552a10.036 10.036 0 00-7.161 2.962 10.171 10.171 0 00-2.97 7.142v82.94h383.097zM175.496 64.912a11.163 11.163 0 01-7.883-3.256 11.103 11.103 0 01-3.266-7.862c0-2.949 1.175-5.777 3.266-7.862a11.163 11.163 0 017.883-3.256h74.829c2.957 0 5.793 1.171 7.884 3.256a11.102 11.102 0 013.266 7.862c0 2.949-1.175 5.777-3.266 7.862a11.166 11.166 0 01-7.884 3.256h-74.829z" fill="#FA8C16"/></svg>