<svg width="473" height="461" fill="none" xmlns="http://www.w3.org/2000/svg"><path d="M242.507 30.078a15.05 15.05 0 01-11.131-25.936A15.048 15.048 0 01242.507.019 229.554 229.554 0 01360.14 32.272l-1.501 1.27c-6.698 6.043-13.742 13.086-20.863 20.591a200.18 200.18 0 00-95.269-24.055zm-57.97 151.796l39.878-.539 2.964.77a148.523 148.523 0 0122.826 15.934 158.268 158.268 0 0114.666 14.125 924.408 924.408 0 0158.085-80.093c17.668-21.284 42.727-51.227 62.32-68.74l3.849-1.5h43.535l-8.776 9.737a1131.058 1131.058 0 00-79.834 103.34c-22.133 31.983-54.467 81.517-72.058 115.463l-5.466 10.546-5.042-10.738a261.086 261.086 0 00-33.604-54.499 220.516 220.516 0 00-46.615-43.222l3.272-10.661v.077zm-30.062-59.848a14.966 14.966 0 01.674-17.043 14.984 14.984 0 0110.209-5.861 14.976 14.976 0 0115.06 8.009l6.737 11.546a14.99 14.99 0 01-1.121 16.61 14.99 14.99 0 01-9.943 5.715 14.983 14.983 0 01-14.919-7.392l-6.697-11.546v-.038zm-43.766 58.578a15.008 15.008 0 01-5.466-20.514 15.01 15.01 0 0114.972-7.356c1.954.26 3.838.903 5.544 1.891l11.548 6.735a15.014 15.014 0 015.466 20.514 15.011 15.011 0 01-20.517 5.465l-11.547-6.735zm21.132 138.094a14.979 14.979 0 01-16.612-1.12 14.99 14.99 0 01-5.716-9.942 14.985 14.985 0 017.393-14.917l11.548-6.735a14.985 14.985 0 0121.934 16.895 14.985 14.985 0 01-6.999 9.084l-11.548 6.735zm-32.103-73.126a14.974 14.974 0 01-10.588-25.559 14.973 14.973 0 0110.588-4.385h13.434a14.974 14.974 0 0114.974 14.972 14.975 14.975 0 01-14.974 14.972H99.738zm153.085 123.161a14.97 14.97 0 01-14.974 14.971 14.974 14.974 0 01-14.973-14.971v-13.471a14.971 14.971 0 0125.561-10.587 14.972 14.972 0 014.386 10.587v13.471zM222.876 92.39a14.97 14.97 0 0114.973-14.972 14.973 14.973 0 0114.974 14.972v13.471a14.957 14.957 0 01-4.386 10.586 14.966 14.966 0 01-10.588 4.386 14.985 14.985 0 01-10.588-4.386 14.978 14.978 0 01-4.385-10.586V92.39zm-41.11 265.22a14.999 14.999 0 01-27.466-3.674 14.994 14.994 0 011.522-11.375l6.697-11.546a15.057 15.057 0 019.116-7.034 15.052 15.052 0 0115.844 5.33 15.03 15.03 0 013.01 11.112 15.01 15.01 0 01-1.872 5.563l-6.736 11.547-.115.077zm144.27-15.049a14.969 14.969 0 01-5.996 19.356 14.974 14.974 0 01-19.794-4.346l-6.737-11.546a15.002 15.002 0 0116.87-21.997 15 15 0 019.113 6.987l6.736 11.546h-.192zm38.916-50.034a15.01 15.01 0 01-15.013 25.979l-11.547-6.735a15.01 15.01 0 013.66-27.496 15.016 15.016 0 0111.39 1.516l11.548 6.736h-.038zm20.247-76.976a14.976 14.976 0 0114.973 14.972 14.976 14.976 0 01-14.973 14.972h-14.32a14.976 14.976 0 01-14.973-14.972 14.971 14.971 0 0114.973-14.972h14.32zM63.517 65.449a19.904 19.904 0 016.043-1.232 19.44 19.44 0 0121.748 13.586l15.975 51.92a19.513 19.513 0 01-27.957 23.27 19.506 19.506 0 01-9.381-11.954l-2.54-8.275A200.423 200.423 0 00121.51 390.43a200.484 200.484 0 00262.687-18.195 200.463 200.463 0 0036.298-233.929c6.698-8.621 13.55-17.127 20.363-25.21a230.484 230.484 0 01-45.217 289.666 230.539 230.539 0 01-197.216 53.992A230.53 230.53 0 0135.859 332.745a230.48 230.48 0 01-23.922-102.222A230.214 230.214 0 0143 115.059l-16.475 6.235A19.575 19.575 0 1112.63 84.692L63.518 65.45z" fill="#FA8C16"/></svg>