<svg width="500" height="356" fill="none" xmlns="http://www.w3.org/2000/svg"><path fill-rule="evenodd" clip-rule="evenodd" d="M5.047 17.686C9.813 10.259 18.482 3.598 26.835.945c4.158-1.32 12.642-1.246 17.355.153 7.372 2.187 11.14 4.664 18.775 12.345 18.972 19.083 34.788 46.459 42.597 73.729 1.951 6.818 8.851 36.571 18.528 79.897 3.029 13.567 6.025 26.473 6.657 28.68 2.86 9.994 9.332 18.61 17.058 22.709 11.24 5.963 18.489 6.168 46.924 1.327 26.319-4.481 218.303-.473 237.408 0 38.354.948 56.396 7.99 64.57 25.204 2.321 4.885 2.714 6.522 3.032 12.589.275 5.266.047 8.145-.93 11.754-3.142 11.61-13.683 21.805-25.813 24.964-5.809 1.513-11.719 1.421-21.253-.33-20.907-3.841-215.875-8.227-246.386-3.081-16.506 2.785-19.391 3.064-34.928 3.379-13.549.275-18.331.103-23.904-.86-19.486-3.368-38.79-13.273-54.089-27.751-15.738-14.895-24.887-29.116-30.554-47.489-1.234-4.005-6.077-24.843-10.762-46.309-4.684-21.465-9.68-44.27-11.1-50.677-5.776-26.04-11.972-39.265-26.452-56.461-3.579-4.25-7.455-9.221-8.613-11.046-6.641-10.467-6.602-25.553.092-35.985zm64.397 48.271C61.117 49.32 46.19 30.16 38.427 26.145c-6.973-3.606-15.14 2.111-13.902 9.733.518 3.194 2.388 6.002 10.159 15.246 13.187 15.69 21.262 30.69 26.703 49.608 1 3.477 6.658 28.192 12.574 54.923 5.914 26.73 11.44 51.086 12.277 54.124 3.773 13.681 10.253 24.98 20.343 35.472 10.797 11.228 23.735 18.67 39.748 22.864 7.686 2.013 9.81 2.264 19.313 2.288 9.541.024 13.109-.382 33.506-3.817 8.59-1.447 104.242-.707 165.159-.236 28.114.217 48.83.378 50.173.239 9.5-.978 21.903-.394 33.418 1.575 9.915 1.695 16.256 1.861 18.725.491 2.711-1.504 4.548-4.921 4.553-8.466.007-4.266-3.215-7.608-8.938-9.271-5.607-1.63-22.192-4-31.926-4.564-10.771-.623-212.849-3.132-248.101 3.168-19.82 3.542-35.521.558-50.532-9.603-10.429-7.059-20.7-20.151-24.571-31.323-.967-2.792-6.932-28.368-13.254-56.835-14.066-63.33-15.253-67.503-24.41-85.803z" fill="#FA8C16"/><path d="M500 312.224H0v43.446h500v-43.446z" fill="#FA8C16"/></svg>