<svg width="500" height="443" fill="none" xmlns="http://www.w3.org/2000/svg"><path fill-rule="evenodd" clip-rule="evenodd" d="M112.674.879c-35.78 2.587-71.298 22.293-91.88 50.975-4.92 6.857-11.963 20.671-14.581 28.597-12.55 37.996-5.87 79.385 18.075 111.999 2.297 3.13 12.14 13.599 24.075 25.609l20.189 20.314 6.46-2c18.021-5.578 31.517-5.871 43.2-.936 9.513 4.017 19.102 11.978 25.36 21.054 5.943 8.617 9.071 17.316 10.05 27.943.484 5.252.71 5.972 2.402 7.667 1.737 1.738 2.327 1.909 8.364 2.415 27.257 2.281 46.241 21.74 48.433 49.645.326 4.144.649 5.204 2.078 6.805 1.558 1.746 2.146 1.939 7.396 2.424 15.234 1.408 26.467 6.623 35.699 16.575 8.514 9.177 12.919 19.569 13.681 32.277.55 9.179-1.388 18.98-5.704 28.854-.598 1.367 1.508 2.47 8.804 4.611 16.585 4.866 30.126 1.167 40.567-11.082 5.202-6.103 6.769-16.46 4.082-26.981-2.195-8.595-3.4-10.262-18.436-25.519-7.637-7.749-21.604-22.12-31.04-31.936a59678.834 59678.834 0 00-31.536-32.784c-7.909-8.215-14.624-15.362-14.921-15.881-.407-.71.981-2.474 5.615-7.132 3.387-3.404 6.346-6.188 6.578-6.188.232 0 14.025 14.154 30.65 31.453 40.313 41.947 61.035 63.122 63.36 64.744 6.832 4.767 20.006 5.179 29.324.919 9.518-4.351 16.782-14.094 18.564-24.893.955-5.79.09-10.911-2.852-16.893-1.93-3.924-3.202-5.374-10.483-11.947-11.733-10.593-35.279-33.248-60.665-58.37l-21.788-21.561 6.601-6.611 6.601-6.61 46.739 46.755 46.739 46.755 3.738 1.07c6.939 1.985 20.021.286 28.849-3.746 5.793-2.646 8.056-4.525 11.553-9.59 9.39-13.603 10.226-26.306 2.604-39.549-4.246-7.379-9.221-13.073-24.121-27.616-8.646-8.437-33.902-33.47-56.126-55.628l-40.407-40.288-34.154 35.905c-18.786 19.747-36.437 37.785-39.226 40.083-10.245 8.44-21.285 12.414-34.488 12.414-21.173 0-41.557-12.808-51.317-32.246-3.689-7.347-4.916-12.228-5.274-20.979-.375-9.148.568-14.871 3.689-22.377 3.919-9.427 7.122-13.187 45.227-53.1 19.946-20.892 36.338-38.173 36.426-38.402.271-.701-29.96-33.94-34.59-38.033-15.367-13.583-34.32-22.866-55.304-27.09-5.566-1.12-21.992-2.75-25.001-2.48-.516.046-4.061.31-7.878.586zM375.969.608c-28 1.654-53.175 11.373-74.718 28.844-3.609 2.928-7.556 7.103-12.299 13.011-3.841 4.786-7.576 8.92-8.299 9.188-.724.268-1.539 1.09-1.811 1.828-.273.738-22.423 24.009-49.224 51.714-30.461 31.489-49.816 51.979-51.629 54.656-4.172 6.16-5.835 11.482-5.779 18.486.035 4.274.391 6.542 1.475 9.392 3.39 8.912 10.723 17.071 19.31 21.484 6.883 3.538 11.761 4.675 18.91 4.408 5.158-.192 6.433-.48 10.058-2.269 2.282-1.125 5.063-3.098 6.178-4.383 2.91-3.348 85.676-89.249 86.269-89.535.405-.195 7.508 7.026 54.678 55.58 19.237 19.802 41.413 42.596 49.281 50.654l14.305 14.65 19.061-19.033c10.483-10.468 20.829-21.288 22.991-24.043 10.143-12.929 17.031-26.847 21.258-42.955 10.007-38.131 1.093-78.583-24.288-110.225C452.55 18.191 422.72 3.224 389.519.826c-4.702-.34-8.97-.569-9.486-.51-.516.06-2.345.19-4.064.292zM68.656 304.201v16.604l1.72-.381c6.307-1.398 9.75-3.731 12.218-8.278 3.684-6.785 2.678-14.231-2.644-19.56-2.782-2.786-7.406-4.99-10.47-4.99-.662 0-.824 3.278-.824 16.605zm58.774 59.158v16.28l1.719-.007c2.327-.008 7.583-2.55 9.696-4.689 3.285-3.326 4.397-5.835 4.703-10.618.321-5.019-.746-8.365-3.841-12.031-2.084-2.468-7.462-5.215-10.212-5.215h-2.065v16.28zm59.399 62.231c0 9.164.23 16.663.511 16.663.282 0 1.924-.421 3.65-.933 4.391-1.307 7.735-3.941 9.778-7.703 5.511-10.151-.237-22.177-11.594-24.259l-2.345-.431v16.663z" fill="#FA8C16"/></svg>