<svg width="500" height="602" fill="none" xmlns="http://www.w3.org/2000/svg"><path d="M23.137 139.844H128.63V118.37a120.636 120.636 0 0136.269-83.795A121.06 121.06 0 01249.557.069a121.06 121.06 0 0184.658 34.506 120.63 120.63 0 0136.268 83.795v21.474h106.331a23.166 23.166 0 0116.393 6.782A23.369 23.369 0 01500 162.94v355.627a83.117 83.117 0 01-24.41 58.582 83.415 83.415 0 01-58.685 24.367H83.095a83.417 83.417 0 01-58.685-24.367A83.12 83.12 0 010 518.567V162.94a23.126 23.126 0 016.791-16.317 23.209 23.209 0 0116.346-6.779zm77.139 171.696h46.322a6.108 6.108 0 014.236 1.802 6.089 6.089 0 011.77 4.242v46.241a6.04 6.04 0 01-1.773 4.274 6.06 6.06 0 01-4.282 1.77h-46.273a6.058 6.058 0 01-4.282-1.77 6.038 6.038 0 01-1.773-4.274v-46.241a6.085 6.085 0 011.787-4.259 6.11 6.11 0 014.268-1.785zm118.145 47.568c-8.566 0-15.458-8.207-15.458-18.379s6.892-18.427 15.458-18.427h182.14c8.566 0 15.507 8.255 15.507 18.427a17.084 17.084 0 01-3.975 12.366 17.142 17.142 0 01-11.532 6.013h-182.14zM91.907 475.324a9.817 9.817 0 011.92-14.398 11.432 11.432 0 0115.408-.491l10.781 11.056 26.976-27.567a9.842 9.842 0 013.53-2.012 9.859 9.859 0 0110.943 3.535 11.437 11.437 0 01.985 15.381l-35.739 36.609a9.857 9.857 0 01-14.473-1.523l-.837-.983a10.609 10.609 0 01-1.624-1.327l-17.87-18.28zm125.234 13.759c-8.516 0-15.31-8.255-15.31-18.378s6.941-18.428 15.458-18.428h182.14c8.516 0 15.457 8.256 15.457 18.428s-6.941 18.378-15.457 18.378H217.141zm-59.073-349.239h182.928V118.37a91.224 91.224 0 00-27.519-63.187 91.549 91.549 0 00-63.92-25.997 91.549 91.549 0 00-63.92 25.997 91.224 91.224 0 00-27.519 63.187v21.474h-.05zm-29.536 57.052V169.23H29.536v349.337a53.662 53.662 0 0015.76 37.783 53.852 53.852 0 0037.849 15.731h333.76a54.198 54.198 0 0037.75-15.829 54.006 54.006 0 0015.858-37.685V169.23h-100.03v27.961a33.64 33.64 0 0115.36 16 33.555 33.555 0 012.044 22.066 33.606 33.606 0 01-12.159 18.541 33.718 33.718 0 01-41.912-.697 33.606 33.606 0 01-11.534-18.935 33.555 33.555 0 012.78-21.986 33.644 33.644 0 0115.885-15.48v-27.47H158.118v27.764a33.649 33.649 0 0115.625 15.742 33.557 33.557 0 012.414 22.03 33.608 33.608 0 01-11.848 18.741 33.715 33.715 0 01-41.919 0 33.603 33.603 0 01-11.848-18.741 33.563 33.563 0 012.413-22.03 33.655 33.655 0 0115.626-15.742l-.049-.098z" fill="#FA8C16"/></svg>