<svg width="597" height="466" fill="none" xmlns="http://www.w3.org/2000/svg"><path fill-rule="evenodd" clip-rule="evenodd" d="M372.49 298.818c3.11 2.577 6.123 5.3 9.088 8.218a74.54 74.54 0 017.386 9.725 88.937 88.937 0 0112.489 47.947 77.353 77.353 0 01-13.121 44.787 70.424 70.424 0 01-22.208 18.77 128.12 128.12 0 01-32.315 12.108H81.697a70.82 70.82 0 01-17.689-4.863 53.79 53.79 0 01-14.335-8.607 66.452 66.452 0 01-10.788-11.476 69.715 69.715 0 01-13.17-40.118 57.22 57.22 0 015.828-27.109 57.173 57.173 0 0117.887-21.178 78 78 0 0117.3-9.288 121.688 121.688 0 0122.79-6.127l8.65-1.508 1.459-8.607a102.134 102.134 0 0137.272-63.216 105.128 105.128 0 0154.281-21.202 110.337 110.337 0 0158.022 10.115 102.369 102.369 0 0145.097 42.403c-2.381 1.022-4.86 2.14-7.047 3.258a140.176 140.176 0 00-35.28 23.779l16.814 19.452a183.399 183.399 0 0123.375-16.631 120.663 120.663 0 017.775-4.182 88.778 88.778 0 0136.252-8.364 60.57 60.57 0 0136.3 11.719v.195zm47.672-168.885h-1.36a39.86 39.86 0 00-3.192-15.881 39.819 39.819 0 00-9.249-13.295 39.84 39.84 0 00-29.157-12.4v-1.313a39.677 39.677 0 0029.157-12.449 39.881 39.881 0 0012.441-29.177h1.36a39.858 39.858 0 003.192 15.882 39.82 39.82 0 009.249 13.295 39.602 39.602 0 0029.157 12.449v1.361a39.825 39.825 0 00-29.157 12.4 39.823 39.823 0 00-9.249 13.296 39.856 39.856 0 00-3.192 15.881v-.049zM556.86 103.48h-.923a27.92 27.92 0 00-8.164-19.16 27.884 27.884 0 00-19.146-8.169v-.924a26.271 26.271 0 0019.146-8.17 26.365 26.365 0 008.164-19.159h.923a26.323 26.323 0 008.164 19.16 26.326 26.326 0 0019.147 8.218v.875a27.98 27.98 0 00-19.12 8.196 28.02 28.02 0 00-8.191 19.133zm-52.628 119.576h-1.701a53.216 53.216 0 00-15.573-36.337 53.148 53.148 0 00-36.327-15.549v-1.702a49.744 49.744 0 0036.35-15.561 50.054 50.054 0 0015.55-36.374h1.701a49.749 49.749 0 0015.745 36.374 49.849 49.849 0 0036.349 15.561v1.653a53.053 53.053 0 00-36.339 15.557 53.12 53.12 0 00-15.512 36.378h-.243zm-77.315 161.347C497.963 369.474 577.562 310.877 597 241.534a169.569 169.569 0 01-115.648 35.084 169.598 169.598 0 01-109.643-50.847 169.816 169.816 0 01-48.002-110.977A169.83 169.83 0 01361.702 0c-84.264 21.348-146.611 100.708-146.757 191.642a134.183 134.183 0 00-26.144 0 130.576 130.576 0 00-67.305 26.405 126.444 126.444 0 00-44.853 70.073 137.703 137.703 0 00-19.146 5.835 101.688 101.688 0 00-23.229 12.4 83.133 83.133 0 00-14.821 13.956A84.404 84.404 0 00.009 375.406a96.081 96.081 0 0017.98 55.047 90.29 90.29 0 0015.307 16.388 79.222 79.222 0 0021.042 12.643A97.133 97.133 0 0079.656 466h255.659l2.867-.34a154.333 154.333 0 0040.577-15.075 94.695 94.695 0 0030.081-25.821 90.742 90.742 0 0016.522-40.41h1.701l-.146.049z" fill="#FA8C16"/></svg>