<svg width="626" height="420" fill="none" xmlns="http://www.w3.org/2000/svg"><path d="M78.751 0h468.51c21.604 0 41.289 8.864 55.545 23.1h.061C617.136 37.35 626 57.032 626 78.643v262.716c0 21.611-8.876 41.28-23.145 55.529C588.587 411.136 568.89 420 547.261 420H78.751c-21.629 0-41.35-8.852-55.618-23.113l-.905-.964C8.498 381.759 0 362.48 0 341.358V78.642c0-21.574 8.864-41.22 23.12-55.492l.062-.061C37.512 8.828 57.172 0 78.752 0zm143.882 251.885h-33.757v39.157h-51.938V128.958h81.807c37.218 0 55.827 19.975 55.827 59.913 0 21.953-4.854 38.204-14.537 48.753-3.644 3.968-8.657 7.338-15.064 10.11-6.406 2.759-13.852 4.151-22.338 4.151zm-33.757-81.426v39.926h14.256c6.223 0 10.772-.648 13.633-1.942 2.849-1.294 4.291-4.273 4.291-8.949V181.35c0-4.676-1.442-7.655-4.291-8.95-2.861-1.294-7.41-1.941-13.633-1.941h-14.256zm156.842 120.583h-54.273l9.866-162.084h67.784l20.248 82.464h1.821l20.26-82.464h67.772l9.866 162.084h-54.273l-3.118-78.582h-1.81l-19.745 78.582h-39.725l-20.002-78.582h-1.553l-3.118 78.582zM547.261 32.258H78.751c-12.8 0-24.416 5.213-32.791 13.577l-.062.061C37.523 54.26 32.303 65.86 32.303 78.642v262.716c0 12.405 4.951 23.723 12.948 32.062l.709.672c8.436 8.412 20.051 13.638 32.791 13.638h468.51c12.716 0 24.331-5.238 32.755-13.651 8.436-8.412 13.681-20.011 13.681-32.721V78.642c0-12.722-5.245-24.321-13.669-32.746-8.387-8.412-20.003-13.638-32.767-13.638z" fill="#FA8C16"/></svg>