<svg width="241" height="100" fill="none" xmlns="http://www.w3.org/2000/svg"><path d="M39.227 21.538A39.23 39.23 0 1139.236 100a39.23 39.23 0 01-.008-78.462zm25.75 21.071l-11.52 11.518a870.75 870.75 0 00-1.779-2.515c-.902-1.28-1.855-2.56-2.738-3.941l10.801-10.776A31.559 31.559 0 0015.27 81.367l5.12-5.12.07.16a20.08 20.08 0 004.357 6.4l-3.839 3.839a31.635 31.635 0 0030.324 3.359A31.694 31.694 0 0068.38 72.92a31.352 31.352 0 002.387-12.068 31.31 31.31 0 00-5.81-18.243h.02z" fill="#fff"/><path fill-rule="evenodd" clip-rule="evenodd" d="M39.215 34.675c3.474 14.845 16.77 23.938 16.77 33.638a15.901 15.901 0 01-4.933 11.716 16.267 16.267 0 01-11.83 4.889 16.246 16.246 0 01-11.794-4.889 15.884 15.884 0 01-4.959-11.716c0-9.732 13.303-18.71 16.746-33.638zm-9.56 29.351a1.689 1.689 0 011.843 1.536 16.355 16.355 0 001.65 6.136 10.84 10.84 0 004.23 4.37A1.698 1.698 0 0135.663 79a14.147 14.147 0 01-5.522-5.72 19.837 19.837 0 01-2.028-7.41 1.708 1.708 0 011.542-1.843z" fill="#fff"/><path d="M144.869 21.777c-8.607 13.078-14.449 22.87-14.642 24.42-.264 2.124.071 2.758 1.903 3.594 4.426 2.019 12.566.8 17.813-2.643 1.508-.99 3.925-3.596 5.338-5.709 8.588-12.834 25.657-39.122 26.058-40.17.406-1.057-1.243-1.275-10.835-1.269h-11.258l-14.377 21.777zM81.88 81.83c7.208-10.234 20.508-30.279 20.122-30.665-.148-.148-2.358.267-4.916.952-4.001 1.072-7.598 1.172-10.49.289a48.11 48.11 0 01.59 7.526 47.554 47.554 0 01-5.305 21.898zm4.214-32.099c4.527 2.101 13.973.798 18.868-3.746 1.29-1.197 4.791-5.886 7.77-10.465 1.066-1.64 2.571-3.963 4.288-6.615l.011-.017h.001l.008-.013.001-.001c3.077-4.751 6.831-10.548 9.962-15.343l8.88-13.53h-23.151l-2.961 4.549c-7.936 12.187-17.1 26.258-25.143 39.92a47.406 47.406 0 011.466 5.261zm-3.111-9.418L109.35 0H92.012l-2.22 3.489c-1.207 1.914-8.149 12.462-15.434 23.468l-.157.238a47.834 47.834 0 018.782 13.118zM72.678 25.649A8768.194 8768.194 0 0184.982 6.766L89.422 0H66.218L56.186 15.196A47.784 47.784 0 0172.678 25.65zm35.614 20.125c1.099-1.208 8.415-12.008 16.227-23.997L138.684 0h8.827c6.839 0 8.684.238 8.193 1.057-.348.583-6.483 9.99-13.69 20.931-7.208 10.942-13.521 21.132-14.007 22.623-.635 1.949-1.856 3.133-4.281 4.228-4.177 1.886-13.904 2.072-16.015.318-1.332-1.106-1.275-1.34.581-3.383z" fill="#fff"/><path d="M102.896 89.848c-1.256-1.992 1.828-6.722 14.384-25.973l.843-1.293c4.849-7.437 8.975-13.531 9.144-13.531.17 0 1.391.831 2.696 1.797 3.253 2.407 8.065 2.887 13.848 1.374 2.675-.699 4.863-1.167 4.863-.951 0 .752-21.344 32.913-23.151 34.885-4.301 4.695-14.675 7.463-19.927 5.286l-.269-.111c-1.152-.476-2.022-.834-2.431-1.483zM94.972 66.6c-5.581 8.692-11.4 17.473-12.897 19.45l-2.696 3.595 1.85 1.268c2.451 1.719 9.343 1.637 14.166-.211 2.983-1.143 4.149-2.23 5.391-4.863.871-1.849 5.798-9.843 10.994-17.76l2.147-3.27c4.243-6.463 7.626-11.615 7.896-12.058.414-.68-.659-.678-3.805-.106-3.982.725-7.269.396-11.629-1.269-.925-.352-4.017 3.698-11.417 15.223zm82.245-54.971c-3.886 5.936-12.572 19.32-19.293 29.705-4.357 6.73-9.756 15.036-14.25 21.95l-.009.016c-2.435 3.745-4.603 7.081-6.196 9.536-4.535 6.99-8.246 13.096-8.246 13.532 0 .436 2.221.845 4.969.845h5.021l4.546-7.083c2.507-3.84 7.179-11.06 10.412-16.068a6035.57 6035.57 0 0113.69-21.037c4.301-6.58 9.759-14.947 12.104-18.605 2.345-3.66 4.532-6.663 4.863-6.66.332.003 1.253 1.048 2.009 2.326.756 1.277 8.701 13.538 17.654 27.273 8.951 13.735 18.418 28.277 21.036 32.349l4.758 7.4 5.285.105c2.908.002 5.286-.246 5.286-.528 0-.284-3.556-5.89-7.876-12.475-4.32-6.584-16.784-25.841-27.697-42.707C194.37 14.635 185.152.856 184.828.845c-.324-.011-3.725 4.846-7.611 10.783z" fill="#fff"/><path d="M175.102 36.048l2.115-3.277c1.177-1.781 2.384-2.905 2.695-2.537.312.367 7.955 12.038 16.967 26.005 9.011 13.968 17.083 26.375 17.919 27.486 2.26 3.003 1.883 3.488-2.538 3.488h-4.017l-9.989-15.54a21546.267 21546.267 0 00-16.597-25.582l-6.555-10.043z" fill="#fff"/></svg>