<svg width="231" height="100" fill="none" xmlns="http://www.w3.org/2000/svg"><path d="M51.888 71.644a7.858 7.858 0 00-1.19-4.067l-.038-.012c-3.29 5.52-13.12 9.51-24.722 9.51-11.603 0-21.434-3.99-24.723-9.51a7.859 7.859 0 00-1.19 4.067c0 7.477 11.653 13.565 25.95 13.565 14.298 0 25.913-6.075 25.913-13.553z" fill="#fff"/><path d="M51.888 86.447a7.783 7.783 0 00-1.19-4.054l-.038.05c-3.29 5.507-13.12 9.499-24.722 9.499-11.603 0-21.434-3.992-24.723-9.499a7.783 7.783 0 00-1.19 3.992C.025 93.912 11.678 100 25.975 100c14.298 0 25.913-6.075 25.913-13.553zm-.063-28.444a7.757 7.757 0 00-1.089-3.89c-3.175 5.595-13.108 9.662-24.824 9.662-11.716 0-21.623-4.08-24.824-9.662A7.897 7.897 0 000 58.003C0 65.506 11.615 71.57 25.912 71.57c14.297 0 25.913-6.076 25.913-13.566z" fill="#fff"/><path fill-rule="evenodd" clip-rule="evenodd" d="M.886 41.596c2.948-5.81 13.044-10.104 25.052-10.104 14.297 0 25.912 6.075 25.912 13.565 0 7.49-11.615 13.578-25.912 13.578-11.894 0-22.016-4.232-24.99-9.978C-.606 46.13.874 41.57.887 41.596zm46.346 1.023c0-4.547-9.528-8.336-21.294-8.336-11.755 0-21.295 3.789-21.295 8.336 0 4.547 9.528 8.336 21.295 8.336 11.766 0 21.294-3.789 21.294-8.336zm-16.626 4.75l-.455-2.982a2.532 2.532 0 001.581-.833 2.12 2.12 0 00.532-1.49 2.07 2.07 0 00-.848-1.567 3.459 3.459 0 00-2.34-.543 3.141 3.141 0 00-2.139.758 2.147 2.147 0 00-.645 1.73 3.016 3.016 0 001.265 2.261l-.24 2.526-8.857-1.073.228-8.046 2.821-.126.279 5.67 2.695.342a4.416 4.416 0 01-.608-2.034 4.49 4.49 0 011.265-3.46 5.251 5.251 0 013.72-1.567 5.676 5.676 0 013.518.948 5.057 5.057 0 012.252 4.142 5.31 5.31 0 01-1 3.6 4.785 4.785 0 01-3.062 1.794l.038-.05z" fill="#fff"/><path d="M129.61 22.886c-9.045 13.744-15.184 24.035-15.387 25.663-.278 2.232.075 2.899 2 3.777 4.651 2.122 13.205.84 18.719-2.777 1.585-1.04 4.126-3.779 5.611-6 9.025-13.487 26.962-41.114 27.385-42.216.425-1.11-1.307-1.34-11.388-1.333h-11.831L129.61 22.886zm-66.195 63.11c7.574-10.754 21.551-31.82 21.146-32.226-.156-.156-2.479.28-5.166 1-4.206 1.127-7.985 1.232-11.024.304.408 2.576.62 5.218.62 7.909 0 8.295-2.013 16.12-5.576 23.013zm4.428-33.732c4.757 2.207 14.684.837 19.828-3.937 1.356-1.258 5.036-6.186 8.166-10.999a5008.1 5008.1 0 004.529-6.985 5426.411 5426.411 0 0110.469-16.123L120.167 0h-24.33l-3.094 4.754-.018.028c-8.34 12.807-17.97 27.594-26.423 41.953a49.808 49.808 0 011.541 5.529zm-3.269-9.899L92.282 0h-18.22L71.73 3.666c-1.27 2.012-8.565 13.097-16.22 24.664l-.165.25a50.27 50.27 0 019.23 13.786zm-10.831-15.41A9258.9 9258.9 0 0166.674 7.11L71.34 0H46.955L36.412 15.97a50.218 50.218 0 0117.331 10.985zM91.17 48.104c1.155-1.27 8.844-12.62 17.054-25.218L123.111 0h9.276c7.187 0 9.125.25 8.61 1.111-.366.612-6.813 10.498-14.387 21.997-7.575 11.498-14.21 22.208-14.72 23.774-.667 2.048-1.95 3.293-4.499 4.444-4.39 1.981-14.612 2.178-16.831.333-1.4-1.161-1.34-1.408.61-3.555z" fill="#fff"/><path d="M85.5 94.422c-1.32-2.093 1.921-7.063 15.116-27.295l.887-1.358c5.096-7.816 9.432-14.22 9.609-14.22.178 0 1.462.873 2.833 1.888 3.418 2.53 8.476 3.034 14.554 1.444 2.811-.735 5.11-1.227 5.11-1 0 .79-22.431 34.59-24.33 36.662-4.52 4.934-15.422 7.843-20.941 5.554l-.283-.116c-1.211-.5-2.125-.877-2.555-1.558zM77.173 69.99c-5.866 9.136-11.982 18.364-13.554 20.442l-2.833 3.777 1.944 1.333c2.576 1.806 9.819 1.72 14.887-.222 3.135-1.201 4.36-2.343 5.666-5.11.915-1.944 6.093-10.345 11.554-18.664l2.252-3.432.003-.004.021-.032c4.45-6.778 7.994-12.177 8.278-12.641.435-.714-.692-.713-3.999-.111-4.185.761-7.64.415-12.22-1.334-.973-.37-4.222 3.886-12 15.998zm86.432-57.77c-4.084 6.24-13.212 20.305-20.275 31.218-4.582 7.079-10.26 15.814-14.984 23.083-2.559 3.937-4.839 7.443-6.513 10.024-4.765 7.345-8.665 13.762-8.665 14.22 0 .458 2.334.889 5.221.889h5.277l4.777-7.444a5000.262 5000.262 0 0010.943-16.886 6251.585 6251.585 0 0114.387-22.108c4.519-6.916 10.256-15.708 12.72-19.553 2.464-3.846 4.762-7.002 5.111-6.999.349.004 1.316 1.102 2.111 2.444.794 1.343 9.144 14.229 18.552 28.663 9.408 14.434 19.357 29.716 22.108 33.995l5 7.777 5.554.11c3.056.002 5.555-.258 5.555-.555 0-.298-3.737-6.19-8.276-13.109-4.541-6.92-17.64-27.157-29.107-44.883C181.632 15.381 171.944.9 171.604.89c-.341-.012-3.915 5.093-7.999 11.332z" fill="#fff"/><path d="M161.383 37.884l2.222-3.444c1.237-1.872 2.506-3.054 2.833-2.667.328.387 8.36 12.65 17.831 27.33 9.469 14.679 17.952 27.717 18.83 28.885 2.376 3.156 1.98 3.666-2.666 3.666h-4.222l-10.498-16.331c-5.782-8.93-13.636-21.03-17.442-26.885l-6.888-10.554z" fill="#fff"/></svg>