<svg width="243" height="100" fill="none" xmlns="http://www.w3.org/2000/svg"><path fill-rule="evenodd" clip-rule="evenodd" d="M31.378 30.47c11.742 7.43 22.35 10.943 31.453 10.113 1.59 32.093-10.285 51.046-31.33 58.955C11.175 92.134-.846 73.997.045 40.094c10.687.559 21.172-1.746 31.332-9.623zm-5.627 33.968a21.312 21.312 0 012.014 1.944 79.073 79.073 0 016.281-8.732c6.265-7.55 3.426-6.096 12.115-6.096l-1.207 1.34c-3.71 4.113-4.962 6.256-8.004 10.64-3.042 4.39-5.76 8.92-8.18 13.582l-.752 1.45-.692-1.476c-1.276-2.735-2.806-5.243-4.627-7.486-1.823-2.243-3.415-3.704-5.887-5.397 1.133-3.71 6.523-1.811 8.94.23zM31.4 35.816c9.737 6.16 19.085 9.623 26.633 8.933 1.32 26.615-9.08 42.882-26.53 49.441C14.645 88.052 4.125 72.462 4.864 44.346c9.781.511 18.745-2.49 26.534-8.53z" fill="#fff"/><path d="M138.847 23.62c-9.335 14.185-15.671 24.806-15.88 26.487-.288 2.303.077 2.992 2.063 3.898 4.801 2.19 13.63.868 19.321-2.866 1.635-1.074 4.257-3.9 5.79-6.192 9.315-13.92 27.828-42.434 28.264-43.571C178.844.23 177.056-.006 166.652 0h-12.211l-15.594 23.62zM70.528 88.756c7.817-11.1 22.243-32.842 21.824-33.26-.16-.161-2.558.289-5.331 1.032-4.34 1.163-8.242 1.27-11.378.313.42 2.66.64 5.386.64 8.163 0 8.561-2.077 16.637-5.755 23.752zm4.57-34.816c4.91 2.279 15.156.865 20.465-4.063 1.399-1.298 5.197-6.384 8.427-11.351 1.161-1.785 2.802-4.319 4.674-7.209l.002-.003a5949.443 5949.443 0 0110.803-16.637L129.101 0H103.99a4008.394 4008.394 0 01-3.212 4.935c-8.607 13.218-18.546 28.48-27.27 43.3a51.421 51.421 0 011.59 5.706zm-3.374-10.215L100.321 0H81.517l-2.408 3.784C77.8 5.86 70.27 17.3 62.37 29.238l-.171.258a51.88 51.88 0 019.526 14.229zM60.546 27.82A9522.75 9522.75 0 0173.892 7.338L78.708 0H53.54L42.658 16.483A51.828 51.828 0 0160.546 27.82zm38.629 21.828c1.191-1.31 9.127-13.025 17.6-26.028L132.139 0h9.575c7.417 0 9.418.258 8.886 1.147-.378.631-7.032 10.835-14.849 22.702-7.818 11.868-14.666 22.92-15.192 24.538-.689 2.113-2.013 3.398-4.644 4.586-4.53 2.045-15.081 2.248-17.371.344-1.444-1.199-1.383-1.453.63-3.669z" fill="#fff"/><path d="M93.322 97.453c-1.363-2.162 1.983-7.291 15.601-28.172l.915-1.402c5.26-8.066 9.735-14.677 9.918-14.677.184 0 1.509.902 2.924 1.95 3.528 2.61 8.747 3.131 15.02 1.49 2.902-.758 5.275-1.266 5.275-1.032 0 .816-23.151 35.7-25.111 37.838-4.665 5.092-15.917 8.095-21.613 5.733-.1-.04-.197-.081-.292-.12-1.25-.516-2.193-.905-2.637-1.609zm-8.595-25.217c-6.054 9.429-12.365 18.953-13.988 21.097l-2.924 3.899 2.007 1.376c2.658 1.864 10.133 1.775 15.364-.23 3.235-1.239 4.5-2.417 5.848-5.274.945-2.005 6.289-10.676 11.924-19.263l2.325-3.541.002-.002c4.603-7.012 8.273-12.602 8.566-13.082.449-.737-.714-.736-4.128-.115-4.318.786-7.884.43-12.612-1.376-1.004-.383-4.357 4.01-12.384 16.511zm89.206-59.623c-4.215 6.439-13.636 20.956-20.925 32.22-4.727 7.3-10.583 16.31-15.457 23.81l-.011.015c-2.64 4.062-4.992 7.68-6.719 10.343-4.919 7.58-8.944 14.204-8.944 14.676 0 .473 2.409.918 5.389.918h5.447l4.93-7.682c2.72-4.166 7.787-11.997 11.294-17.429a6312.65 6312.65 0 0114.849-22.817c4.664-7.138 10.585-16.212 13.128-20.18 2.543-3.97 4.915-7.227 5.275-7.224.36.004 1.358 1.137 2.178 2.523.82 1.385 9.438 14.684 19.148 29.582 9.71 14.897 19.978 30.67 22.818 35.086l5.159 8.026 5.734.115c3.153.002 5.733-.267 5.733-.573 0-.308-3.857-6.389-8.543-13.53-4.686-7.142-18.205-28.03-30.041-46.323C192.539 15.875 182.54.929 182.189.917c-.352-.012-4.041 5.257-8.256 11.696z" fill="#fff"/><path d="M171.64 39.1l2.293-3.555c1.277-1.932 2.586-3.151 2.924-2.752.338.398 8.628 13.056 18.403 28.206 9.774 15.15 18.528 28.607 19.435 29.812 2.452 3.258 2.043 3.784-2.752 3.784h-4.357L196.75 77.74a20903.86 20903.86 0 00-18.001-27.748l-7.109-10.893z" fill="#fff"/></svg>