<svg width="888" height="701" fill="none" xmlns="http://www.w3.org/2000/svg"><path fill-rule="evenodd" clip-rule="evenodd" d="M436.199 340.68c-10.711-4.177-21.772-6.358-33.177-6.358-17.155 0-31.262 5.489-42.323 16.373l-95.445 95.356 9.931 10.019-36.229 36.485L178 431.507l36.225-36.229 11.233 10.973 94.919-94.832C333.438 298.446 347.462 292 362.439 292c25.168 0 49.727 16.2 73.76 48.68zm144.839-27a89.452 89.452 0 0129.602 5.011l-23.548 25.489c-53.499 57.877 6.875 91.364 60.078 51.631l20.521-15.322a89.705 89.705 0 012.923 22.767c0 49.474-40.101 89.58-89.58 89.58-16.14 0-31.285-4.27-44.363-11.743l-43.505 46.187c40.948 39.2 81.907 78.391 122.858 117.582l-55.556 55.556A283015.475 283015.475 0 01444.281 579.18l-76.282 80.972c-5.792 9.907-16.54 16.565-28.84 16.565-18.437 0-33.39-14.949-33.39-33.39 0-7.97 2.802-15.294 7.464-21.035l-.048-.048.293-.253a33.593 33.593 0 018.547-7.328l85.795-73.548-105.78-110.791 43.894-43.89c40.719 39.112 73.773 70.486 114.544 109.541l47.562-40.779c-10.44-14.649-16.581-32.573-16.581-51.936 0-49.478 40.101-89.58 89.579-89.58zm-288.262 19.861l-43.629 43.629-8.363-8.359 43.629-43.633 8.363 8.363z" fill="#FA8C16"/><path fill-rule="evenodd" clip-rule="evenodd" d="M670.49 171.325C790.12 265.324 888 344.03 888 346.221c0 2.195-5.086 10.469-11.295 18.385L865.41 379 657.766 216.541C543.568 127.194 447.915 54.088 445.212 54.088c-2.703 0-98.268 73.038-212.367 162.308L25.397 378.699l-12.615-14.368C5.841 356.426.087 348.619 0 346.989c-.093-1.635 32.461-28.409 72.338-59.506l72.503-56.532v-42.455c0-32.956-1.74-43.129-7.768-45.45-4.273-1.64-7.768-7.729-7.768-13.532 0-9.815 3.211-10.542 46.609-10.542 45.838 0 46.609.207 46.609 12.546 0 6.898-2.532 13.387-5.634 14.425-3.097 1.033-4.842 8.289-3.884 16.122 1.683 13.714 5.945 10.952 114.394-74.118 61.96-48.6 115.56-88.174 119.113-87.946 3.558.223 104.348 77.32 223.978 171.324z" fill="#FA8C16"/></svg>