<svg width="888" height="659" fill="none" xmlns="http://www.w3.org/2000/svg"><path fill-rule="evenodd" clip-rule="evenodd" d="M329.912 307L221 420.282l70.103.008v200.6h77.629v-.007h52.758l1.523.007 69.568-.018-74.628-77.619-49.221.007V420.301l70.096-.015L329.912 307zm235.357 351.822l108.919-113.286-70.113-.007v-103.38l.007-1.966v-95.255l-3.777-.007-181.563.007v12.145l62.959 65.477h21.373l1.973.008h21.401v122.96l-70.095.018 108.916 113.286z" fill="#FA8C16"/><path fill-rule="evenodd" clip-rule="evenodd" d="M670.49 171.325C790.12 265.324 888 344.03 888 346.221c0 2.195-5.086 10.469-11.295 18.385L865.41 379 657.766 216.541C543.568 127.194 447.915 54.088 445.212 54.088c-2.703 0-98.268 73.038-212.367 162.308L25.397 378.699l-12.615-14.368C5.841 356.426.087 348.619 0 346.989c-.093-1.635 32.461-28.409 72.338-59.506l72.503-56.532v-42.455c0-32.956-1.74-43.129-7.768-45.45-4.273-1.64-7.768-7.729-7.768-13.532 0-9.815 3.211-10.542 46.609-10.542 45.838 0 46.609.207 46.609 12.546 0 6.898-2.532 13.387-5.634 14.425-3.097 1.033-4.842 8.289-3.884 16.122 1.683 13.714 5.945 10.952 114.394-74.118 61.96-48.6 115.56-88.174 119.113-87.946 3.558.223 104.348 77.32 223.978 171.324z" fill="#FA8C16"/></svg>