<svg width="954" height="605" fill="none" xmlns="http://www.w3.org/2000/svg"><path fill-rule="evenodd" clip-rule="evenodd" d="M954 329.366L898.948 396c-259.554-220.415-30.997-28.86-287.657-248.236l-16.134 19.749 16.916 13.871-45.782 55.878L483 169.413l45.684-56.446 18.52 15.185 16.134-19.73-23.174-19.024 42.555-52.645 23.429 19.298 24.426-29.859c6.395-7.719 13.22-13.754 20.515-18.025 40.56-23.55 83.037 8.445 109.458 37.52-52.862-15.772-77.034 13.93-106.388 49.667C767.196 182.109 842.782 240.318 954 329.366zm-283.51 67.959C790.12 491.324 888 570.03 888 572.221c0 2.195-5.086 10.469-11.295 18.385L865.41 605 657.766 442.541c-114.198-89.347-209.851-162.453-212.554-162.453-2.703 0-98.268 73.038-212.367 162.308L25.397 604.699l-12.615-14.368C5.841 582.426.087 574.619 0 572.989c-.093-1.635 32.461-28.409 72.338-59.506l72.503-56.532v-42.455c0-32.956-1.74-43.129-7.768-45.45-4.273-1.64-7.768-7.729-7.768-13.532 0-9.815 3.211-10.542 46.609-10.542 45.838 0 46.609.207 46.609 12.546 0 6.898-2.532 13.387-5.634 14.425-3.097 1.033-4.842 8.289-3.884 16.122 1.683 13.714 5.945 10.952 114.394-74.118 61.96-48.601 115.56-88.174 119.113-87.946 3.558.223 104.348 77.321 223.978 171.324z" fill="#FA8C16"/></svg>