<svg width="1052" height="231" fill="none" xmlns="http://www.w3.org/2000/svg"><path d="M0 31.271C0 21.044 3.637 13.276 10.912 7.965 18.383 2.655 29.197 0 43.353 0v86.438h82.873V31.271c0-10.227 3.637-17.995 10.912-23.306C144.61 2.655 155.423 0 169.58 0v180.547c0 10.227-3.736 17.996-11.207 23.306-7.275 5.31-17.991 7.965-32.147 7.965v-87.913H43.353v56.642c0 10.227-3.735 17.996-11.207 23.306-7.274 5.31-17.99 7.965-32.146 7.965V31.271zm252.21 180.547c-12.976 0-24.773-2.36-35.39-7.08-10.617-4.72-18.973-11.211-25.068-19.471-6.095-8.457-9.143-17.996-9.143-28.616v-39.236c0-10.818 2.949-20.651 8.848-29.502 5.898-9.047 14.156-16.127 24.773-21.24 10.617-5.114 22.611-7.67 35.98-7.67 13.37 0 25.364 2.556 35.981 7.67 10.617 5.113 18.875 12.193 24.773 21.24 5.898 8.85 8.848 18.684 8.848 29.502v39.236c0 10.62-3.048 20.159-9.143 28.616-6.095 8.26-14.451 14.751-25.068 19.471-10.617 4.72-22.414 7.08-35.391 7.08zm0-34.811c9.241 0 16.418-2.065 21.53-6.195 5.112-4.131 7.668-9.834 7.668-17.111V119.48c0-7.671-2.655-13.866-7.963-18.586-5.112-4.72-12.19-7.08-21.235-7.08-9.044 0-16.22 2.36-21.529 7.08-5.112 4.72-7.668 10.915-7.668 18.586v34.221c0 7.277 2.556 12.98 7.668 17.111 5.112 4.13 12.288 6.195 21.529 6.195zm82.756-87.324c0-9.833 3.145-17.405 9.437-22.715 6.292-5.31 15.828-7.966 28.607-7.966v17.406c-2.949 3.147-5.406 6.49-7.373 10.03l2.065 1.18c6.291-9.44 12.78-16.52 19.465-21.24 6.881-4.917 15.041-7.376 24.478-7.376 16.712 0 28.312 8.359 34.801 25.076 4.915-7.867 11.207-13.964 18.875-18.29 7.668-4.524 16.319-6.786 25.953-6.786 13.369 0 23.987 4.917 31.851 14.75 8.061 9.835 12.092 22.323 12.092 37.467v76.998c0 8.457-3.244 14.554-9.732 18.291-6.489 3.54-16.516 5.31-30.082 5.31v-97.059c0-6.687-1.475-11.997-4.424-15.93-2.949-3.934-7.57-5.9-13.862-5.9-6.291 0-11.6 2.261-15.925 6.785-4.326 4.327-6.489 11.702-6.489 22.126v66.377c0 8.457-3.244 14.554-9.732 18.291-6.292 3.54-16.122 5.31-29.492 5.31v-97.059c0-6.687-1.475-11.997-4.424-15.93-2.949-3.934-7.471-5.9-13.566-5.9-15.139 0-22.709 10.128-22.709 30.386v64.902c0 8.457-3.244 14.554-9.732 18.291-6.489 3.54-16.516 5.31-30.082 5.31V89.683zM626.4 211.818c-12.19 0-23.495-2.458-33.915-7.375-10.224-4.917-18.384-11.604-24.479-20.061-6.095-8.457-9.142-17.897-9.142-28.321V118.3c0-11.014 3.047-21.045 9.142-30.092 6.292-9.243 14.648-16.422 25.068-21.535 10.421-5.114 21.628-7.67 33.621-7.67 11.797 0 22.611 2.458 32.442 7.374 10.027 4.72 17.892 11.506 23.593 20.356 5.702 8.654 8.553 18.488 8.553 29.501v15.931c0 4.72-1.769 8.752-5.309 12.096-3.539 3.146-8.061 4.72-13.566 4.72h-74.32v4.13c0 7.867 2.359 14.357 7.078 19.471 4.915 4.916 12.092 7.375 21.529 7.375 9.241 0 16.024-1.967 20.35-5.9 4.325-4.13 6.488-9.244 6.488-15.341 3.932-.393 6.882-.59 8.848-.59 8.061 0 14.254 1.672 18.58 5.015 4.325 3.344 6.488 8.261 6.488 14.751 0 5.31-2.654 10.62-7.963 15.93-5.308 5.311-12.681 9.637-22.119 12.981-9.241 3.343-19.563 5.015-30.967 5.015zm28.313-91.453v-4.131c0-7.867-2.654-14.062-7.963-18.585-5.112-4.72-11.895-7.08-20.35-7.08-8.454 0-15.335 2.36-20.644 7.08-5.112 4.523-7.668 10.718-7.668 18.585v4.131h56.625zm71.745-102.037c0-5.02 2.048-9.015 6.144-11.985 4.096-3.073 9.575-4.61 16.436-4.61l30.721 78.363-3.841 10.448 1.69.768 33.025-89.425c6.861 0 12.34 1.536 16.436 4.61 4.096 2.97 6.144 6.965 6.144 11.984v93.728c-14.644 0-21.966-5.378-21.966-16.134V52.131l5.53-15.365-1.843-.615-26.113 70.065c-.717 1.742-1.894 3.176-3.533 4.303-1.638 1.126-3.43 1.69-5.376 1.69-2.048 0-3.891-.564-5.53-1.69a9.454 9.454 0 01-3.533-4.456l-26.112-70.22-1.844.77 5.53 15.364v44.098c0 10.756-7.322 16.134-21.965 16.134V18.328zm146.03 93.881c-5.018 0-9.729-.973-14.132-2.92-4.301-2.048-7.783-4.968-10.445-8.758-2.663-3.892-3.994-8.553-3.994-13.982 0-5.43 1.434-10.09 4.301-13.982 2.867-3.995 6.656-7.017 11.367-9.066 4.813-2.048 10.035-3.073 15.668-3.073 4.71 0 8.857.717 12.442 2.151 3.686 1.434 7.117 3.534 10.291 6.3l.768-.922c-2.15-1.946-3.84-3.329-5.069-4.148V61.81c0-3.892-1.433-6.965-4.301-9.22-2.765-2.355-6.707-3.533-11.827-3.533-4.506 0-8.5.82-11.981 2.458-3.482 1.64-6.298 4.047-8.449 7.222-2.457-.615-4.557-1.741-6.298-3.38-1.638-1.742-2.457-3.637-2.457-5.685 0-3.176 1.382-6.044 4.147-8.605 2.765-2.663 6.503-4.712 11.213-6.146 4.813-1.536 10.087-2.305 15.822-2.305 11.161 0 19.763 2.561 25.805 7.683 6.042 5.122 9.063 12.087 9.063 20.896v37.338c0 4.814-1.587 8.297-4.762 10.448-3.072 2.151-7.987 3.227-14.746 3.227v-5.993c1.536-1.434 2.765-2.714 3.686-3.841l-.768-.768c-3.379 3.483-6.912 6.146-10.598 7.99-3.687 1.741-8.602 2.612-14.746 2.612zm5.837-15.058c4.915 0 8.755-.922 11.52-2.766 2.765-1.844 4.147-4.507 4.147-7.99 0-3.38-1.433-6.043-4.301-7.99-2.764-1.946-6.553-2.919-11.366-2.919-4.301 0-7.732.973-10.292 2.92-2.457 1.946-3.686 4.609-3.686 7.99 0 3.482 1.229 6.145 3.686 7.99 2.56 1.843 5.991 2.765 10.292 2.765zm80.799 15.058c-8.704 0-15.104-2.51-19.2-7.529-4.096-5.02-6.144-11.473-6.144-19.36V49.519h-16.283c0-5.224.973-9.117 2.919-11.678 1.946-2.56 4.506-3.84 7.68-3.84h5.991V21.86c0-4.404 1.689-7.528 5.069-9.372 3.379-1.946 8.499-2.92 15.36-2.92V34h20.43c0 5.532-1.024 9.526-3.072 11.985-2.049 2.356-5.428 3.534-10.138 3.534h-6.913v35.033c0 3.38.666 5.838 1.997 7.375 1.331 1.434 3.636 2.15 6.912 2.15 3.585 0 7.271-1.023 11.06-3.072 1.126 1.024 1.997 2.305 2.611 3.841.717 1.537 1.076 3.073 1.076 4.61 0 2.048-.717 4.046-2.151 5.992-1.434 1.946-3.635 3.585-6.605 4.917-2.867 1.229-6.4 1.844-10.599 1.844zm59.086 0c-6.35 0-12.24-1.281-17.67-3.842-5.323-2.56-9.572-6.043-12.747-10.448-3.174-4.404-4.762-9.321-4.762-14.75V63.5c0-5.736 1.588-10.96 4.762-15.672 3.277-4.815 7.629-8.554 13.057-11.217 5.43-2.663 11.26-3.995 17.51-3.995 6.14 0 11.78 1.28 16.9 3.842 5.22 2.458 9.32 5.992 12.29 10.601 2.97 4.508 4.45 9.63 4.45 15.366v8.297c0 2.458-.92 4.558-2.77 6.3-1.84 1.639-4.19 2.458-7.06 2.458h-38.71v2.151c0 4.097 1.23 7.478 3.69 10.141 2.56 2.561 6.3 3.841 11.21 3.841 4.81 0 8.35-1.024 10.6-3.073 2.25-2.15 3.38-4.814 3.38-7.99 2.05-.204 3.58-.307 4.61-.307 4.2 0 7.42.87 9.67 2.612 2.26 1.742 3.38 4.303 3.38 7.683 0 2.766-1.38 5.531-4.14 8.297-2.77 2.766-6.61 5.019-11.52 6.761-4.82 1.741-10.19 2.612-16.13 2.612zm14.74-47.632v-2.151c0-4.098-1.38-7.324-4.14-9.68-2.67-2.459-6.2-3.688-10.6-3.688-4.41 0-7.99 1.23-10.76 3.688-2.66 2.356-3.99 5.582-3.99 9.68v2.15h29.49z" fill="#006E44"/><path d="M716.83 210.491c-3.343 0-6.194-1.082-8.553-3.246-2.359-2.261-3.539-5.113-3.539-8.555 0-3.442 1.18-6.293 3.539-8.555 2.359-2.262 5.21-3.393 8.553-3.393 3.342 0 6.193 1.131 8.552 3.393 2.458 2.262 3.687 5.113 3.687 8.555 0 3.442-1.229 6.294-3.687 8.555-2.359 2.164-5.21 3.246-8.552 3.246z" fill="#FFAF1B"/><path d="M764.36 210.103c-4.317 0-8.321-.87-12.012-2.612-3.621-1.741-6.511-4.109-8.669-7.105-2.159-2.995-3.238-6.338-3.238-10.03v-13.374c0-3.901 1.079-7.453 3.238-10.657 2.228-3.274 5.187-5.816 8.878-7.627 3.69-1.811 7.66-2.717 11.907-2.717 4.178 0 8.008.871 11.49 2.612 3.551 1.672 6.337 4.075 8.356 7.21 2.019 3.064 3.029 6.547 3.029 10.448v5.642c0 1.672-.627 3.1-1.88 4.284-1.253 1.114-2.855 1.671-4.805 1.671h-26.321v1.463c0 2.786.835 5.085 2.506 6.896 1.741 1.741 4.283 2.612 7.625 2.612 3.273 0 5.675-.696 7.207-2.089 1.532-1.463 2.298-3.274 2.298-5.434 1.393-.139 2.438-.209 3.134-.209 2.855 0 5.048.593 6.58 1.777s2.298 2.925 2.298 5.224c0 1.881-.94 3.761-2.82 5.642-1.88 1.881-4.491 3.413-7.834 4.597-3.273 1.184-6.928 1.776-10.967 1.776zm10.027-32.389v-1.463c0-2.786-.94-4.981-2.82-6.583-1.81-1.671-4.213-2.507-7.207-2.507-2.994 0-5.432.836-7.312 2.507-1.81 1.602-2.715 3.797-2.715 6.583v1.463h20.054zm23.738 32.389c-1.463 0-2.96-.243-4.492-.731-1.532-.418-2.75-1.115-3.656-2.09l18.175-24.971-16.608-24.24c.557-.627 1.636-1.115 3.238-1.463 1.602-.418 3.029-.627 4.283-.627 4.038 0 6.754 1.115 8.147 3.344l8.565 13.791-2.194 3.03.836.627 11.281-17.448c1.462-2.229 4.352-3.344 8.669-3.344 1.253 0 2.577.209 3.969.627 1.463.348 2.472.836 3.029 1.463l-16.712 24.24 18.279 24.971c-.905.975-2.054 1.672-3.447 2.09a12.558 12.558 0 01-4.178.731c-1.532 0-3.064-.278-4.596-.835-1.462-.558-2.507-1.254-3.133-2.09l-11.177-16.613-11.071 16.613c-.627.905-1.602 1.602-2.925 2.09-1.323.557-2.751.835-4.282.835zm51.573-44.614c0-2.647 1.114-4.876 3.343-6.687 2.228-1.881 5.501-2.821 9.818-2.821v5.642c-.836 1.045-1.497 1.985-1.985 2.821l.523.418c2.158-2.995 4.561-5.224 7.207-6.687 2.715-1.463 6.093-2.194 10.131-2.194 3.761 0 7.103.801 10.028 2.403 2.994 1.602 5.292 3.866 6.894 6.792 1.671 2.855 2.506 6.129 2.506 9.821v16.09c0 3.762-.94 7.105-2.82 10.031-1.81 2.856-4.352 5.085-7.625 6.687-3.203 1.532-6.824 2.298-10.863 2.298-2.367 0-4.944-.487-7.729-1.462-2.716-.976-4.979-2.334-6.789-4.075l-.418.522c.348.557 1.114 1.254 2.298 2.09v14.419c0 6.269-4.84 9.403-14.519 9.403v-65.511zm24.233 32.285c3.203 0 5.64-.661 7.311-1.985 1.741-1.323 2.612-3.204 2.612-5.642v-14.105c0-2.508-.871-4.423-2.612-5.747-1.671-1.323-4.108-1.985-7.311-1.985-2.925 0-5.327.697-7.207 2.09-1.811 1.323-2.716 3.03-2.716 5.119v15.046c0 2.02.905 3.727 2.716 5.12 1.88 1.393 4.282 2.089 7.207 2.089zm57 12.329c-4.317 0-8.321-.87-12.012-2.612-3.621-1.741-6.511-4.109-8.669-7.105-2.159-2.995-3.238-6.338-3.238-10.03v-13.374c0-3.901 1.079-7.453 3.238-10.657 2.228-3.274 5.187-5.816 8.878-7.627s7.66-2.717 11.907-2.717c4.178 0 8.008.871 11.49 2.612 3.551 1.672 6.337 4.075 8.356 7.21 2.019 3.064 3.029 6.547 3.029 10.448v5.642c0 1.672-.627 3.1-1.88 4.284-1.253 1.114-2.855 1.671-4.805 1.671h-26.321v1.463c0 2.786.835 5.085 2.506 6.896 1.741 1.741 4.283 2.612 7.625 2.612 3.273 0 5.675-.696 7.207-2.089 1.532-1.463 2.298-3.274 2.298-5.434 1.393-.139 2.438-.209 3.134-.209 2.855 0 5.048.593 6.58 1.777s2.298 2.925 2.298 5.224c0 1.881-.94 3.761-2.82 5.642-1.88 1.881-4.491 3.413-7.834 4.597-3.273 1.184-6.928 1.776-10.967 1.776zm10.027-32.389v-1.463c0-2.786-.94-4.981-2.82-6.583-1.81-1.671-4.213-2.507-7.207-2.507-2.994 0-5.432.836-7.312 2.507-1.81 1.602-2.715 3.797-2.715 6.583v1.463h20.054zm50.678-9.404c-4.178 0-7.556 1.08-10.132 3.239-2.576 2.159-3.865 4.876-3.865 8.15v22.046c0 2.995-1.183 5.154-3.551 6.478-2.298 1.253-5.884 1.88-10.759 1.88v-43.256c0-3.482 1.15-6.164 3.447-8.045 2.298-1.881 5.71-2.821 10.237-2.821v6.165a17.9 17.9 0 00-2.612 3.552l.732.418c4.386-6.757 9.853-10.135 16.398-10.135 3.134 0 5.501.836 7.103 2.508 1.606 1.671 2.406 3.796 2.406 6.373 0 1.951-.53 3.657-1.57 5.12-1.95-1.115-4.561-1.672-7.834-1.672zM1033 210.103c-5.92 0-10.27-1.706-13.06-5.119-2.78-3.413-4.17-7.802-4.17-13.165v-24.345h-11.08c0-3.552.67-6.199 1.99-7.94 1.32-1.742 3.06-2.613 5.22-2.613h4.07v-8.254c0-2.995 1.15-5.119 3.45-6.373 2.3-1.324 5.78-1.985 10.45-1.985v16.612h13.89c0 3.762-.7 6.478-2.09 8.15-1.39 1.602-3.69 2.403-6.89 2.403h-4.7v23.822c0 2.299.45 3.971 1.35 5.016.91.975 2.48 1.462 4.7 1.462 2.44 0 4.95-.696 7.52-2.089.77.696 1.36 1.567 1.78 2.612.49 1.045.73 2.089.73 3.134 0 1.393-.49 2.752-1.46 4.075-.98 1.324-2.47 2.438-4.49 3.344-1.95.835-4.36 1.253-7.21 1.253z" fill="#006E44"/></svg>